<svg id="_0552_calculator" xmlns="http://www.w3.org/2000/svg" viewBox="0 0 500 500" class="show_show__wrapper__graphic__5Waiy">
  <defs>
    <linearGradient id="linear-gradient" x1="118.23" y1="63.99" x2="175.61" y2="63.99" gradientTransform="rotate(74.52 146.918 63.986)" gradientUnits="userSpaceOnUse">
      <stop offset="0" stop-color="#fff" stop-opacity="0"/>
      <stop offset="1" stop-color="#fff"/>
    </linearGradient>
    <linearGradient id="linear-gradient-2" x1="-1024.81" y1="4293.58" x2="-1029.45" y2="4026.98" gradientTransform="matrix(1 0 0 -1 1274.85 4360.66)" gradientUnits="userSpaceOnUse">
      <stop offset="0"/>
      <stop offset=".13" stop-opacity=".69"/>
      <stop offset=".25" stop-opacity=".32"/>
      <stop offset="1" stop-opacity="0"/>
    </linearGradient>
    <style>
      .cls-1{fill:#020202;opacity:.1}.cls-1,.cls-10,.cls-6,.cls-9{stroke-width:0}.cls-1{isolation:isolate}.cls-10{fill:#68e1fd}.cls-6{fill:#473f47}.cls-9{fill:#ffb4a3}
    </style>
  </defs>
  <g id="background">
    <path d="M493.68 367.03c-.5 4.38-1.37 8.7-2.6 12.91-6.67 22.85-23.4 42.69-42.96 55-12.34 7.78-25.6 14.41-39.84 17.83s-31.6.36-45.77-2.44c-21.52-4.25-41.3-13.76-62.52-19.12a277.6 277.6 0 0 0-66.6-8.46c-14.89-.07-31.66-.1-46.05 4-15.8 4.49-31.92 8.68-48.17 11.71-42.09 7.81-86.89-14.36-111.32-52.1-1.22-1.88-2.38-3.78-3.49-5.7-.34-.57-.66-1.16-.99-1.74-.87-1.56-1.7-3.1-2.53-4.69-.37-.71-.72-1.44-1.06-2.16s-.76-1.59-1.12-2.38l-.09-.19c-.38-.81-.74-1.6-1.08-2.41-3.26-7.53-5.88-15.37-7.83-23.41-7.09-29.54-5.68-60.7 4.02-89.36.87-2.56 1.81-5.09 2.84-7.59 4.99-12.33 11.85-24 21.27-32.84 19.01-17.84 45.62-22.12 68.44-33.6 11.03-5.67 21.39-12.74 30.87-21.04 33.31-28.48 59.57-68.48 97.13-90.78 16.05-9.4 33.75-15.07 51.96-16.64 30.6-2.7 61.21 4.95 87.6 21.88 17.16 11.09 33.18 23.89 47.03 58.09 7.67 18.9 14.65 44.34 20.82 79.62.72 4.1 1.64 8.15 2.75 12.14 8.21 29.51 26.27 57.54 38.24 86.47 6.08 14.7 10.56 29.66 11.41 45.12.22 3.96.1 7.94-.34 11.88Z" style="stroke-width:0;isolation:isolate;opacity:.18;fill:#68e1fd"/>
    <path d="M181.81 369.94c-2.7.11-5.86.46-7.25 2.78a35 35 0 0 1-1.53 3.65c-1.53 2-4.43 1.82-6.9 1.53a85.4 85.4 0 0 0-44.57 6.95c10.41 4.89 22.2 5.79 33.68 6.61 84.3 6.11 168.88 12.11 253.27 7.27 4.98-.27 10.23-.7 14.31-3.57 2-1.4 3.71-3.71 3.3-6.11-.6-3.4-4.69-4.73-8.08-5.39L316.6 364.15c-10.69-2.06-21.68-4.09-32.64-3.77-10.18.27-18.49 4.37-28.18 6.32-23.38 4.7-50.13 2.35-73.96 3.25Z" style="stroke-width:0;isolation:isolate;fill:#68e1fd;opacity:.39"/>
  </g>
  <g id="character">
    <path class="cls-9" d="M165.99 148.91c.18 0 0-.27-.12-.34-.89-.16-1.79-.27-2.69-.32-.91-.06-1.76-.48-2.37-1.16a4.26 4.26 0 0 1-.67-2.05l-1.68-11.39c-1.37-9.25-.6-18.47-1.07-27.82-.1-.96-.05-1.94.14-2.89.23-.75.5-1.49.82-2.21.9-2.89 1.18-5.94.82-8.95.09-.8-.21-1.59-.79-2.14-1.21-.78-2.53.76-3.13 2.08l-1.53 3.42c-.06.18-.17.35-.32.47-.29.14-.63.14-.92 0-2.52-.69-5.28-1.53-6.61-3.8-.98-1.66-1.19-4.08-3.05-4.81-1.67-.44-3.39.47-3.97 2.09a9.8 9.8 0 0 0-.23 4.9c.41 3.27.92 6.7 2.98 9.25.96.99 1.85 2.05 2.66 3.16.77 1.63 1.12 3.42 1.04 5.22l1.04 35.64c.09 3.54.27 7.3 2.32 10.18 2.55 3.57 7.24 4.78 11.54 5.59 2.16.55 4.41.66 6.61.32a6.09 6.09 0 0 0 4.76-4.15 7.33 7.33 0 0 0-1.45-5.44c-1.02-1.62-3.42-3.08-4.14-4.87Z"/>
    <path d="M150.25 100.16c-1.76.47-3.6.6-5.4.38-1.24.08-2.47-.31-3.44-1.1a4.77 4.77 0 0 1-.73-3.76c0-.19.06-.37.18-.52a.84.84 0 0 1 .6-.11l8.6.75c1.27.11 3.94-.29 3.4 1.53a4.99 4.99 0 0 1-3.21 2.82Z" style="stroke-width:0;fill:#e2b596"/>
    <path class="cls-10" d="m285.68 176.53-14.6 2.78-7.99 1.53-7.63-11.28c-3.69-3.47-3.63-4.18-5.73.43-5.74 12.61-15.16 35.68-15.89 52.95l-4.58-.52-58.55-6.89 16.31-52.77-21.48 2.2-3.79-17.79 35.01-11.44c3.66-1.02 7.42-1.66 11.21-1.91 11.15-.7 31.16-1.53 43.74 3.39 16.75 6.38 33.97 39.32 33.97 39.32"/>
    <path class="cls-9" d="M283.39 175.54s6.24 9.62 4.69 13.36c-1.56 3.74-33.88 17.48-33.88 17.48-2.29.09-3.86 2.49-4.58 4.69-.56 2.34-.96 4.71-1.19 7.1a9.75 9.75 0 0 1-3.18 6.28c-.68.57-1.54.88-2.43.89-.6-.05-1.17-.23-1.69-.52a8.91 8.91 0 0 1-4.2-7.08c-.11-2.87.46-5.73 1.66-8.34h-3.79c-.61-1.28 1.22-2.24 2.55-2.69 5.73-1.91 31.04-21.22 31.22-22.61s-3.85-4.58-3.85-4.58a42.34 42.34 0 0 1 18.66-3.97Zm-72.2-56.63c-.02 1.41.17 2.82.56 4.18a9.64 9.64 0 0 0 2.52 4.05c1.15 1.1 2.7 1.8 3.05 3.5.15 1.05.08 2.12-.21 3.15-.34 1.23-.58 2.5-.72 3.77a5.3 5.3 0 0 0 .96 3.62 5.9 5.9 0 0 0 4.58 1.85c2.48.17 4.91-.79 6.6-2.63 1.02-1.56 1.77-3.28 2.21-5.08.7-2.05 1.25-4.14 2.02-6.11 1.62-3.91 3.03-7.9 4.23-11.95 1.29-4.24 1.17-8.79-.34-12.96-1.53-3.45-6.31-5.1-9.82-5.16-3.78 0-7.44 1.33-10.32 3.77-2.2 1.94-3.34 5.45-4.15 8.14-.78 2.55-1.18 5.21-1.18 7.88Z"/>
    <path class="cls-6" d="M214.12 101.61c-.68-.76-1.2-1.64-1.53-2.61-.97-2.37-1.21-4.99-.69-7.5a8.18 8.18 0 0 1 4.58-5.71 8.9 8.9 0 0 1 3.57-.61c.63 0 1.26.1 1.86.31 2.47.95 3.05 4.34 5.27 5.85a2.21 2.21 0 0 1 2.12-1.69c.97.06 1.86.58 2.38 1.4.53.8.99 1.63 1.37 2.5.83 1.54 1.98 2.88 3.39 3.92.19.18.45.29.72.31.32 0 .58-.26.89-.4.9-.37 1.85.5 2.15 1.42.16.95.38 1.9.66 2.82.53 1.15 1.76 1.8 2.58 2.75a6.86 6.86 0 0 1 .55 7.27 20.1 20.1 0 0 1-4.93 5.86c-.44-.6-1.28-.75-1.89-.32-.59.42-1.11.94-1.53 1.53-.42.6-1.1.97-1.83.99-.09-2.2 1.07-4.28 1.27-6.47.08-3.42-1.75-6.6-4.75-8.24a16.25 16.25 0 0 0-9.71-1.71c-1.98.18-4.96-.06-6.5-1.66Z"/>
    <path class="cls-9" d="M237.4 115.95a3.2 3.2 0 0 1 2-.2c.89.4 1.45 1.3 1.4 2.27-.02 1.05-.4 2.07-1.07 2.89-.68.8-1.46 1.51-2.34 2.09-.47.4-1.04.67-1.65.78a2.35 2.35 0 0 1-2.34-1.53c-.31-.98-.21-2.05.27-2.96.7-1.59 2.05-2.81 3.71-3.34Z"/>
    <circle class="cls-10" cx="146.91" cy="63.98" r="33.67"/>
    <circle cx="146.92" cy="63.99" r="28.69" transform="rotate(-74.52 146.91 64.001)" style="stroke-width:0;fill:url(#linear-gradient)"/>
    <path class="cls-10" d="M144.27 82.06v-4.58c-2.46-.03-4.87-.74-6.95-2.06l1.08-3.05c1.94 1.26 4.21 1.93 6.52 1.95 3.25 0 5.42-1.86 5.42-4.46s-1.77-4.05-5.13-5.44c-4.66-1.82-7.53-3.92-7.53-7.88s2.69-6.64 6.89-7.33v-4.58h2.82v4.41c2.07 0 4.11.52 5.92 1.53l-1.13 3.05a10.9 10.9 0 0 0-5.73-1.53c-3.51 0-4.82 2.09-4.82 3.91 0 2.37 1.68 3.56 5.63 5.19 4.69 1.91 7.07 4.28 7.07 8.34a7.92 7.92 0 0 1-7.19 7.74V82l-2.89.05Z"/>
    <path class="cls-9" d="M155.05 91.77a5.58 5.58 0 0 1 2.63-3.6c.21-.1.45-.1.66 0 .19.17.33.38.41.61.36 1.19.51 2.44.46 3.68.05.84.05 1.69 0 2.53a5.64 5.64 0 0 1-2.37 4.34c-.76.41-3.05.56-3.05-1.24.12-1.03.33-2.05.61-3.05q.225-1.65.66-3.27Z"/>
    <path class="cls-6" d="M170.73 215.51s.99 75.74 4.87 103.82c3.8 27.38 6.4 48.86 6.5 50.81l9.16-1.18 9.01-118.62 11.44 49.36 22.98 1.66-.89-78.52-63.07-7.34Z"/>
    <path class="cls-6" d="M161.57 345.55s75.73-29.67 73.12-44.11l-23.04-1.79-56.23 40.22zm18.9 32.02c-.09.24-.09.5 0 .73.16.19.38.32.63.37 6.73 2.11 13.56 4.24 20.61 4.47.96 0 2.15-.14 2.43-1.04.1-.57-.03-1.16-.37-1.63a21.66 21.66 0 0 0-7.79-8c-1.98-1.19-4.32-2.18-5.36-4.26-1.5.37-3.04.61-4.58.72-1.04 0-2.89-.37-3.66.44a9.1 9.1 0 0 0-1.07 3.66c-.4 1.5-.63 3.02-.84 4.53Z"/>
    <path class="cls-6" d="M163.25 346c-.28-.54-.36-1.16-.24-1.76a15.57 15.57 0 0 0-1.89 8.32c.16 2.88.1 5.76-.2 8.63a3.05 3.05 0 0 1-1.53 2.53c-1.21.5-2.49-.49-3.34-1.53a23.9 23.9 0 0 1-5.48-18.69c.02-.32.11-.63.27-.9.4-.44.94-.72 1.53-.79 2.9-.73 4.15-2.67 6.35-4.35 2.05 2.09 3.22 5.95 4.53 8.53Z"/>
    <path d="m271.08 179.31-7.99 1.53-7.63-11.28c-3.69-3.47-3.63-4.18-5.73.43-5.74 12.61-15.16 35.68-15.89 52.95l-4.58-.52a7.8 7.8 0 0 1-1.34-4.2c-.35-4.69 1.21-10.05-1.82-13.63-.7-.82-1.68-1.68-1.53-2.76.16-.67.53-1.27 1.05-1.71 4.58-4.87 8.3-10.49 10.99-16.61 1.53-3.47 2.72-7.08 4.49-10.44 1.79-3.21 3.83-6.28 6.11-9.16 1.53-2.06 3.36-4.28 5.88-4.82 2.89-.64 5.85 1.19 7.63 3.56 1.57 2.51 2.87 5.18 3.88 7.97.68 1.65 1.63 3.17 2.82 4.49.84.87 2.64 1.21 3.28 2 .52.62.66 1.47.37 2.23Z" style="stroke-width:0;fill:url(#linear-gradient-2)"/>
  </g>
  <g id="calculator">
    <path class="cls-10" d="m362.6 384.24-98.43-.58c-6.91 0-12.52-5.61-12.52-12.52V203.39c0-6.91 5.61-12.52 12.52-12.52h101.49c6.91 0 12.52 5.61 12.52 12.52s-2.98 168.33-2.98 168.33c0 6.92-5.63 12.53-12.55 12.52z"/>
    <path class="cls-1" d="m367.4 241.65-15.48 3.94c-24.61 6.26-50.4 6.26-75.01 0l-15.44-3.94v-39.7h105.88z"/>
    <path style="stroke-width:0;fill:#fff" d="M267.85 207.91h94.07v24.89h-94.07z"/>
    <path class="cls-1" d="M267.89 266.74h20.2v20.81h-20.2zm24.57 0h20.2v20.81h-20.2zm24.55 0h20.2v20.81h-20.2zm23.82 0h20.2v20.81h-20.2zm-72.94 26.27h20.2v20.81h-20.2zm24.57 0h20.2v20.81h-20.2zm24.55 0h20.2v20.81h-20.2zm23.82 0h20.2v20.81h-20.2zm0 26.28h20.2v47.07h-20.2zm-72.94 0h20.2v20.81h-20.2zm24.57 0h20.2v20.81h-20.2zm24.55 0h20.2v20.81h-20.2zm-49.12 26.26h20.2v20.81h-20.2zm24.57 0h20.2v20.81h-20.2zm24.55 0h20.2v20.81h-20.2z"/>
  </g>
</svg>
