<svg id="_0014_book_lover" xmlns="http://www.w3.org/2000/svg" xmlns:xlink="http://www.w3.org/1999/xlink" viewBox="0 0 500 500" data-imageid="book-lover-25" class="illustrations_image" style="width:166px">
  <defs>
    <linearGradient id="linear-gradient-book-lover-25" x1="-168.72" y1="1341.28" x2="-167.53" y2="1449.21" gradientTransform="matrix(1 0 0 -1 407.58 1612.89)" gradientUnits="userSpaceOnUse">
      <stop offset="0" stop-color="#fff" stop-opacity="0"/>
      <stop offset=".99" stop-color="#fff"/>
    </linearGradient>
    <linearGradient id="linear-gradient-2-book-lover-25" x1="-127.9" y1="1429.23" x2="-183.96" y2="1294.36" gradientTransform="matrix(1 0 0 -1 407.58 1612.89)" gradientUnits="userSpaceOnUse">
      <stop offset=".17" stop-color="#00272e"/>
      <stop offset="1" stop-color="#68e1fd" stop-opacity="0"/>
    </linearGradient>
    <linearGradient id="linear-gradient-3-book-lover-25" x1="-28.73" y1="1342.78" x2="-122.81" y2="1350.54" gradientTransform="matrix(1 0 0 -1 407.58 1612.89)" gradientUnits="userSpaceOnUse">
      <stop offset="0" stop-color="#68e1fd"/>
      <stop offset="1" stop-color="#fff"/>
    </linearGradient>
    <linearGradient id="linear-gradient-4-book-lover-25" x1="-118.08" y1="1346.67" x2="-368.14" y2="1346.67" xlink:href="#linear-gradient-book-lover-25"/>
    <linearGradient id="linear-gradient-5-book-lover-25" x1="-36.58" y1="1310.05" x2="-34.82" y2="1310.05" gradientTransform="matrix(1 0 0 -1 407.58 1612.89)" gradientUnits="userSpaceOnUse">
      <stop offset="0" stop-color="#68e1fd"/>
      <stop offset="1" stop-color="#68e1fd"/>
    </linearGradient>
    <linearGradient id="linear-gradient-6-book-lover-25" x1="-210.54" y1="-569.72" x2="-208.27" y2="-490.64" gradientTransform="translate(409 942.5)" gradientUnits="userSpaceOnUse">
      <stop offset="0" stop-color="#231f20" stop-opacity="0"/>
      <stop offset="1" stop-color="#231f20"/>
    </linearGradient>
    <linearGradient id="linear-gradient-7-book-lover-25" x1="-206.61" y1="1311.52" x2="-210.19" y2="1266.8" xlink:href="#linear-gradient-book-lover-25"/>
    <linearGradient id="linear-gradient-8-book-lover-25" x1="-62.89" y1="-585.94" x2="-197.73" y2="-591.06" xlink:href="#linear-gradient-6-book-lover-25"/>
    <linearGradient id="linear-gradient-9-book-lover-25" x1="-37.22" y1="1354.66" x2="-14.08" y2="1598.54" gradientTransform="matrix(1 0 0 -1 409 1782.94)" xlink:href="#linear-gradient-book-lover-25"/>
    <linearGradient id="linear-gradient-10-book-lover-25" x1="-294.24" y1="1189.69" x2="-271.09" y2="1330.94" xlink:href="#linear-gradient-book-lover-25"/>
    <linearGradient id="linear-gradient-11-book-lover-25" x1="-275.23" y1="1319.55" x2="-271.05" y2="1740.19" gradientTransform="matrix(1 0 0 -1 409 1782.94)" xlink:href="#linear-gradient-book-lover-25"/>
    <linearGradient id="linear-gradient-12-book-lover-25" x1="-183.81" y1="1450.94" x2="-178.34" y2="1450.94" gradientTransform="matrix(1 0 0 -1 407.58 1612.89)" xlink:href="#linear-gradient-6-book-lover-25"/>
    <linearGradient id="linear-gradient-13-book-lover-25" x1="-186.7" y1="1475.3" x2="-154.21" y2="1396.73" gradientTransform="matrix(1 0 0 -1 409 1612.94)" xlink:href="#linear-gradient-book-lover-25"/>
    <style>
      .cls-17_book-lover-25,.cls-18_book-lover-25,.cls-19_book-lover-25,.cls-20_book-lover-25,.cls-21_book-lover-25{stroke-width:0}.cls-17_book-lover-25{isolation:isolate}.cls-21_book-lover-25{fill:#68e1fd}.cls-17_book-lover-25{opacity:.24;fill:#fff}.cls-19_book-lover-25{fill:#fff}.cls-18_book-lover-25{fill:#231f20}.cls-20_book-lover-25{fill:#ffaa71}
    </style>
  </defs>
  <path id="shadow_1_book-lover-25" d="M82.02 400.13s-50.57 3.39-57.85 8.24c-7.27 4.85 49.69 5.91 140.59 3.18s160.89 0 210.45 5 116.78 4.03 117.71-8.21-122.71-12.39-122.71-12.39z" style="fill:#000405;opacity:.05;stroke-width:0;isolation:isolate"/>
  <g id="background_book-lover-25">
    <path class="targetColor" d="M199.4 71.27c-14.31 13.26-24.92 30.31-40.13 42.51-25.72 20.66-60.62 24.77-90.86 37.93-20 8.7-38.97 22.49-47.82 42.43-7.15 16.17-6.24 35.22 1.19 51.19a50.6 50.6 0 0 1-3.08 48.22C7.69 311 1.05 330.93 2.12 351.39c1.66 31.48 25.56 62.54 56.96 65.44 10.78 1 21.61-1.19 32.28-3.15 64.44-11.79 132.64-14.82 193.94 8.26 16.8 6.33 32.97 14.58 50.44 18.74 20.4 4.86 41.67 3.94 62.64 2.99 32.72-1.48 70.9-6.06 87.61-34.24 23.16-39.07-13.73-87.84-8.49-132.94 2.9-24.92 18.62-46.84 21.93-71.69 3.6-27.01-9.21-55.56-31.77-70.84-31.33-21.21-74.66-16.06-107.01-35.7-25.59-15.54-43.19-45.9-73.36-54.17-29.6-8.1-66.31 7.22-87.85 27.16Z" style="stroke-width:0;isolation:isolate;opacity:.18;fill:#ff5516"/>
    <path class="targetColor" d="M63.23 342.58c-3.17-21.74-10.72-42.66-13.77-64.42-3.06-21.76-.93-45.68 13.01-62.64 9.09-11.07 22.16-17.97 34.94-24.44 11.36-5.76 23.06-11.5 35.7-13.06 11.14-1.35 22.38.57 33.52 1.91 20.96 2.51 42.31 2.84 63.11-.73 27.16-4.71 52.85-15.49 79.4-22.79 26.01-7.18 51.75-10.84 80.83 2.69 20.1 9.36 34.93 28.91 39.74 50.52 7.77 34.91-9.78 73.6 4.98 106.17 4.16 9.17 10.63 17.08 15.91 25.66a111.8 111.8 0 0 1 13.86 34.28c.92 4.17 1.6 8.57.42 12.67-3.03 10.51-16.02 14-26.94 14.87-36.32 2.87-72.62-3.91-108.85-7.85-58.81-6.39-118.16-5.26-177.08-.86-14.42 1.08-28.83 2.33-43.23 3.77-11.62 1.14-33.68 8.08-44.63 4.78-12.21-3.7-4.2-11.71-1.61-23.2 2.77-12.2 2.49-25.04.69-37.32Z" style="stroke-width:0;isolation:isolate;opacity:.11;fill:#ff5516"/>
  </g>
  <g id="book_2_book-lover-25">
    <path class="cls-21_book-lover-25 targetColor" d="M439.8 291.39s-1.88 15.64-13.96 17.18h-53.08l-7.55-86.83h55.9c4.51 0 13.76 4.86 15.61 11.75.25 1.27.41 2.56.49 3.86 1.24 13.36 2.59 54.05 2.59 54.05Z" style="fill:#ff5516"/>
    <path class="cls-21_book-lover-25 targetColor" d="m98.45 229.82-5-2.18a3.09 3.09 0 0 1-1.6-4.06c.49-1.13 1.6-1.86 2.83-1.85H365.2a22.24 22.24 0 0 1 17.47 8.22c1.76 2.13 2.92 4.69 3.37 7.41 1.22 8.13.47 43.54.13 56.83-.18 7.22-5.5 13.47-12.67 14.33l-.77.07h-262l-12.27-78.78Z" style="fill:#ff5516"/>
    <path class="cls-21_book-lover-25 targetColor" d="m98.45 229.82-5-2.18a3.09 3.09 0 0 1-1.6-4.06c.49-1.13 1.6-1.86 2.83-1.85H365.2a22.24 22.24 0 0 1 17.47 8.22c1.76 2.13 2.92 4.69 3.37 7.41 1.22 8.13.47 43.54.13 56.83-.18 7.22-5.5 13.47-12.67 14.33l-.77.07h-262l-12.27-78.78Z" style="fill:#ff5516"/>
    <path d="M386.2 294.16c-.18 7.22-5.5 13.47-12.67 14.33l-.77.07H110.75l-12.29-78.74-5-2.18a3.09 3.09 0 0 1-1.6-4.06c.49-1.13 1.6-1.86 2.83-1.85h270.52a22.24 22.24 0 0 1 17.47 8.22c1.76 2.13 2.92 4.69 3.37 7.41 1.22 8.1.49 43.5.15 56.8" style="stroke-width:0;fill:url(#linear-gradient)"/>
    <path d="M84.89 308.63h288.82c2.08 0 3.77-1.68 3.77-3.77 0-2.08-1.69-3.77-3.77-3.77H84.89c-2.08 0-3.77 1.69-3.77 3.77s1.69 3.77 3.77 3.77" style="stroke-width:0;isolation:isolate;fill:url(#linear-gradient-2-book-lover-25);opacity:.61"/>
    <path class="cls-21_book-lover-25 targetColor" d="M84.89 308.63h288.82c2.08 0 3.77-1.68 3.77-3.77 0-2.08-1.69-3.77-3.77-3.77H84.89c-2.08 0-3.77 1.69-3.77 3.77s1.69 3.77 3.77 3.77" style="fill:#ff5516"/>
    <path class="cls-21_book-lover-25 targetColor" d="M298.53 299.29h69.04a21 21 0 0 1-9.43 2.21H101.43c-4.24.04-8.39-1.23-11.88-3.64a18 18 0 0 1-3.52-3.18c-.94-1.1-1.74-2.31-2.38-3.6-.14-.28-.28-.57-.4-.86-.5-1.15-.86-2.36-1.08-3.6-.05-.28-.09-.57-.13-.86-.08-.67-.12-1.35-.12-2.02V247.6c0-.38 0-.77.04-1.15s.05-.57.08-.86c.15-1.23.44-2.44.87-3.6.11-.29.22-.57.34-.86.55-1.28 1.25-2.49 2.1-3.6l.67-.86c.5-.58 1.03-1.13 1.6-1.64 3.8-3.39 8.72-5.23 13.81-5.19h256.7c4.03 0 7.98 1.16 11.36 3.37h-70.97c-1.08 0-2.16.13-3.21.39a12.4 12.4 0 0 0-5.73 3.13c-.28.27-.55.56-.8.86-.9 1.06-1.59 2.28-2.02 3.6-.1.28-.17.57-.24.86-.18.76-.27 1.54-.27 2.32v43.83c0 .68.07 1.36.21 2.02.06.29.13.57.22.86.38 1.31 1.02 2.54 1.87 3.6.23.3.48.58.75.86 1.16 1.2 2.55 2.14 4.09 2.78 1.62.68 3.37 1.01 5.13 1Z" style="fill:#ff5516"/>
    <path d="M377.65 247.85v36.57c0 .21 0 .41-.04.62-.04.2 0 .41-.05.61-.04.18-.06.37-.07.56 0 .18-.05.29-.07.43 0 .07-.02.15-.04.22-.03.2-.07.4-.12.59s-.06.26-.1.38-.06.25-.1.38-.07.27-.11.4l-.14.41a.9.9 0 0 1-.11.33c-.04.11-.11.29-.17.43l-.18.44c-.03.08-.07.16-.11.24q-.06.165-.15.33c-.04.09-.09.19-.14.28s-.14.29-.22.42-.23.44-.36.67l-.21.34c-.19.31-.38.61-.59.9-.11.15-.22.3-.32.44-.22.29-.44.57-.67.84s-.51.58-.79.86c-.55.56-1.14 1.09-1.76 1.58-.01.02-.03.03-.05.04-.2.16-.4.31-.61.46l-.67.46-.67.43c-.22.13-.43.26-.67.38l-.77.41h-69.03c-1.76 0-3.5-.34-5.13-1.02-1.54-.63-2.93-1.57-4.09-2.76-.26-.27-.51-.56-.75-.86-.85-1.06-1.49-2.28-1.87-3.58a9.8 9.8 0 0 1-.43-2.87v-43.66q0-1.17.27-2.31c.06-.29.14-.58.24-.86.43-1.31 1.12-2.53 2.02-3.58.25-.3.52-.59.8-.86 1.6-1.52 3.58-2.6 5.73-3.11 1.05-.26 2.13-.38 3.21-.38h70.97c.31.2.62.41.92.63l.34.26c.47.35.92.72 1.35 1.12l.37.35.27.27.36.38.36.4.07.09.05.07c.22.26.43.53.63.79.11.13.21.28.31.41 0 .02.02.04.04.05.18.26.36.52.53.79l.29.47c.18.3.34.61.5.91.07.16.15.31.23.46s.15.32.21.48.13.28.18.43.11.28.16.42l.15.42c.2.58.37 1.18.49 1.78.02.08.04.16.05.24.01.14.04.29.08.42 0 .14.07.48.11.71s.07.57.08.86v.46c0 .18.02.46.02.69Z" style="stroke-width:0;fill:url(#linear-gradient-3-book-lover-25)"/>
    <path class="cls-21_book-lover-25 targetColor" d="M293.4 298.26q-2.28.555-4.71 1.02H105.66c-5.4.04-10.8-.44-16.11-1.43a18 18 0 0 1-3.52-3.18c-.94-1.1-1.74-2.31-2.38-3.6-.14-.28-.28-.57-.4-.86-.5-1.15-.86-2.36-1.08-3.6-.05-.28-.09-.57-.13-.86-.08-.67-.12-1.35-.12-2.02v-36.14c0-.38 0-.77.04-1.15s.05-.57.08-.86c.15-1.23.44-2.44.87-3.6.11-.29.22-.57.34-.86.55-1.28 1.25-2.49 2.1-3.6l.67-.86c.5-.58 1.03-1.13 1.6-1.64a82.3 82.3 0 0 1 18.05-1.85h188.14l1.51.39a12.4 12.4 0 0 0-5.73 3.13c-.28.27-.55.56-.8.86-.9 1.06-1.59 2.28-2.02 3.6-.1.28-.17.57-.24.86-.18.76-.27 1.54-.27 2.32v43.83c0 .68.07 1.36.21 2.02.06.29.13.57.22.86.38 1.31 1.02 2.54 1.87 3.6a12 12 0 0 0 4.84 3.64Z" style="fill:#ff5516"/>
    <path d="M293.4 298.26q-2.28.555-4.71 1.02H105.66c-5.4.04-10.8-.44-16.11-1.43a18 18 0 0 1-3.52-3.18c-.94-1.1-1.74-2.31-2.38-3.6-.14-.28-.28-.57-.4-.86-.5-1.15-.86-2.36-1.08-3.6-.05-.28-.09-.57-.13-.86-.08-.67-.12-1.35-.12-2.02v-36.14c0-.38 0-.77.04-1.15s.05-.57.08-.86c.15-1.23.44-2.44.87-3.6.11-.29.22-.57.34-.86.55-1.28 1.25-2.49 2.1-3.6l.67-.86c.5-.58 1.03-1.13 1.6-1.64a82.3 82.3 0 0 1 18.05-1.85h188.14l1.51.39a12.4 12.4 0 0 0-5.73 3.13c-.28.27-.55.56-.8.86-.9 1.06-1.59 2.28-2.02 3.6-.1.28-.17.57-.24.86-.18.76-.27 1.54-.27 2.32v43.83c0 .68.07 1.36.21 2.02.06.29.13.57.22.86.38 1.31 1.02 2.54 1.87 3.6a12 12 0 0 0 4.84 3.64Z" style="stroke-width:0;fill:url(#linear-gradient-4-book-lover-25)"/>
    <path d="M372.76 301.97c-.54.63-1.13 1.21-1.76 1.75.62-.54 1.21-1.13 1.76-1.75" style="stroke-width:0;fill:url(#linear-gradient-5-book-lover-25)"/>
    <path class="cls-21_book-lover-25 targetColor" d="M377.65 247.85v36.97c0 .26-.02.52-.07.78-.12 1.11-.36 2.2-.71 3.26-.08.26-.17.52-.27.77-1.7 4.23-4.91 7.67-9.01 9.66h-80.66c-6.22 0-11.36-4.2-12.12-9.65-.05-.26-.07-.52-.08-.78-.02-.22-.04-.45-.03-.67v-43.62c0-6.14 5.48-11.1 12.26-11.1h82.54c4.96 3.21 8.16 8.48 8.16 14.38Z" style="fill:#ff5516"/>
    <path class="cls-19_book-lover-25" d="M374.21 237.51h-85.42c.25-.3.52-.59.8-.86h83.91c.26.27.49.56.71.86m2.45 4.44h-90.12c.06-.29.14-.58.24-.86h89.58c.09.31.2.6.3.86m.96 4.48h-91.35v-.86h91.28c0 .28.05.57.07.86m-91.35 3.6h91.39v.86h-91.39zm0 4.46h91.39v.86h-91.39zm0 4.46h91.39v.86h-91.39zm0 4.46h91.39v.86h-91.39zm0 4.46h91.39v.86h-91.39zm0 4.46h91.39v.86h-91.39zm0 4.46h91.39v.86h-91.39zm0 4.46h91.39v.86h-91.39z"/>
    <path class="cls-19_book-lover-25" d="M377.67 285.73v.86h-91.4v-.86zm-1.34 4.44c0 .29-.37.57-.4.86h-89.24c-.09-.28-.16-.57-.22-.86h89.85Zm-84.26-52.66H85.34l.67-.86h204.42c.57.28 1.11.58 1.64.86m-1.86 4.44H82.89c.11-.29.22-.57.34-.86h206.16c.29.27.56.56.82.86m2.29 4.48H81.95c0-.29.03-.57.08-.86h210.26c.09.28.16.57.22.86Zm-210.6 3.6h210.7v.86H81.9zm0 4.46h210.7v.86H81.9zm0 4.46h210.7v.86H81.9zm0 4.46h210.7v.86H81.9zm0 4.47h210.7v.85H81.9zm0 4.45h210.7v.85H81.9zm0 4.46h210.7v.86H81.9zm0 4.46h210.7v.86H81.9z"/>
    <path class="cls-19_book-lover-25" d="M292.29 285.73c-.09.29-.19.58-.32.86H82.14c-.05-.28-.09-.57-.13-.86zm-2.86 4.44c-.3.3-.62.59-.95.86H83.63c-.14-.28-.28-.57-.4-.86h206.19Zm84.12 4.46c-.23.3-.48.54-.74.86H86.79c-.27-.28-.53-.57-.78-.86h287.53Z"/>
  </g>
  <g id="book_1_book-lover-25">
    <path class="cls-21_book-lover-25 targetColor" d="M432.97 333.34v47.11c0 12.8-10.37 23.18-23.17 23.18H105.08c-12.78.02-23.16-10.33-23.18-23.11v-47.19c0-4.28 1.18-8.48 3.44-12.12.49-.81 1.04-1.58 1.63-2.32a23.1 23.1 0 0 1 18.11-8.72H409.8c12.8 0 23.17 10.38 23.18 23.18Z" style="fill:#ff5516"/>
    <path d="M314.31 403.64H105.08a23.19 23.19 0 0 1-21.09-13.51H301s3.13 11.45 13.31 13.51" style="stroke-width:0;fill:url(#linear-gradient-6-book-lover-25)"/>
    <path d="M314.31 310.15c-9.62 1.59-12.31 11.04-12.31 11.04H85.34l1.63-2.32a23.1 23.1 0 0 1 18.11-8.72z" style="stroke-width:0;fill:url(#linear-gradient-7-book-lover-25)"/>
    <path d="M432.97 333.34v47.11c0 8.45-4.59 16.23-11.98 20.3h-95.7c-8.04 0-14.55-6.51-14.56-14.54v-57.17c0-8.04 6.51-14.55 14.54-14.56h98.02a23.14 23.14 0 0 1 9.68 18.85Z" style="stroke-width:0;fill:url(#linear-gradient-8-book-lover-25)"/>
    <path class="cls-21_book-lover-25 targetColor" d="M432.97 333.34v47.11c0 .87-.05 1.74-.14 2.6-.04.38-.09.75-.15 1.12-.25 1.61-.68 3.2-1.28 4.71-.14.38-.3.75-.47 1.12-.75 1.68-1.7 3.26-2.83 4.71-.3.38-.61.75-.94 1.12a23.1 23.1 0 0 1-6.17 4.95h-81.95a14.52 14.52 0 0 1-11.82-6.07 14.3 14.3 0 0 1-2.48-5.83c-.17-.88-.25-1.77-.25-2.66v-57.18c0-1.02.11-2.04.32-3.03.07-.38.16-.75.28-1.12.5-1.71 1.31-3.31 2.4-4.71.3-.39.61-.76.95-1.12 2.74-2.94 6.58-4.6 10.6-4.59h84.25a23.4 23.4 0 0 1 5.6 5.71c1.02 1.47 1.85 3.05 2.49 4.71.15.37.29.75.4 1.12.52 1.53.87 3.11 1.04 4.71.05.37.08.75.1 1.12s.05 1.02.05 1.49Z" style="fill:#ff5516"/>
    <path d="M432.97 333.34v47.11c0 .87-.05 1.74-.14 2.6-.04.38-.09.75-.15 1.12-.25 1.61-.68 3.2-1.28 4.71-.14.38-.3.75-.47 1.12-.75 1.68-1.7 3.26-2.83 4.71-.3.38-.61.75-.94 1.12a23.1 23.1 0 0 1-6.17 4.95h-81.95a14.52 14.52 0 0 1-11.82-6.07 14.3 14.3 0 0 1-2.48-5.83c-.17-.88-.25-1.77-.25-2.66v-57.18c0-1.02.11-2.04.32-3.03.07-.38.16-.75.28-1.12.5-1.71 1.31-3.31 2.4-4.71.3-.39.61-.76.95-1.12 2.74-2.94 6.58-4.6 10.6-4.59h84.25a23.4 23.4 0 0 1 5.6 5.71c1.02 1.47 1.85 3.05 2.49 4.71.15.37.29.75.4 1.12.52 1.53.87 3.11 1.04 4.71.05.37.08.75.1 1.12s.05 1.02.05 1.49Z" style="stroke-width:0;fill:url(#linear-gradient-9-book-lover-25)"/>
    <path class="cls-19_book-lover-25" d="M428.89 320.2h-101.4c.3-.39.61-.76.95-1.12h99.63c.28.36.57.73.83 1.12Zm2.9 5.81H324.82c.07-.38.16-.75.28-1.12h106.29c.15.37.29.75.4 1.12m1.14 5.82H324.49v-1.12h108.34c.05.37.08.75.1 1.12m-108.44 4.7h108.49v1.12H324.49zm0 5.81h108.49v1.12H324.49zm0 5.82h108.49v1.12H324.49zm0 5.82h108.49v1.11H324.49zm0 5.81h108.49v1.11H324.49zm0 5.82h108.49v1.11H324.49zm0 5.81h108.49v1.11H324.49zm0 5.82h108.49v1.12H324.49zm108.34 5.82c-.04.38-.09.75-.15 1.12H324.49v-1.12zm-1.4 5.81c-.14.38-.3.75-.47 1.12H325.01c-.1-.36-.18-.74-.25-1.12zm-3.33 5.82c-.3.38-.61.75-.94 1.12h-99.05c-.32-.36-.61-.73-.89-1.12z"/>
    <path d="M148.67 403.64h-34.56c-11.08-2.79-16.45-14.77-16.45-14.77s-1-58.6 0-66.01 17.79-12.73 17.79-12.73h33.22c-11.08 1.59-19.13 12.39-19.13 12.39s-.67 64.76 0 69.12 19.13 12 19.13 12" style="stroke-width:0;fill:url(#linear-gradient-10-book-lover-25)"/>
    <path class="cls-21_book-lover-25 targetColor" d="M148.67 403.64h-11.08c-11.07-2.79-16.43-14.77-16.43-14.77s-1.01-58.6 0-66.01 17.78-12.73 17.78-12.73h9.73c-11.08 1.59-19.13 12.39-19.13 12.39s-.67 64.76 0 69.12 19.13 12 19.13 12" style="fill:#ff5516"/>
    <path d="M148.67 403.64h-11.08c-11.07-2.79-16.43-14.77-16.43-14.77s-1.01-58.6 0-66.01 17.78-12.73 17.78-12.73h9.73c-11.08 1.59-19.13 12.39-19.13 12.39s-.67 64.76 0 69.12 19.13 12 19.13 12" style="stroke-width:0;fill:url(#linear-gradient-11-book-lover-25)"/>
  </g>
  <path class="cls-18_book-lover-25" d="M299.95 221.74c-3.04 3.65-6.96 7.32-8.52 8.14-8.85 4.66-19.1 8.23-24.3 16.78-6.57 10.78-2.32 24.87-5.34 37.15-.55 2.24-1.41 4.52-3.14 6.06s-4.51 2.07-6.35.67c-1.62-1.22-2.02-3.43-2.32-5.43a213 213 0 0 1-.3-56.95c-10.1 4.51-16.94 14.04-22.33 23.67-5.4 9.63-9.92 19.96-17.44 28.05-2.14 2.29-4.94 4.53-8.04 4.09-3.72-4.71-1.77-11.61.34-17.25 4.24-11.37 8.49-22.75 13.97-33.53 1.76-3.5 3.72-7.02 6.69-9.59.81-.7 1.69-1.33 2.61-1.87h74.47Z" id="shadow_2_book-lover-25"/>
  <g id="character_book-lover-25">
    <path class="cls-21_book-lover-25 targetColor" d="M260.63 134.3s-5.57 22.64-13.9 28.96c-8.59 6.52-17.51-6.01-17.51-6.01l-4.96 8.97s9.18 14.82 18.44 15.16c9.25.34 17.38-7.94 17.38-7.94l.56-39.15Z" style="fill:#ff5516"/>
    <path class="cls-18_book-lover-25" d="m213.06 118.75 1.26-.56 25.67 6.52 7.72 52h-.97z"/>
    <path class="cls-20_book-lover-25" d="m196.81 264.04-3.22 5.59 7.47 3.25 3.09-5.32zm50.26 15.01-.35 6.23 8.15-.47.35-5.76z"/>
    <path class="cls-18_book-lover-25" d="M195.05 268.39c-.16-.34-.39-.65-.67-.9-.33-.22-.71-.36-1.1-.4l-12.94-2.6c-.47-.12-.95-.17-1.43-.15-1.24.08-2.26.99-3.07 1.93-.47.44-.77 1.03-.85 1.67.1.81.53 1.54 1.19 2.02.91.84 1.86 1.63 2.86 2.37 1.92 1.34 3.91 2.57 5.97 3.68 1.39.78 2.78 1.56 4.2 2.28 2.34 1.17 4.76 2.16 7.2 3.11.33.21.78.11.98-.23 1.76-1.84 3.15-4 4.1-6.37.24-.59.67-1.87 0-2.36-.24-.17-.9-.14-1.2-.21a8.44 8.44 0 0 1-5.24-3.83Zm52.5 14.06c-.31-.21-.66-.36-1.03-.44-.4-.02-.79.05-1.16.2l-12.49 4.26c-.47.13-.93.33-1.35.58-1.03.67-1.45 2.02-1.69 3.21-.18.62-.14 1.28.11 1.87.49.64 1.22 1.06 2.02 1.14 1.21.28 2.43.48 3.66.61 2.33.2 4.67.26 7.01.18 1.6 0 3.19-.04 4.78-.14 2.61-.16 5.21-.53 7.79-.93.39.02.72-.28.74-.67.6-2.48.71-5.05.34-7.57-.09-.63-.38-1.95-1.2-2.02-.29-.03-.85.33-1.14.42a8.4 8.4 0 0 1-6.41-.7Zm50.56-84.02s-2.11 19.8-20.36 23.3c-12.35 2.36-27.46 1.52-35.92.73-4.08-.38-8.02 1.57-10.21 5.03l-26.27 41.84-7.61-3.68h-.06l-2.69-1.29 21.87-51.06c2.6-6.42 7.95-11.34 14.56-13.39l25.13-7.78 5.87-1.82s23.53-2.37 35.69 8.11Z"/>
    <path class="cls-17_book-lover-25" d="m256.59 192.1 1.65 3.5s-28.96 8.49-32.52 12.62c-4.75 5.52-27.96 57.42-27.96 57.42h-.06l-2.69-1.29 21.84-51.03c2.6-6.42 7.95-11.34 14.56-13.39l25.18-7.82Z"/>
    <path class="cls-18_book-lover-25" d="M266.86 195s-23.26 22.7-24.02 34.82c-.75 12.12 2.5 50.14 2.5 50.14h11.29s-.56-46.15 4.04-46.48c4.6-.32 25.45-13.77 28.8-17.61s8.69-17.46 8.69-17.46l-31.3-3.42Z"/>
    <path class="cls-21_book-lover-25 targetColor" d="M298.11 198.43s-18.62 9.52-38.02-1.62a44 44 0 0 1-4.86-3.24s8.16-14.58 1.66-35.77c-2.78-9.06-2.84-26.36 10.93-28.82h.07c13.7-2.43 12.93.95 12.93.95l6.2 6.02c11.92 9.67 13.22 24.48 11.09 62.47Z" style="fill:#ff5516"/>
    <path class="cls-17_book-lover-25" d="M267.9 128.98a7.8 7.8 0 0 1-2.58 3.12s-8.19 3.63-6.55 15.64 4.63 35.11 4.63 35.11l-3.31 13.98a44 44 0 0 1-4.86-3.24s8.16-14.58 1.66-35.77c-2.78-9.06-2.84-26.36 10.93-28.82h.07Z"/>
    <path class="cls-18_book-lover-25" d="M280.22 128.21a8.565 8.565 0 0 1-12.07 1.07s-.3-.26-.3-.26-10.1 10.1.11 11.32c5.39.67 12.02-5.85 13.94-9.53l-1.68-2.61Z"/>
    <path class="cls-20_book-lover-25" d="M283.25 118.75c-.04.13-1.94 5.95-3.37 10.1a13.45 13.45 0 0 1-6.29 7.6c-1.75 1.06-3.7 1.74-5.73 2.02-1.45.13-2.74-.94-2.87-2.39-.05-.55.07-1.11.36-1.58.47-.83.98-1.78 1.45-2.8.98-2.11 1.81-4.47 1.67-6.32v-.2c-.12-.97.51-1.83 1.58-2.57 1.5-1.04 3.87-1.87 6.18-2.49 2.31-.59 4.66-1.04 7.02-1.37"/>
    <path class="cls-20_book-lover-25" d="M268.28 131.62c-.46.09-.94.13-1.41.1.98-2.11 1.81-4.47 1.67-6.32l1.56-2.78 1.17-2.06 5.01-.42 5.07-.42c-3.34 7.9-8.95 11.17-13.07 11.91Z"/>
    <path class="cls-20_book-lover-25" d="M277.69 92.17c-7.34-1.54-14.54 3.17-16.08 10.51-.07.34-.13.67-.18 1.04a45.9 45.9 0 0 0-.13 16.49c2.31 8.45 14.72 5.39 17.24 2.82s12.64-14.39 10.99-18.99c-1.06-3.13-4.76-10.27-11.85-11.87Z"/>
    <path class="cls-18_book-lover-25" d="m267.68 83.92 1.91 1.76a8.66 8.66 0 0 0-7.75 1.46 11.3 11.3 0 0 0-5.26 6.74l4.25-.76s-1.55 4.57 5.5 6.86c7.05 2.28 14.5 4.63 14.5 4.63l-1.51-4.04s3.95 2.98 4.28 4.84a56.6 56.6 0 0 1-.67 8.42s3.02-4.11 3.48-2.91-2.17 4.95-3.37 5.62-1.76 3.44-1.91 3.64 5.39-2.32 5.93-3.56 8.59-13.03 6.38-16.56l1.81.34a8.7 8.7 0 0 0-3.14-2.3s-7.52-18.47-24.44-14.16Z"/>
    <path class="cls-20_book-lover-25" d="M265.02 183.38c-1.02-1.02-2.02-2.23-3.44-2.47-.5 1.19.52 2.4.95 3.61.13.27.13.59 0 .86-.2.32-.67.34-1.04.32-1.8-.13-3.56-.55-5.22-1.25-1.54-.67-3.01-1.54-4.67-1.71a.8.8 0 0 0-.53.07c-.4.26-.17.88.12 1.25.62.81 1.32 1.56 2.09 2.23-1.17-.52-2.43-.84-3.7-.95-.36 0-.84.07-.84.43.02.15.09.28.2.38.95 1.08 2.09 1.98 3.37 2.64-.93-.2-1.88-.28-2.83-.24-.41 0-.96.22-.9.62.03.13.09.26.19.35a8.56 8.56 0 0 0 4.41 2.82l-2.69.06c-.17 0-.34.03-.49.1-.48.31-.06 1.07.41 1.4 2.07 1.45 4.71 1.7 7.25 1.89 4.86.35 9.97.54 14.35-1.6.32-.16.67-.38.73-.73.01-.18-.01-.37-.08-.54-.53-1.77-.8-4.98-2.41-6.06-.78-.52-1.74-.82-2.55-1.35s-1.76-1.68-2.68-2.14Z"/>
    <path class="cls-21_book-lover-25 targetColor" d="M302.06 179.62c-1.52 14.96-28.63 16.79-28.63 16.79l-2.8-9.61-.49-1.69s14.52-1.83 17.3-6.38-8.65-19.79-1.74-28.29c6.9-8.5 8.47-5.89 8.47-5.89s9.4 20.11 7.89 35.07" style="fill:#ff5516"/>
    <path d="M229.24 157.26c0 .47-.05.94-.11 1.4-.23 2.09-.88 5.93-2.62 7.32-2.44 1.96-2.78-.9-2.73-2.02q.075-.93.3-1.83c.57-2.44 3.56-4.11 4.71-4.66l.44-.21Z" style="stroke-width:0;fill:url(#linear-gradient-12-book-lover-25)"/>
    <path class="cls-20_book-lover-25" d="M229.12 158.66c-.23 2.09-.88 5.93-2.62 7.32a624 624 0 0 1-2.73-2.02 613 613 0 0 0-3.8-2.82 13 13 0 0 1-2.45-2.14 12.3 12.3 0 0 1-1.56-2.69l-2.09-4.54c-.67-1.49-1.35-3.46-.15-4.61.3-.3 3.06-.84 3.25-1.23.51-1.12-2.69-3.48-2.49-4.71.21-.69.88-1.14 1.6-1.06.67.03 2.59 1.79 3.19 2.15 1.19.67.19 1.63 1.35 2.33 1.5.77 2.87 1.79 4.04 3 1.31 1.53 1.97 3.49 2.59 5.39.46 1.39 1.07 2.9 1.54 4.41.13.43.24.83.34 1.23Z"/>
    <path class="cls-21_book-lover-25 targetColor" style="fill:#ff5516" d="m219.22 147.93-4.5-21.31-1.66-7.87 26.11 6.99 7.57 50.97-24.26-7.39z"/>
    <path style="stroke-width:0;fill:url(#linear-gradient-13-book-lover-25)" d="m224.65 147.67-10.33-22.96 8.16 44.61 24.26 7.39-2.6-17.48z"/>
    <path class="cls-20_book-lover-25" d="M220.7 157.11c.82-.41 2.51-1.16 2.93-1.97.1-.2.25-.45.12-.63-.59-.81-3 .22-3.68 0 .47-.77 4.67-3.13 2.69-3.66-.42-.11-3.06 1.22-3.48 1.1.33-.27 3.04-2.2 3.5-2.69.33-.36.3-.92-.06-1.25a.88.88 0 0 0-.93-.16c-1.43.66-2.9 1.23-4.41 1.72.29-.48 4.2-2.69 4.36-3.26.09-.21.1-.45.04-.67a.96.96 0 0 0-.57-.51c-1.09-.42-2.32 0-3.41.44l-2.59 1.02c-.83.32-1.74.74-2.02 1.58-.12.42-.14.87-.06 1.3.32 2.73 1.29 5.34 2.84 7.6.77 1.12 3.19 3.82 4.59 4.08 1.24.24-1.02-3.41.14-4.05Z"/>
    <path class="cls-17_book-lover-25" d="M247.71 226.16s8.9-20.4 19.2-26.21l-3.51-1.42s-18.07 19.22-20.21 29.1c-2.14 9.89 2.15 52.31 2.15 52.31h2.96s-4.9-49.63-.59-53.79ZM288.19 182c-5.73 2.36-15.49 4.41-17.59 4.84l-.4.08-.09-1.77s14.52-1.83 17.3-6.38-8.65-19.79-1.74-28.29c0 0-.88 7.52 1.39 13.07 2.27 5.56 7.58 15.75 1.14 18.44Z"/>
  </g>
</svg>
