<svg version="1.1" id="Layer_1" xmlns="http://www.w3.org/2000/svg" x="0" y="0" viewBox="0 0 500 500" style="width:166px" xml:space="preserve" data-imageid="online-class-27" class="illustrations_image">
  <style>
    .st4_online-class-27{fill:#56403d}.st5_online-class-27{fill:#68e1fd}.st7_online-class-27{fill:#159e97}.st8_online-class-27{opacity:.4;fill:#fff;enable-background:new}.st9_online-class-27{fill:#ffe0de}.st10_online-class-27{fill:#e0902f}.st11_online-class-27{fill:#173743}.st12_online-class-27{fill:#e85858}.st13_online-class-27{opacity:.6;fill:#fff;enable-background:new}.st14_online-class-27{opacity:.42;fill:#173743;enable-background:new}.st16_online-class-27{opacity:.4;fill:#ffe0de;enable-background:new}
  </style>
  <g id="background_online-class-27">
    <path d="M244.1 419.2 21.3 287.5c-7.1-4-13.2-10.5-6.3-14.8l223.6-128.9c3.4-2.1 8.4-3.4 11.9-1.5l233.9 135.8c7.1 4.1 8.4 15.6 1.3 19.8L273.5 419c-9 5.3-20.2 5.3-29.4.2" style="fill:#dd6f31"/>
    <linearGradient id="SVGID_1_-online-class-27" gradientUnits="userSpaceOnUse" x1="119.095" y1="241.044" x2="153.245" y2="276.804" gradientTransform="matrix(1 0 0 -1 0 502)">
      <stop offset="0" style="stop-color:#dd6f31"/>
      <stop offset="1" style="stop-color:#56403d"/>
    </linearGradient>
    <path d="M134 277c5.5-3.4 31.5-20 36.9-23.5 9.2-6 21-14.6 21-14.6l-58.8-27.6-49.3 32.4c8.9 4.7 35.8 36.9 40.3 39.4 2.1-1.2 7.9-4.9 9.9-6.1" style="fill:url(#SVGID_1_)"/>
    <linearGradient id="SVGID_00000063625531398196965140000003692024703543066798_-online-class-27" gradientUnits="userSpaceOnUse" x1="253.956" y1="169.561" x2="284.606" y2="261.512" gradientTransform="matrix(1 0 0 -1 0 502)">
      <stop offset="0" style="stop-color:#dd6f31"/>
      <stop offset="1" style="stop-color:#56403d"/>
    </linearGradient>
    <path style="fill:url(#SVGID_00000063625531398196965140000003692024703543066798_)" d="M264.4 356.1c18.6-10 75.8-55.9 76.9-59.1l-62.8-40.4-91 48.1c19.5 10.2 50.1 34.8 76.9 51.4"/>
    <linearGradient id="SVGID_00000155130132197771586850000016304983497933981058_-online-class-27" gradientUnits="userSpaceOnUse" x1="50.027" y1="200.503" x2="73.227" y2="224.793" gradientTransform="matrix(1 0 0 -1 0 502)">
      <stop offset="0" style="stop-color:#dd6f31"/>
      <stop offset="1" style="stop-color:#56403d"/>
    </linearGradient>
    <path style="fill:url(#SVGID_00000155130132197771586850000016304983497933981058_)" d="M61.8 311.4c5.5-3.3 10.9-6.8 16.3-10.3 9.2-6 13.1-7.1 21.7-14.3L63 270.7l-37.7 19.2c9 4.7 32 19 36.5 21.5 2-1.2-2 1.2 0 0"/>
  </g>
  <g id="monitor_online-class-27">
    <path class="st4_online-class-27" d="m302.2 245.2-23.6 11.4c-2.7 1.3-3.8 4.5-2.5 7.2.5 1 1.2 1.8 2.2 2.3l55.9 32.6c2.5 1.5 5.7.7 7.3-1.8l13.6-21.1"/>
    <path class="st5_online-class-27 targetColor" d="M420.5 184.8 228.1 74c-3-1.7-6.8-.7-8.5 2.3-.6 1-.8 2-.8 3.1v117.8c0 1.7.9 3.3 2.4 4.2L426 319.6c1.1.6 2.5.3 3.2-.8q.3-.6.3-1.2V200.3c0-6.4-3.4-12.3-9-15.5" style="fill:#68e1fd"/>
    <path d="m231.5 84.4 182.3 104.9c4 2.3 6.4 6.5 6.4 11.1v84.5c0 2.6-2.1 4.6-4.6 4.6-.8 0-1.6-.2-2.3-.6l-186-106.8c-1.4-.8-2.3-2.4-2.3-4v-90c0-2.4 1.9-4.3 4.3-4.3.8.1 1.5.2 2.2.6" style="fill:#fff"/>
    <path class="st5_online-class-27 targetColor" d="M408.3 191.9c-.1 1.1-1 1.9-2.1 1.8s-1.9-1-1.8-2.1c.1-1 .9-1.8 2-1.8 1 0 1.9.9 1.9 2.1" style="fill:#68e1fd"/>
    <ellipse class="st5_online-class-27 targetColor" cx="400" cy="188.7" rx="2" ry="2.1" style="fill:#68e1fd"/>
    <path class="st7_online-class-27" d="m233.6 106.2 14.8 7.9 23.6 12.6 5.5 2.9c2.1 1.1 4-2.1 1.9-3.2l-14.8-7.9-23.6-12.6-5.5-2.9c-2.1-1.1-4 2.1-1.9 3.2m110.9 109.3-2.9-44.1c-1.3 1.1-5.3 26.1-7.4 43 3.5.3 6.9.7 10.3 1.1"/>
    <path class="st8_online-class-27" d="m344.5 215.5-2.9-44.1c-1.3 1.1-5.3 26.1-7.4 43 3.5.3 6.9.7 10.3 1.1"/>
    <path class="st9_online-class-27" d="m314.8 161.8-6.7-1.3-.1.3c-.4-.2-.8-.4-1.2-.5-1.3-.4-2.7.3-3.2 1.6-.2.5-.2 1.1 0 1.6-.4.4-.7 1-.7 1.7s.3 1.3.7 1.8c-.4.8-.3 1.7.3 2.4.8.7 1.8 1.1 2.8 1.3 1.8 3.4 6 8 7.3 7.3 1.7-.9 4.2-5.4 4.2-5.4z"/>
    <path class="st4_online-class-27" d="m313 164.1-30.4-44.4-1.2.5 32.8 53"/>
    <path class="st9_online-class-27" d="M320.7 171.4s-1.2-9.4-2.9-10.5-7.5-3.4-8.6-2.2-2.1 3.7-1 4.7 3-1.4 3-1.4l1.8 1.3s-2.3 2-2.1 6.7c.2 2.9 1.4 5.7 3.4 7.8z"/>
    <path class="st7_online-class-27" d="M341 196.7s-18.1-25.9-20.3-25.3-9.2 4.1-8.7 6.9 14.8 44 34.3 41.6"/>
    <path class="st8_online-class-27" d="M341 196.7s-18.1-25.9-20.3-25.3-9.2 4.1-8.7 6.9 14.8 44 34.3 41.6"/>
    <path class="st9_online-class-27" d="m411.8 170.9.8-1.3c-.5-.3-.8-1-.5-1.5.6-1.4 1.3-2.9 2-4.3v-.5c.7-3.3 1.5-6.6 1.1-9.9-.3-2.7-1.1-5.2-1.4-7.9-.1-1 1-1.3 1.7-1 .6.3 1.1.8 1.4 1.4.8 1.2 1.4 2.6 1.6 4 .1-.6.2-1.2.5-1.8.2-.7.4-1.5.5-2.2.3-1.2.6-2.3 1.1-3.3s1.6-1.5 2.2-.8c.9 1 .1 2.8-.1 3.9s-.4 2.2-.6 3.4c.5-1.1 1.4-3 2-4.3.5-1 1.8-4.3 3.2-3.8 1.6.5.8 2.7.4 3.7s-.8 2-1.1 3-.7 2.1-1.1 2.9c0 0 1.5-2.2 2.3-3.4.6-.9 1.2-2.3 2.6-1.9.9.3.8 1.6.4 2.4q-1.65 3.15-3.6 6c.8-.8 1.6-1.5 2.4-2.3.5-.4 1.2-.4 1.7.1.2.2.3.6.3.9 0 .2-.1.4-.2.6l-10.5 15c-1 2.4-2.5 4.6-4.3 6.5-1 1.1-2.6-.6-1.6-1.6l.1-.2c0-.1-.1-.1-.1-.2-.3-.1-.6-.3-.8-.6l-.2.1c-.1.1-.2.1-.4.2-.4.5-1.1.6-1.6.2-.4-.4-.5-1-.2-1.5"/>
    <path class="st4_online-class-27" d="M419.8 150.8c1.8 1.4 2.8 3.7 2.6 6 0 .5-.9.5-.8 0 .2-2.1-.7-4.1-2.3-5.4-.5-.4.1-.9.5-.6m1.1-1.2c.6-2.1 1.1-4.2 1.5-6.4.1-.5.9-.3.8.2-.4 2.2-.9 4.3-1.5 6.4-.1.2-.3.3-.5.2-.2 0-.3-.2-.3-.4m3.4 1.7c1.1-2.3 2-4.8 2.6-7.3.1-.2.3-.3.5-.3.2.1.3.3.3.5q-1.05 3.9-2.7 7.5c-.2.5-.9.1-.7-.4m1.2 3.2c1.7-2 3.2-4.2 4.3-6.5.2-.5.9-.1.7.4-1.2 2.4-2.7 4.6-4.4 6.7-.3.3-.9-.2-.6-.6"/>
    <path class="st7_online-class-27" d="M363 163.9c4.7.2 9.4 1.7 13.4 4.2 3.1 2 4.8 5.3 8.2 6.9 4.5 2.2 11 2.2 14.7-1.6 2-2.2 3.8-4.4 5.6-6.8 1.4-1.8 7-10.9 10-9.8 3.5 1.3 8.5 6.2 8.7 9S409 197.6 396 199.6s-23.3-5.2-23.3-5.2"/>
    <path class="st8_online-class-27" d="M363 163.9c4.7.2 9.4 1.7 13.4 4.2 3.1 2 4.8 5.3 8.2 6.9 4.5 2.2 11 2.2 14.7-1.6 2-2.2 3.8-4.4 5.6-6.8 1.4-1.8 7-10.9 10-9.8 3.5 1.3 8.5 6.2 8.7 9S409 197.6 396 199.6s-23.3-5.2-23.3-5.2"/>
    <path class="st7_online-class-27" d="M389.3 250c-2.8-10.1-7-19.1-11.6-28.4l-31.6-.3c-.7 4.3-1.9 8.5-2.7 12.9q-1.2 7.05-.9 14.1c8.9 5 20.7 11.9 29.2 16.7l23.5 13.5c-2-9.3-3.2-19.3-5.9-28.5"/>
    <path class="st7_online-class-27" d="M379.4 193.2c-.5-6.9-1.1-13.9-2-20.8-4-4.9-9.4-8.7-15.3-9.5s-14.7.8-18.7 5.6c-3.8 4.6-3.2 11.1-3 16.6.1 3.4.3 6.7.5 10 1.8 9 4.3 17.8 4.8 27 8.8 4.1 22.1 2 32-.7.6-9.3 1.3-18.7 1.7-28.2"/>
    <path class="st9_online-class-27" d="M366.1 158.8v8.3c-3.3 1-6.7 1-10 0v-7.5"/>
    <path class="st8_online-class-27" d="M379.4 193.2c-.5-6.9-1.1-13.9-2-20.8-4-4.9-9.4-8.7-15.3-9.5s-14.7.8-18.7 5.6c-3.8 4.6-3.2 11.1-3 16.6.1 3.4.3 6.7.5 10 1.8 9 4.3 17.8 4.8 27 8.8 4.1 22.1 2 32-.7.6-9.3 1.3-18.7 1.7-28.2"/>
    <path class="st7_online-class-27" d="M366.3 162.3c-.7 1.6-1.6 3-2.8 4.3-1.3 1.4-3 .9-5 1.1l1.3 10.2 8.8-12.4zm-7.8 5.3-4.2 9.4-.7-8.7 2.9-5.7c-.1-.1-1 4.8 2 5"/>
    <path class="st9_online-class-27" d="M348.7 139.7c-.6.1-4.3 24.9 6 25.1s12.3-7.9 12.6-10-3-8.4-4-10.7-12.1-5.1-14.6-4.4"/>
    <path class="st10_online-class-27" d="M347.4 137.2c3.1-5.6 15.1-6.9 23.5.8 2.1 1.9 3.2 5.1 3.4 8.4-.4 6.3-4.2 11.9-9.9 14.6v-.1s.1-.3.1-.5 0-.2.1-.3c.9-4.3.7-9.8-1.4-13.7s-6.2-5-10.2-5.6c-1.3-.3-2.7-.5-4-.4l-1.3 6.4s-3.4-4-.3-9.6"/>
    <circle class="st10_online-class-27" cx="378.2" cy="140.2" r="7.9"/>
    <path class="st10_online-class-27" d="M347.5 144.8h9.7l.9-2.9.8 3.6 2.8.2s.1 15 2.3 15.3 5.1-6.1 5.5-9.9-1.8-11.9-8.8-14c-8.8-2.8-12.8.8-13.2 7.7"/>
    <path class="st7_online-class-27" d="M341.8 181.8c.1-.8-1.2-.8-1.3 0-1.3 14.5 5 28.2 5.5 42.6 0 .8 1.3.8 1.3 0-.5-14.4-6.9-28.1-5.5-42.6m40.2 15.7c-2.9-.5-5.6-1.9-7.7-3.9-.6-.6-1.5.4-.9.9 2.3 2.1 5.2 3.6 8.3 4.2.7.2 1.1-1.1.3-1.2m-148.4-75.9 14.8 7.9 23.6 12.6 5.5 2.9c2.1 1.1 4-2.1 1.9-3.2l-14.8-7.9-23.6-12.6-5.5-2.9c-2.1-1.2-4 2.1-1.9 3.2m0 14.9 14.8 7.9L272 157l5.5 2.9c2.1 1.1 4-2.1 1.9-3.2l-14.8-7.9-23.6-12.6-5.5-2.9c-2.1-1.2-4 2-1.9 3.2"/>
    <ellipse transform="rotate(-18.612 244.355 167.265)" class="st5_online-class-27 targetColor" cx="244.3" cy="167.3" rx="8.9" ry="14" style="fill:#68e1fd"/>
    <ellipse transform="rotate(-18.558 268.205 181.151)" class="st5_online-class-27 targetColor" cx="268.2" cy="181.2" rx="8.9" ry="14" style="fill:#68e1fd"/>
  </g>
  <g id="stationary_online-class-27">
    <path class="st11_online-class-27" d="M81.3 219.6c-16.9 0-30.7 4.5-30.7 10H112c0-5.5-13.7-10-30.7-10m-30.5 10.8c-.1-.5-.1-.8-.1-.8 0 .3 0 .6.1.8m61.2-.8-.1.9c.1-.3.1-.6.1-.9"/>
    <path class="st11_online-class-27" d="M81.3 239.7c16 0 29.2-4 30.5-9.1l.1-.9H50.7s0 .3.1.8c1.2 5.1 14.4 9.2 30.5 9.2"/>
    <path class="st8_online-class-27" d="M81.3 219.6c-16.9 0-30.7 4.5-30.7 10H112c0-5.5-13.7-10-30.7-10m0 20.1c16 0 29.2-4 30.5-9.1l.1-.9H50.7s0 .3.1.8c1.2 5.1 14.4 9.2 30.5 9.2"/>
    <path class="st7_online-class-27" d="M86.2 177.9h6.9v71.2h-6.9z"/>
    <ellipse class="st7_online-class-27" cx="89.6" cy="177.9" rx="3.4" ry="1.5"/>
    <path class="st10_online-class-27" d="m87.422 259.84 14.248-69.76 6.76 1.38-14.247 69.76z"/>
    <ellipse transform="rotate(-78.457 105.022 190.752)" class="st10_online-class-27" cx="105" cy="190.8" rx="1.5" ry="3.4"/>
    <path class="st5_online-class-27 targetColor" d="m73 231.2-6.3 3.6c-.3.2-.6.1-.8-.2s-.1-.6.2-.8l6.4-3.7c.1 0 .1-.1.2-.1l-1.3-6.8-6.3 3.6c-.3.2-.6.1-.8-.2s-.1-.6.2-.8l6.4-3.7c.1 0 .2-.1.2-.1l-1.2-6.3-6.2 3.6c-.3.2-.6.1-.8-.2s-.1-.6.2-.8l6.5-3.7.1-.1-1.3-7-6.2 3.6c-.3.2-.6.1-.8-.2s-.1-.6.2-.8l6.5-3.7h.1l-1.3-6.9-6.3 3.6c-.3.2-.6.1-.8-.2s-.1-.6.2-.8l6.4-3.7c.1 0 .1-.1.2-.1l-1.1-6-6.3 3.6c-.3.2-.6.1-.8-.2s-.1-.6.2-.8l6.4-3.7c.1 0 .1-.1.2-.1l-1.1-6-6.3 3.6c-.3.2-.6.1-.8-.2s-.1-.6.2-.8l6.4-3.7c.1 0 .1 0 .2-.1l-1.2-6.6-6.2 3.6c-.3.2-.6.1-.8-.2s-.1-.6.2-.8l6.5-3.7.1-.1-.6-3.1-13.7 8.5s9.7 54.1 9.9 54.2c5.7 3 16 3.3 16 3.3z" style="fill:#68e1fd"/>
    <path class="st12_online-class-27" d="M56.3 180.4c-.3.2-.4.5-.2.8s.5.4.8.2l6.2-3.6-.2-1.1-.1.1zm1.4 7.7c-.3.2-.4.5-.2.8s.5.4.8.2l6.3-3.6-.2-1.1c-.1 0-.1 0-.2.1zm1.3 7.1c-.3.2-.4.5-.2.8s.5.4.8.2l6.3-3.6-.2-1.1c-.1 0-.1 0-.2.1zm1.3 7.1c-.3.2-.4.5-.2.8s.5.4.8.2l6.3-3.6-.2-1.1c-.1 0-.1 0-.2.1zm1.6 7.9c-.3.2-.4.5-.2.8s.5.4.8.2l6.2-3.6-.2-1.1h-.1zm1.5 8.2c-.3.2-.4.5-.2.8s.5.4.8.2l6.2-3.6-.2-1.2-.1.1zm7.7 3.8-6.4 3.7c-.3.2-.4.5-.2.8s.5.4.8.2l6.3-3.6-.2-1.1zm-4.9 11.6c-.3.2-.4.5-.2.8s.5.4.8.2l6.3-3.6-.2-1.1c-.1 0-.1 0-.2.1z"/>
    <path class="st9_online-class-27" d="M101.6 190.1s.3 1.8 3.1 2.1 3.7-.8 3.7-.8l-.9-13.6z"/>
    <path class="st4_online-class-27" d="m107.5 177.9-2.7 5.7c.8.9 2.1 1.1 3.1.4z"/>
    <path class="st9_online-class-27" d="M86.2 177.4s.6 1.7 3.4 1.6 3.5-1.3 3.5-1.3l-3-13.3z"/>
    <path class="st4_online-class-27" d="m90.1 164.5-1.8 6c.9.7 2.3.7 3.2-.1z"/>
    <path class="st11_online-class-27" d="M81.3 239.7c-16.1 0-29.4-4.1-30.6-9.2.8 6.2 6.3 48.8 6.5 49 0 0 2.8 12 24 12 18.1 0 23.2-9.1 23.2-9.1l7.3-51.8c-1.2 5-14.3 9.1-30.4 9.1"/>
  </g>
  <g id="books_online-class-27">
    <path class="st10_online-class-27" d="m137.6 128.8-11 5.8 30 28.3 26.5 8.3 8.8-12"/>
    <path class="st13_online-class-27" d="m137.6 128.8-11 5.8 30 28.3 26.5 8.3 8.8-12"/>
    <path class="st5_online-class-27 targetColor" style="fill:#68e1fd" d="m179.1 165.2 10.2-5.8-51.7-30.6 1.2-.7 53.1 31.1v79.7l-11.6 6.6-4.4-4.6"/>
    <path class="st14_online-class-27" d="m179.1 165.2 10.2-5.8-51.7-30.6 1.2-.7 53.1 31.1v79.7l-11.6 6.6-4.4-4.6"/>
    <path class="st5_online-class-27 targetColor" style="fill:#68e1fd" d="m126.6 134.6 53.7 31.3v79.6l-54.5-32.6z"/>
    <path class="st12_online-class-27" d="m178.3 160.7-3.3 2.1v17l-2.1-2.7-1.4 1.6v-17.9l3-2.2z"/>
    <path class="st10_online-class-27" d="m122.6 151.6-9.8 5.3 26.7 25.1 23.6 7.4 7.9-10.6"/>
    <path class="st13_online-class-27" d="m122.6 151.6-9.8 5.3 26.7 25.1 23.6 7.4 7.9-10.6"/>
    <path class="st5_online-class-27 targetColor" style="fill:#68e1fd" d="m159.5 184.1 9.1-5.2-46-27.3 1.1-.6 47.3 27.8v71l-10.4 5.9-3.9-4.1"/>
    <path class="st14_online-class-27" d="m159.5 184.1 9.1-5.2-46-27.3 1.1-.6 47.3 27.8v71l-10.4 5.9-3.9-4.1"/>
    <path class="st5_online-class-27 targetColor" style="fill:#68e1fd" d="m112.8 156.9 47.8 27.9v70.9L112 226.6z"/>
    <path class="st12_online-class-27" d="m158.8 180.1-2.9 1.8v15.2l-1.8-2.4-1.3 1.5v-16l2.7-2z"/>
  </g>
  <g id="character_2_online-class-27">
    <path class="st9_online-class-27" d="M180.5 348.1s-.6 4.5.1 4.8c1.2.7 2.6 1 4 .8 2-.6 4-1.2 6.1-1.6 2.5-.4 8.9.4 10-1.3s0-5.3 0-5.3"/>
    <path class="st4_online-class-27" d="M200.8 345.5c-.5-2.8-4.6-1.6-6.5-2.9-3.5-2.3-3.7-7.3-3.4-11.1l-7.8-2.7-1.6 9-.9 10.2c.8 1.1 2.1 1.8 3.5 1.8l5.2-1.2c3.3-.2 11.8-1.2 11.5-3.1"/>
    <path class="st9_online-class-27" d="M191.5 353.4s-.6 4.5.1 4.8c1.2.7 2.6 1 4 .8 2-.6 4-1.2 6.1-1.6 2.5-.4 8.9.4 10-1.3s0-5.3 0-5.3"/>
    <path class="st4_online-class-27" d="M211.7 350.8c-.5-2.8-4.6-1.6-6.5-2.9-3.5-2.3-3.7-7.3-3.4-11.1l-7.9-2.7-1.5 9-.9 10.2c.8 1.1 2.1 1.8 3.5 1.8l5.2-1.2c3.4-.2 11.9-1.1 11.5-3.1"/>
    <path class="st12_online-class-27" d="m180.1 323.2-1.9 10.6s3 3.1 13.3 2.8 0-18.8 0-18.8"/>
    <ellipse class="st4_online-class-27" cx="166.8" cy="348" rx="14.6" ry="5.4"/>
    <path class="st4_online-class-27" d="m164.3 323.6.6 21.9h4.4v-21.9"/>
    <path d="M174.1 297.5s11.5-9.2 19.1-10.3 11.6 7.2 11.1 12.7-18.8 8.5-18.8 8.5" style="fill:#ccc"/>
    <path class="st12_online-class-27" d="M180.3 300.6c1.5-1.4 21-10.5 27.8-6.3s6.4 7.2 5.6 12.3-7.5 32.3-7.5 32.3c-5 1.9-10.4 2.2-15.6.7l1.9-20.2-25.9-14.2"/>
    <path class="st16_online-class-27" d="M180.3 300.6c1.5-1.4 21-10.5 27.8-6.3s6.4 7.2 5.6 12.3-7.5 32.3-7.5 32.3c-5 1.9-10.4 2.2-15.6.7l1.9-20.2-25.9-14.2"/>
    <path class="st10_online-class-27" d="M166.1 268.1c1 .8 9.9 1.8 11.8 5.9s4.7 25.2 4.7 25.2-5.3 8-14.6 5.1c-2.7-.8-16.9-26.8-17.3-29.5-1.1-7 15.4-6.7 15.4-6.7"/>
    <path class="st5_online-class-27 targetColor" d="M148.5 313.7c-.4-1.1-.8-2.2-1.1-3.3-2.2-8.5-3.6-40.6 10.8-39.3 15.8 1.4 10.5 41 26.5 39.8s22.6 3 16.1 9.2c-13.1 12.4-44.2 12.7-52.3-6.4" style="fill:#68e1fd"/>
    <path class="st9_online-class-27" d="M171.7 256.6c.1.6 1.2 9.8-1.5 11.9s-8.8-2.8-9-5.2-2.2-7.5.4-8.8 9.4-2.4 10.1 2.1"/>
    <path class="st10_online-class-27" d="M169.5 250.2c-.1-.1-.2-.1-.3-.2-3.5-2-9.2-1.5-12.1 1.4-.8.8-1.4 1.8-2 2.8-.4.7-.9 1.5-1.4 2.2-.1 3.7 1.3 7.3 3.9 9.9 2.5 1.6 5.4 2.5 8.3 2.5 1.1-3.4-.5-7.3 1.1-10.7.8-1.5 2.1-2.8 3.6-3.5.1-1.6-.3-3.1-1.1-4.4"/>
    <path class="st9_online-class-27" d="M168.4 263c-.4-1-1.1-1.9-2.1-2.3-.9-.4-2.1-.5-2.7.5-1.2 2.2 1.8 3.7 3.3 4.3.8.3 1.1-.9.3-1.2l-.2-.1h.1c.3 0 .6-.2.6-.5.4.1.9-.2.7-.7"/>
    <path class="st5_online-class-27 targetColor" style="fill:#68e1fd" d="m192.5 259.1 25.6 16.1-4.2 18-23.9-16.3z"/>
    <path class="st11_online-class-27" d="M190 276.9s-13.1 6.5-12.9 6.7 23.1 17.3 23.1 17.3l13.7-7.6z"/>
    <path class="st9_online-class-27" d="M195.5 290.6s3.5-3.1 4-3.4c.8-.2 1.6.1 2.3.6.6.5 1.3.3 2 1s2.2 3 1.8 3.6-1.7-.9-2.1-1.2 0 1.2-.6 2.2-4.2 1.9-5.2 1.7"/>
    <path class="st10_online-class-27" d="M178.4 276.9s4.2 14.5 6.7 14.6 10.3-2.6 10.3-2.6 3.4 3.5 3 5.6-14.2 9.9-20 8.5-8.6-21.4-8.5-21.8 8.5-4.3 8.5-4.3"/>
    <path class="st9_online-class-27" d="M193.2 282c-.7-.5-1.4-1-2.1-1.4-.6-.3-1.2-.6-1.8-1-.5-.3-1.1-.4-1.7-.3q-1.95 1.35-3.6 3c-.7.5-1.4 1-2.1 1.4-.3.2-.4.6-.2.9.1.2.4.4.7.3.4-.1.7-.2 1-.3v.7c-.1.8 0 1.5.4 2.2 0 .1.1.2.2.2l-.5.2c-.8.3-.4 1.5.3 1.2l4.3-1.6c1-.3 2-.8 2.7-1.6.2-.3.2-.7-.1-.9-.1-.1-.3-.2-.5-.1l-.9.3c.7-.9 1.7-2 2.1-1.7.6.5 2.2.8 2.9.1s-.6-1.3-1.1-1.6"/>
    <path class="st10_online-class-27" d="M184 282.4s-4.4.6-7.7.7c-1.4 1.8-2.6 3.8-3.8 5.7.2 1.2.4 2.5.6 3.7.1.2.1.5.1.7 5.9-1 12.2-3.4 12.7-4.7.7-2-1.9-6.1-1.9-6.1m-24.2-28.6c-.2-1-1.1-1.8-2.1-2.1-3.1-.8-7.1 1-8 4.2-.7 3.5 1.5 7 5 7.8 3.4.3 6.4-2.3 6.7-5.7v-.4c.1-1.4-.5-2.8-1.6-3.8"/>
  </g>
  <g id="character_1_online-class-27">
    <path class="st11_online-class-27" d="M265.5 368.5c0 .5-.4 6.7.3 7.5s2.5 4.2 4.8 4.4 4.4-.3 4.8 2.1-12.8 3.2-12.8 3.2-1.4-5.5-2-5.4-.6 6.1-.6 6.1l-2.5.5-2.5-1.6 1-10.6 1.6-9"/>
    <path class="st11_online-class-27" d="M275.5 377.4c-.3 3.8-.1 8.8 3.4 11.1 1.9 1.2 6 .1 6.5 2.9.4 2.4-12.8 3.3-12.8 3.3s-1.4-5.5-2-5.4-.5 6.1-.5 6.1l-2.5.5-2.5-1.6.9-10.6 1.5-9"/>
    <path class="st12_online-class-27" d="m253.8 363.7-1.9 10.6s3 3.1 13.3 2.8 0-18.8 0-18.8"/>
    <ellipse class="st4_online-class-27" cx="240.5" cy="388.4" rx="14.6" ry="5.4"/>
    <path class="st4_online-class-27" d="m238 364.1.6 21.9h4.3v-21.9"/>
    <path class="st12_online-class-27" d="M247.8 338s11.5-9.2 19.1-10.3 11.6 7.2 11 12.7-18.8 8.6-18.8 8.6"/>
    <path class="st12_online-class-27" d="M253.9 341c1.5-1.4 21-10.5 27.8-6.3s6.4 7.2 5.6 12.3-7.5 32.3-7.5 32.3c-5 1.9-10.4 2.2-15.6.7l1.9-20.2-25.9-14.2"/>
    <path class="st16_online-class-27" d="M253.9 341c1.5-1.4 21-10.5 27.8-6.3s6.4 7.2 5.6 12.3-7.5 32.3-7.5 32.3c-5 1.9-10.4 2.2-15.6.7l1.9-20.2-25.9-14.2"/>
    <path class="st7_online-class-27" d="M239.7 308.5c1 .8 9.9 1.8 11.8 5.9s4.7 25.2 4.7 25.2-5.3 7.9-14.6 5.1c-2.8-.8-17-26.8-17.3-29.5-1-7 15.4-6.7 15.4-6.7"/>
    <path class="st5_online-class-27 targetColor" d="M222.2 354.2c-.5-1.1-.8-2.2-1.1-3.3-2.2-8.5-3.6-40.6 10.8-39.3 15.8 1.4 10.5 41 26.5 39.8s22.6 3 16 9.2c-13 12.4-44.2 12.6-52.2-6.4" style="fill:#68e1fd"/>
    <path class="st9_online-class-27" d="M245.4 297.1c.1.6 1.3 9.8-1.5 11.9s-8.8-2.8-9-5.2-2.2-7.5.4-8.8 9.4-2.5 10.1 2.1"/>
    <path class="st10_online-class-27" d="M242.8 290.4c-3.5-2-9.2-1.5-12.1 1.4-.8.8-1.4 1.8-2 2.8-.4.7-.9 1.5-1.4 2.1-.1 3.7 1.3 7.3 3.9 9.9 2.9 1.9 6.4 2.8 9.8 2.5-.3-1.2-.6-2.4-.8-3.7-.3-2-.8-4.5.7-6.2.5-.6 1.3-.9 2.1-.7l.1-.1 3 .2c.1.1 2.2-5-3.3-8.2"/>
    <path class="st10_online-class-27" d="M228.6 296c-3.3-6-13.4-3-14.1 3.3-.3 3 .5 6 2.3 8.5 2.4 3 2.5 9.6-1.6 14.4s-.8 10.6 4 12.7 15.1 2 14.7-6.4-10.4-19-10.3-24.8 5.9-2.5 5.9-2.5"/>
    <path class="st11_online-class-27" d="M230.2 296.2c0-1.4-1.1-2.5-2.5-2.5s-2.4 1.1-2.5 2.5c-.1 1-.1 2-.1 3 0 1.4 1.1 2.5 2.5 2.5s2.5-1.1 2.5-2.5c.1-1 .1-2 .1-3"/>
    <path class="st9_online-class-27" d="M242.1 303.4c-.4-1-1.1-1.9-2.1-2.3-.9-.4-2.1-.5-2.7.5-1.2 2.2 1.8 3.7 3.4 4.3.7.3 1.1-.9.3-1.2l-.3-.1h.1c.3 0 .6-.2.6-.5.4.1.8-.2.7-.7"/>
    <path class="st5_online-class-27 targetColor" style="fill:#68e1fd" d="m266.2 299.6 25.6 16-4.3 18-23.9-16.3z"/>
    <path class="st11_online-class-27" d="M263.6 317.3s-13.1 6.5-12.9 6.7 23.1 17.3 23.1 17.3l13.7-7.7z"/>
    <path class="st9_online-class-27" d="M269.1 331.1s3.5-3.1 4-3.4c.8-.1 1.6.1 2.2.6.5.5 1.3.3 2 1s2.2 3 1.8 3.6-1.7-.9-2.1-1.2 0 1.2-.6 2.2-4.2 1.9-5.2 1.7"/>
    <path class="st7_online-class-27" d="M252.1 317.3s4.2 14.5 6.7 14.6 10.3-2.6 10.3-2.6 3.4 3.5 3 5.6-14.2 9.9-20 8.5-8.6-21.4-8.5-21.8 8.5-4.3 8.5-4.3"/>
    <path class="st9_online-class-27" d="M266.9 322.4c-.7-.5-1.4-1-2.1-1.4-.6-.3-1.2-.6-1.8-1-.5-.3-1.1-.4-1.7-.3q-1.95 1.35-3.6 3c-.7.5-1.4 1-2.1 1.4-.3.2-.4.6-.2.9.1.2.4.3.7.3.4-.1.7-.2 1.1-.3v.7c-.1.8 0 1.5.4 2.2 0 .1.1.2.2.2l-.5.2c-.7.3-.4 1.5.3 1.2l4.3-1.6c1-.3 2-.8 2.7-1.6.2-.3.2-.7-.1-.9-.1-.1-.3-.1-.5-.1l-.9.3c.7-.9 1.7-2 2.1-1.7.6.5 2.2.8 2.9.1s-.7-1.3-1.2-1.6"/>
    <path class="st7_online-class-27" d="M257.6 322.9s-4.4.6-7.8.7c-1.4 1.8-2.6 3.8-3.8 5.7.2 1.2.4 2.5.6 3.7.1.2.1.5.1.7 5.9-1 12.2-3.4 12.7-4.7.8-2.1-1.8-6.1-1.8-6.1"/>
  </g>
</svg>
