<svg id="_0120_online_presentation" xmlns="http://www.w3.org/2000/svg" xmlns:xlink="http://www.w3.org/1999/xlink" viewBox="0 0 500 500" data-imageid="presentation-2-98" class="illustrations_image" style="width:166px">
  <defs>
    <linearGradient id="linear-gradient-presentation-2-98" x1="658.81" y1="1626.14" x2="658.54" y2="1646.77" gradientTransform="matrix(1 0 0 -1 -471 1712.55)" gradientUnits="userSpaceOnUse">
      <stop offset="0" stop-color="#231f20" stop-opacity="0"/>
      <stop offset="1" stop-color="#231f20"/>
    </linearGradient>
    <linearGradient id="linear-gradient-2-presentation-2-98" x1="677.74" y1="1659.26" x2="664.71" y2="1629.49" xlink:href="#linear-gradient-presentation-2-98"/>
    <linearGradient id="linear-gradient-3-presentation-2-98" x1="609.96" y1="1382.46" x2="603.06" y2="1272.43" gradientTransform="matrix(1 0 0 -1 -496.64 1675)" xlink:href="#linear-gradient-presentation-2-98"/>
    <linearGradient id="linear-gradient-4-presentation-2-98" x1="618.91" y1="1481.93" x2="626.69" y2="1521.51" gradientTransform="matrix(1 0 0 -1 -496.64 1675)" xlink:href="#linear-gradient-presentation-2-98"/>
    <linearGradient id="linear-gradient-5-presentation-2-98" x1="605.28" y1="1515.8" x2="619.72" y2="1517.56" gradientTransform="matrix(1 0 0 -1 -496.64 1675)" xlink:href="#linear-gradient-presentation-2-98"/>
    <linearGradient id="linear-gradient-6-presentation-2-98" x1="931.12" y1="1377.59" x2="987.43" y2="1377.59" gradientTransform="matrix(1 0 0 -1 -496.64 1675)" xlink:href="#linear-gradient-presentation-2-98"/>
    <linearGradient id="linear-gradient-7-presentation-2-98" x1="782.85" y1="1299.3" x2="806.36" y2="1299.3" gradientTransform="matrix(1 0 0 -1 -496.64 1675)" xlink:href="#linear-gradient-presentation-2-98"/>
    <linearGradient id="linear-gradient-8-presentation-2-98" x1="751.39" y1="1337.57" x2="820.02" y2="1337.57" gradientTransform="matrix(1 0 0 -1 -496.64 1675)" xlink:href="#linear-gradient-presentation-2-98"/>
    <linearGradient id="linear-gradient-9-presentation-2-98" x1="773.99" y1="1348.88" x2="846.08" y2="1348.88" gradientTransform="matrix(1 0 0 -1 -496.64 1675)" xlink:href="#linear-gradient-presentation-2-98"/>
    <linearGradient id="linear-gradient-10-presentation-2-98" x1="813.95" y1="1377.59" x2="871.43" y2="1377.59" gradientTransform="matrix(1 0 0 -1 -496.64 1675)" xlink:href="#linear-gradient-presentation-2-98"/>
    <style>
      .cls-12_presentation-2-98,.cls-13_presentation-2-98,.cls-14_presentation-2-98,.cls-15_presentation-2-98{stroke-width:0}.cls-15_presentation-2-98{fill:#68e1fd}.cls-12_presentation-2-98{fill:#231f20}.cls-13_presentation-2-98{fill:#fff}.cls-14_presentation-2-98{fill:#ffb4a3}
    </style>
  </defs>
  <path id="background_presentation-2-98" class="targetColor" d="M10.14 230.74c-8.43 49.52 7.82 104.24 46.92 135.84 36.3 29.29 85.55 35.38 132.02 39.24 70.65 5.91 145.05 8.67 208.86-22.23 13.94-6.73 27.36-15.08 42.36-19 8.58-2.26 17.87-3.21 24.76-8.73s9.81-14.24 12.04-22.66c7.46-28.71 7.86-61.97-10.77-85.05-21.89-27.13-62.29-31.41-88.13-54.78-13.11-11.87-21.65-27.92-33.55-40.98-37.13-40.8-98.54-45.52-153.64-47.46-44.6-1.55-90.63-15.49-123.21 18.84-28.3 29.81-50.98 65.78-57.66 106.98Z" style="stroke-width:0;isolation:isolate;opacity:.18;fill:#ff5516"/>
  <g id="camera_presentation-2-98">
    <path class="cls-15_presentation-2-98 targetColor" style="fill:#ff5516" d="M179.4 77.91h16.04v6.93H179.4z"/>
    <path class="cls-15_presentation-2-98 targetColor" style="fill:#ff5516" d="M186.23 66.56h2.82v13.83h-2.82z"/>
    <path style="fill:url(#linear-gradient);stroke-width:0" d="M186.23 66.56h2.82v13.83h-2.82z"/>
    <path class="cls-15_presentation-2-98 targetColor" transform="rotate(-67.6 193.984 62.855)" style="fill:#ff5516" d="M186.51 46.27h14.95v33.17h-14.95z"/>
    <path style="stroke-width:0;fill:url(#linear-gradient-2-presentation-2-98)" d="m205.48 74.12-13.05-5.22 4.63-11.45 13.05 5.22z"/>
    <circle class="cls-15_presentation-2-98 targetColor" cx="202.85" cy="66.36" r="2.85" style="fill:#ff5516"/>
  </g>
  <g id="plant_presentation-2-98">
    <path class="cls-15_presentation-2-98 targetColor" d="M76.52 310.44c-.63-3.43 0-8.13 3.4-8.72 2.22-.38 4.21 1.35 5.76 2.98 7.3 7.61 13.9 15.86 19.71 24.66a166 166 0 0 1-8.29-33.44c-.53-3.8-.87-7.91.97-11.29s6.74-5.3 9.68-2.81c1.62 1.37 2.16 3.61 2.62 5.68l4.5 20.35c.18-8.23-2.45-16.32-2.28-24.53.17-8.2 4.15-17.48 12.15-19.43 1.8 20.7 1.2 41.53-1.78 62.09 3.07-3.52 4.24-8.25 6.45-12.37s6.34-7.97 10.95-7.19c.99 9.39-4.45 18.11-9.68 25.99 2.45-2.31 5.19-4.71 8.58-5.31s7.36 1.46 7.6 4.91c.25 3.45-3.1 5.68-6 7.36l-23.42 13.42c-.95.63-2.02 1.05-3.14 1.23-1.35 0-2.66-.37-3.8-1.09-15.8-8.38-30.76-24.7-33.99-42.47Z" style="fill:#ff5516"/>
    <path d="M76.52 310.44c-.63-3.43 0-8.13 3.4-8.72 2.22-.38 4.21 1.35 5.76 2.98 7.3 7.61 13.9 15.86 19.71 24.66a166 166 0 0 1-8.29-33.44c-.53-3.8-.87-7.91.97-11.29s6.74-5.3 9.68-2.81c1.62 1.37 2.16 3.61 2.62 5.68l4.5 20.35c.18-8.23-2.45-16.32-2.28-24.53.17-8.2 4.15-17.48 12.15-19.43 1.8 20.7 1.2 41.53-1.78 62.09 3.07-3.52 4.24-8.25 6.45-12.37s6.34-7.97 10.95-7.19c.99 9.39-4.45 18.11-9.68 25.99 2.45-2.31 5.19-4.71 8.58-5.31s7.36 1.46 7.6 4.91c.25 3.45-3.1 5.68-6 7.36l-23.42 13.42c-.95.63-2.02 1.05-3.14 1.23-1.35 0-2.66-.37-3.8-1.09-15.8-8.38-30.76-24.7-33.99-42.47Z" style="stroke-width:0;fill:url(#linear-gradient-3-presentation-2-98)"/>
    <path class="cls-15_presentation-2-98 targetColor" style="fill:#ff5516" d="M98.19 351.47h31.85v30.95H98.19z"/>
  </g>
  <g id="presentation_presentation-2-98">
    <path class="cls-15_presentation-2-98 targetColor" style="fill:#ff5516" d="M79.81 84.03h220.76v150.51H79.81z"/>
    <path class="cls-12_presentation-2-98" d="M146.57 157.24c-1.12-1.23 3.13-.44 2.45-1.91-3.52-7.09-4.55-15.24-8.28-22.22-.59-1.09-1.23-2.15-1.77-3.25 1.21-.74 2.32-1.65 3.29-2.69 1.75-1.82 3.33-3.79 4.72-5.9.21.21.55.36.75.66 11.79 18.1-1.1 32.52-1.17 35.31Z"/>
    <path class="cls-13_presentation-2-98" d="M126.21 184.78c7.55-.12 15.66.48 21.63 5.11 4.28 3.34 6.9 8.34 9.08 13.32 3.88 8.9 6.72 18.22 8.46 27.78.17.93 3.18 2.76 2.33 3.19-.29.15-4.67.54-5 .55-25.3.78-49.53.56-74.81 1.34-.55.08-1.1-.02-1.58-.29-.43-.4-.7-.94-.76-1.52-2.34-9.46-4.6-19.18-2.86-28.72.26-1.78.85-3.5 1.72-5.08 2.04-3.41 5.41-4.4 8.66-6.22 2.98-1.68 5.56-3.78 8.73-5.15 7.65-3.3 16.15-4.17 24.4-4.3Z"/>
    <path class="cls-14_presentation-2-98" d="M116.08 165.53c-1.14 2.99-.91 6.3-.65 9.49l1.46 18.4c-.12 1.7.94 3.27 2.58 3.78 3.48 1.89 7.25 3.68 11.21 3.45s8.04-2.96 8.41-6.89c.23-2.6-1.13-5.06-2.71-7.14-1.58-2.07-3.46-3.99-4.51-6.36-1.73-3.94-.97-8.45-1.3-12.73-.05-2.06-.69-4.07-1.86-5.76-3.57-4.54-10.93-.64-12.62 3.78Z"/>
    <path d="M122.57 180.89c2.48 2.46 5.48 4.33 8.77 5.49.74.4 1.63.36 2.33-.11.75-.74.21-1.99-.32-2.91-1.36-2.4-2.34-4.99-2.91-7.69a8 8 0 0 0-1.37-3.68 6.1 6.1 0 0 0-1.55-1.17c-2.45-1.42-9.06-4.91-10.9-.91-1.52 3.23 3.85 8.89 5.95 10.96Z" style="stroke-width:0;fill:url(#linear-gradient-4-presentation-2-98)"/>
    <path class="cls-14_presentation-2-98" d="M148.51 151.45c.59 3.57.71 7.2.34 10.8a20.7 20.7 0 0 1-7.89 13.39 15.77 15.77 0 0 1-13.37 3.1c-6.01-1.66-9.81-7.36-12.71-12.96-3.19-6.13-5.91-12.68-6.62-19.62s.77-14.24 5.22-19.55c7.29-8.7 20.24-9.84 28.94-2.55.76.64 1.48 1.33 2.14 2.07 4.28 4.87 3.15 18.87 3.94 25.31Z"/>
    <path class="cls-12_presentation-2-98" d="M146.99 121.27c-1.41 2.11-3 4.08-4.77 5.9-.97 1.04-2.08 1.94-3.29 2.69-4.21 2.65-9.43 3.75-13.85 5.92-1.37.58-2.57 1.5-3.5 2.67-1.95 2.81-.91 7.1-3.29 9.55-.48.4-.89.87-1.23 1.4-.22.61-.26 1.27-.13 1.91.8 6.85.83 13.78.1 20.64-2.85-2.99-7.06-4.24-10.25-6.88-6.43-5.29-7.25-14.72-7.36-23.02-.23-4.13.21-8.27 1.3-12.26 1.23-3.94 4.02-7.6 7.92-9 .6-.17 1.17-.42 1.7-.75.64-.62 1.12-1.38 1.4-2.22 4.16-9.09 15.15-11.65 24.06-8.68 3.68 1.23 7.6 3.53 9.22 7.25.31.73.55 1.48.71 2.26.92-.27 1.66-.29 1.9.15.25.44-.02 1.41-.66 2.48Z"/>
    <path class="cls-13_presentation-2-98" d="M176.19 138.46h94.91v70h-94.91z"/>
    <path class="cls-14_presentation-2-98" d="M224.55 207.22c-.06.51-.35.96-.78 1.23a32.9 32.9 0 0 1-11.23 5.94c-1.91.58-3.58.88-4.55 2.67a34.7 34.7 0 0 0-1.83 5.43c-1.23 3.73-2.8 7.34-4.7 10.78-.23.43-.48.86-.75 1.23h-19.88q.48-.9 1.23-1.59c3-3.17 5.62-6.68 7.81-10.45.27-.45.53-.91.78-1.37.85-1.48 1.63-3 2.38-4.55s1.56-5.13 2.88-6.29c1.62-1.45 4.33-.93 6.28-.88 3.08.1 6.16-.22 9.15-.94 3.9-.98 7.74-2.98 11.72-2.37.64.15 1.45.49 1.48 1.18Z"/>
    <path class="cls-15_presentation-2-98 targetColor" style="fill:#ff5516" d="M186.83 153.29h7.87v43.83h-7.87zm13.13 14.25h7.87v29.58h-7.87zm13.72-5.08h7.87v34.66h-7.87zm14.16 5.08h7.87v29.58h-7.87z"/>
    <path class="cls-14_presentation-2-98" d="M113 151.89c-.53-.04-1.05.03-1.55.22-1.1.57-1.85 1.64-2.01 2.87-.49 3.2.72 6.42 3.2 8.5.81.8 1.83 1.37 2.94 1.63 1.14.25 2.32-.13 3.09-1.01.65-1.08.87-2.37.63-3.61-.37-4.01-1.52-8.36-6.3-8.61Z"/>
    <path d="M115.48 158.38c-.27-.68-.58-1.35-.92-2q-.285-.405-.66-.72c-.39-.43-.98-.65-1.56-.58-.38.12-.69.42-.82.8-.14.39-.19.81-.13 1.23a5.97 5.97 0 0 0 1.99 4.05c.26.24.56.44.88.59.5.16 1.03.23 1.56.2.18.02.37.02.55 0 .71-.38 1.03-1.22.76-1.97-.32-.75-1.25-.85-1.64-1.58Z" style="stroke-width:0;fill:url(#linear-gradient-5-presentation-2-98)"/>
  </g>
  <path class="cls-15_presentation-2-98 targetColor" style="fill:#ff5516" d="M161.79 283.62H422.8v5.51H161.79zm-5.34 6.94h70.98v89.19h-70.98z" id="table_presentation-2-98"/>
  <g id="character_2_presentation-2-98">
    <path class="cls-14_presentation-2-98" d="M368.54 326.58c.64.58 21.57 48.86 21.82 51.61.22 2.45-1.72 4.38-3.23 6.29 1.95-.36 8.25-3.04 9.68-4.43.47-.39.81-.92.98-1.51.08-.57.02-1.15-.17-1.69-1.23-4.46-8.01-34.24-8.98-39.98-.3-2.37-.88-4.7-1.72-6.94a10.63 10.63 0 0 0-4.5-5.41 6.5 6.5 0 0 0-6.81.2c-1.32-.07-5.83 1.4-7.08 1.86Z"/>
    <path class="cls-14_presentation-2-98" d="M400.45 335.72c5.27 11.94 6.86 25.2 11.25 37.5.33.75.5 1.55.52 2.37-.09.74-.35 1.45-.77 2.07-1.28 2.08-3.2 3.69-5.48 4.57.38-7.36-3.2-14.19-6.67-20.64l-4.61-8.58a84 84 0 0 1-4.41-9.04c-.64-1.58-1.17-3.21-1.64-4.84-1.02-3.41-4.32-11.42 1.43-12.34 5.24-.8 8.63 4.93 10.4 8.93Zm-12.29-57.43c-3.25.23-6.51-.43-9.81-.17s-6.73 1.8-7.86 4.91c1.85 1.7 4.68 1.62 7.19 1.39 6.13-.58 19.89-.18 26.04-1.17 2.45-.38-2.7-1.96-.48-2.97 1-.33 1.8-1.09 2.2-2.07-4.53-4.26-12.04-.27-17.27.09Z"/>
    <path class="cls-12_presentation-2-98" d="m445.46 283.82 1.01 24.7c.11 2.54.17 5.22-1.12 7.36-2.28 3.88-7.58 4.4-12.07 4.49l-30.34.58c-2.2-.11-4.4.23-6.46.99-2 .9.52 5.03.64 7.22 0 .82-3.9-.37-4.51.2-.47.32-1.05.44-1.61.34l-15-.8c-1.32 0-2.63-.22-3.88-.67-3-1.3-4.22-4.83-5.13-7.97a40.8 40.8 0 0 1-2.11-11.48c0-3.9 1.35-7.97 4.34-10.47 3.59-3.02 8.69-3.2 13.38-3.23l30.01-.21c.92.12 1.84-.15 2.55-.74.61-.7.55-1.78 1.09-2.53.62-.69 1.46-1.12 2.38-1.23l16.86-3.74c1.75-.52 3.59-.65 5.4-.37 1.83.33 3.23 1.83 3.43 3.68"/>
    <path class="cls-14_presentation-2-98" d="M412.41 212.95c-.27.52-.5 1.05-.7 1.59-.2.68-.44 1.34-.72 1.99-.55.73-.81 1.63-.74 2.54.23 1.23 1.31 1.95 2.17 2.78.89.84 1.62 1.84 2.16 2.94.66 1.4 1.09 3.05 2.38 3.91 1.72 1.15 4.16.37 5.97 1.36 2.65 1.45 1.39 6.98 4.33 7.04 2.51.03 5-.39 7.36-1.23 1.14-.29 2.15-.98 2.82-1.95.98-1.77-.21-3.9-.98-5.78-3.18-7.68.76-17.23-3.45-24.39-1.43-2.4-3.63-4.24-6.24-5.21a10.38 10.38 0 0 0-10.04 1.41c-3.04 2.45-1.72 6.65-2.94 9.97-.4 1.03-.86 2.04-1.37 3.02Z"/>
    <path class="cls-12_presentation-2-98" d="M415.56 192.91c-2.95 4.23-1.91 10.06 2.32 13.01.25.17.5.33.77.48 2.27 1.23 5.25 1.78 6.46 4.06.5 1.41.81 2.88.9 4.37.16.78.65 1.7 1.46 1.64 1.32-.11 1.23-2.58 2.51-2.85a3.364 3.364 0 0 1 .18 4.75c-.21.22-.44.41-.7.57-.4.22-.93.47-.91.92s.58.63.98.83c1.83.98 1.23 3.97 2.78 5.41.83.66 1.89.94 2.94.8a9.94 9.94 0 0 0 7.2-4.35c1.61-2.44 2.46-5.3 2.45-8.22a7.4 7.4 0 0 1 .44-3.13 2.08 2.08 0 0 1 2.6-1.23c-.71 3.68-1.42 7.44-.45 11.04 1.18 4.18 4.47 7.44 8.66 8.58a12.5 12.5 0 0 1-1.72-5.85c0-1.97.24-3.93.71-5.85l1.63-8.11c.58-2.32.86-4.71.83-7.1a9.6 9.6 0 0 0-2.64-6.5 5.9 5.9 0 0 0-6.6-1.23 6.41 6.41 0 0 0-3.04 4.57c-.26 1.88-.24 3.78.06 5.65a79 79 0 0 1-7.27-8.76 15.3 15.3 0 0 0-4.76-5.03c-2.33-1.23-5.13-1.08-7.76-.88-3.68.27-7.28-.38-10.06 2.38Z"/>
    <path class="cls-15_presentation-2-98 targetColor" d="M438.45 234.13c-1.89.1-3.79.29-5.65.58-1.52.18-3.01.59-4.4 1.23-1.55.82-2.9 1.99-3.92 3.41-4.17 5.49-4.66 12.82-6.46 19.47a17.6 17.6 0 0 1-2.34 5.52c-2.53 3.61-6.98 5.29-11.23 6.39-1.89.48-3.97 1.03-4.99 2.67-.53 1-.79 2.13-.76 3.26-.11 2.45.28 5.37 2.45 6.49.75.33 1.55.52 2.37.56 4.72.45 9.48.06 14.07-1.15.9 1.23 0 3.03.6 4.41.6 1.39 2.55 1.69 4.13 1.73 6.56.1 13.12-.31 19.62-1.23.72-.06 1.42-.26 2.06-.59.97-.77 1.63-1.87 1.86-3.09a88.3 88.3 0 0 0 3.07-28.56 56 56 0 0 0-1.8-13.27c-.7-2.45-1.79-4.99-3.94-6.36-2.38-1.51-5.43-1.23-8.24-.93" style="fill:#ff5516"/>
    <path class="cls-12_presentation-2-98" d="M398.83 387.26c0 .6-.18 1.39-.78 1.42s-.88-.69-.92-1.23 0-1.29-.53-1.58-1.23.23-1.82.64c-3.61 2.61-13.56 3.84-18.06 3.73-1.39-3.74 7.57-4.91 9.63-5.97 1.66-.82 3.43-1.41 5.03-2.35 1.59-.94 2.71-2.72 4.33-3.14 3.65-.94 3.16 6.39 3.13 8.49Z"/>
    <path class="cls-12_presentation-2-98" d="M415.31 384.61c.13.55.11 1.13-.06 1.67-.21.54-.82.81-1.36.6h-.01a6.2 6.2 0 0 0-.65-2.35c-.09-.21-.25-.4-.44-.53-.55-.29-1.15.31-1.51.83a6.2 6.2 0 0 1-2.67 2.55c-.7.22-1.43.33-2.17.32l-3.79.12c-.12 0-8.9 1.12-9.01 1.05s-.77-.9 1.82-2.75c1.89-1.35 10.71-7.27 10.71-7.27-1.36 3.68 4.05-1.53 5.06-1.96 4.02-1.66 3.7 5.19 4.1 7.71Zm-20.28-45.62c1.67.91 3.58 1.3 5.47 1.12h33.53c2.15.15 4.31-.16 6.33-.91 1.67-.89 3.18-2.07 4.45-3.47 5.93-5.77 12.43-10.93 19.4-15.4.46-.23.83-.6 1.05-1.05.09-.26.12-.53.1-.8-.21-3.68-4.17-6.22-7.86-6.34s-7.21 1.43-10.71 2.64c-16.22 5.62-35.26 4.26-49.05 14.57-2.49 1.85-6.84 6.78-2.71 9.65Z"/>
    <path class="cls-12_presentation-2-98" d="M437.49 335.71a97.62 97.62 0 0 1 8.09-61.7c3.14-6.36 7.55-12.85 14.36-14.85 3.15-.93 6.51-.78 9.75-1.34 6.3-1.07 12.1-4.73 18.49-4.91.62-.08 1.25.09 1.74.48.32.38.51.85.54 1.35.46 2.78.43 5.62-.1 8.39-.96 5.08-3.5 9.69-5.59 14.41a89.5 89.5 0 0 0-7.68 37.82c.15 1.59 0 3.19-.47 4.72-.63 1.41-1.57 2.67-2.75 3.68-8.58 8.29-19.89 13.02-30.93 17.57-.81.42-1.72.62-2.64.58a4.54 4.54 0 0 1-2.85-2.12 16.36 16.36 0 0 1-2.8-11.98"/>
    <path d="M437.49 335.71a97.62 97.62 0 0 1 8.09-61.7c3.14-6.36 7.55-12.85 14.36-14.85 3.15-.93 6.51-.78 9.75-1.34 6.3-1.07 12.1-4.73 18.49-4.91.62-.08 1.25.09 1.74.48.32.38.51.85.54 1.35.46 2.78.43 5.62-.1 8.39-.96 5.08-3.5 9.69-5.59 14.41a89.5 89.5 0 0 0-7.68 37.82c.15 1.59 0 3.19-.47 4.72-.63 1.41-1.57 2.67-2.75 3.68-8.58 8.29-19.89 13.02-30.93 17.57-.81.42-1.72.62-2.64.58a4.54 4.54 0 0 1-2.85-2.12 16.36 16.36 0 0 1-2.8-11.98" style="stroke-width:0;fill:url(#linear-gradient-6-presentation-2-98)"/>
    <path class="cls-15_presentation-2-98 targetColor" style="fill:#ff5516" d="m395.03 338.99-16.72 49.76h5.07l17.12-48.64zm35.97.79 14.53 48.64h7.09l-15.15-48.54zm34.79-9.13 16.89 54.72h-6.09l-16.88-51.67z"/>
  </g>
  <g id="character_1_presentation-2-98">
    <path class="cls-12_presentation-2-98" d="M309.72 376.77c.05.56-.03 1.12-.25 1.64a4.16 4.16 0 0 1-3.05 1.79l-.92-1.29c-2.39 2.23-6.02 2.29-9.28 2.17-2.86-.1-5.7-.25-8.58-.39-.48.05-.96-.13-1.3-.48-.16-.32-.2-.69-.1-1.03a6.6 6.6 0 0 1 5.62-5.21c2.18-.23 4.43.66 6.57.18 2.8-.63 4.84-3.8 7.76-3.86s3.46 4.23 3.53 6.48"/>
    <path d="M309.72 376.77c.05.56-.03 1.12-.25 1.64a4.16 4.16 0 0 1-3.05 1.79l-.92-1.29c-2.39 2.23-6.02 2.29-9.28 2.17-2.86-.1-5.7-.25-8.58-.39-.48.05-.96-.13-1.3-.48-.16-.32-.2-.69-.1-1.03a6.6 6.6 0 0 1 5.62-5.21c2.18-.23 4.43.66 6.57.18 2.8-.63 4.84-3.8 7.76-3.86s3.46 4.23 3.53 6.48" style="stroke-width:0;fill:url(#linear-gradient-7-presentation-2-98)"/>
    <path class="cls-12_presentation-2-98" d="M269.92 307.94c-3.98 1.06-7.8 2.69-11.32 4.83-1.01.65-1.9 1.48-2.6 2.45a9.26 9.26 0 0 0-1.39 4.97c-.28 9.49 6.84 17.39 13.49 24.16l21.9 22.26c2.53 2.58 5.16 5.21 8.51 6.54 3.35 1.32 7.63 1.02 9.98-1.72a832 832 0 0 1-22.42-29.75c-.61-.62-.88-1.5-.72-2.35.4-1.12 1.94-1.23 3.13-1.07a36.51 36.51 0 0 0 30.99-13.49c2.37-2.99 4.32-6.74 3.59-10.5-.64-3.32-3.26-5.91-6.06-7.82-15.26-10.46-31.44-3.51-47.09 1.5Z"/>
    <path d="M270.05 307.95a43.7 43.7 0 0 0-11.32 4.83c-1.01.65-1.9 1.48-2.6 2.45a9.13 9.13 0 0 0-1.37 4.91c-.29 9.49 6.84 17.39 13.49 24.16l21.9 22.26c2.54 2.56 5.16 5.2 8.51 6.54s7.64 1.02 9.98-1.72a886 886 0 0 1-22.41-29.75c-.61-.62-.88-1.5-.74-2.35.4-1.12 1.95-1.17 3.13-1.07 11.92.85 23.49-4.19 30.99-13.49 2.37-3 4.33-6.76 3.61-10.5-.65-3.34-3.27-5.92-6.13-7.82-15.21-10.41-31.35-3.45-47.04 1.56Z" style="stroke-width:0;fill:url(#linear-gradient-8-presentation-2-98)"/>
    <path class="cls-12_presentation-2-98" d="M279.05 338.99c1.67.91 3.58 1.3 5.47 1.12h33.53c2.15.15 4.31-.16 6.33-.91 1.67-.89 3.17-2.07 4.44-3.47 5.94-5.77 12.44-10.93 19.41-15.4.48-.24.87-.63 1.1-1.1.09-.26.12-.53.1-.8-.21-3.68-4.17-6.22-7.86-6.34s-7.21 1.43-10.71 2.64c-16.22 5.62-35.26 4.26-48.99 14.57-2.6 1.9-6.95 6.83-2.82 9.7Z"/>
    <path d="M279.05 338.99c1.67.91 3.58 1.3 5.47 1.12h33.53c2.15.15 4.31-.16 6.33-.91 1.67-.89 3.17-2.07 4.44-3.47 5.94-5.77 12.44-10.93 19.41-15.4.48-.24.87-.63 1.1-1.1.09-.26.12-.53.1-.8-.21-3.68-4.17-6.22-7.86-6.34s-7.21 1.43-10.71 2.64c-16.22 5.62-35.26 4.26-48.99 14.57-2.6 1.9-6.95 6.83-2.82 9.7Z" style="stroke-width:0;fill:url(#linear-gradient-9-presentation-2-98)"/>
    <path class="cls-12_presentation-2-98" d="m273.88 310.57-23.09 11.54a55.2 55.2 0 0 0-10.2 6.06 3.483 3.483 0 0 0-1.48 4.64c3.51 10.76 13.49 17.87 22.85 24.21l11.32 7.66 18.82 12.74c1.37.93 2.92 1.9 4.55 1.62 2.37-.39 3.56-3.32 2.97-5.65s-2.38-4.11-4.1-5.78l-17.45-17.01c-4.16-4.05-8.39-8.19-11.04-13.34 12.55-4.91 26.24-5.79 39.4-8.69 3.19-.5 6.24-1.7 8.9-3.53 2.54-1.97 4.24-5.35 3.36-8.45-.88-2.3-2.52-4.22-4.66-5.43a22.04 22.04 0 0 0-11.04-4.07c-2.67-.15-5.33.39-8 .25-2.37-.13-4.01-1.45-6.13-1.77-4.82-.72-10.84 2.94-14.99 5.02Z"/>
    <path class="cls-14_presentation-2-98" d="M270.93 216.21c-.76.96-1.96 1.97-1.5 3.09.26.6.93.9 1.46 1.29a6.7 6.7 0 0 1 2.24 4.59c.12 1.75.54 3.46 1.23 5.08.81 1.55 2.67 2.72 4.3 2.1.97-.38 1.86-1.35 2.86-1.03.76.25 1.08 1.13 1.52 1.79a5.19 5.19 0 0 0 5.21 1.82c1.9-.47 3.68-1.3 5.26-2.45.7-.36 1.27-.91 1.66-1.59.23-.65.23-1.35 0-2-.55-2-2.1-3.54-3.38-5.19a23.76 23.76 0 0 1-4.67-10.47c-.47-2.66-.59-5.64-2.45-7.55-2.56-2.6-8.11-2.04-10.76.32-2.97 2.5-.61 7.19-2.98 10.23Z"/>
    <path class="cls-12_presentation-2-98" d="M271.28 204.94c.26.95 1.1 1.64 2.08 1.69.96.12 1.93-.07 2.88 0 2.26.15 4.21 1.67 4.91 3.83.75 2.45-.33 5.32.69 7.71.34.47 1.12.09 1.39-.43s.38-1.15.85-1.5c.77-.56 1.88.16 2.32 1.02.99 2.11.16 4.62-1.89 5.73.2.77 1.23.99 2 .81.74-.3 1.53-.48 2.33-.54 1.83.16 2.76 2.71 4.59 2.8 1.23 0 2.2-1.1 2.92-2.13l2.1-3.03c.25-.3.41-.67.45-1.05-.02-.35-.14-.7-.33-.99a10.73 10.73 0 0 1-1.01-6.73c.52-2.8 2.15-5.4 2.01-8.24-.27-2.4-1.4-4.62-3.19-6.25-4.18-4.23-10.79-5.73-16.6-5.04a6.45 6.45 0 0 0-4.78 2.76c-1.57 2.07-4.07 7.01-3.7 9.6Z"/>
    <path class="cls-15_presentation-2-98 targetColor" d="M290.37 229.33a52 52 0 0 0-5.51 3.53c-.55.38-1 .87-1.34 1.45a2.1 2.1 0 0 0 0 2.06c.61.87 1.77.42 2.65 0 4.06-2.12 8.58-2.72 12.93-3.14.62.03 1.21-.29 1.52-.83.15-.62.02-1.28-.36-1.8-2.72-4.45-6.36-3.35-9.9-1.26Z" style="fill:#ff5516"/>
    <path class="cls-15_presentation-2-98 targetColor" d="M282.58 286.7a81.4 81.4 0 0 1-6.73-19.73 27.8 27.8 0 0 0-5.35 6.33c-2.15 3.51-3.18 8.71.09 11.21-5.83 1.78-12 2.2-18.02 1.23a7.5 7.5 0 0 1-4.6-2.01 5.93 5.93 0 0 1-1.23-3.53c-.28-4.35 2.2-8.35 4.59-12.01l16.52-25.31c.56-.96 1.25-1.82 2.07-2.56 1.15-.83 2.46-1.43 3.85-1.74 10.44-3.1 21.06-5.58 31.8-7.43 1.61-.36 3.26-.47 4.91-.31 4.59.67 7.6 5 9.91 9.01 12.09 20.97 20.66 44.77 19.32 68.95-.02 1.31-.22 2.6-.61 3.85-.79 1.88-2.09 3.5-3.74 4.7-5.4 4.26-12.5 5.84-19.36 5.9-10.25.1-23.78-2.99-31.43-10.36-4.33-4.16 0-6.67 2.07-10.79 2.61-5.19-1.73-10.67-4.05-15.38Z" style="fill:#ff5516"/>
    <path class="cls-12_presentation-2-98" d="M318.68 327.9c-4.12-20.7 1.57-34.94 10.9-53.89 3.14-6.36 7.55-12.85 14.36-14.85 3.15-.93 6.51-.78 9.75-1.34 6.3-1.07 12.1-4.73 18.49-4.91.62-.08 1.25.09 1.74.48.32.38.51.85.54 1.35.46 2.78.43 5.62-.1 8.39-.96 5.08-3.5 9.69-5.59 14.41a89.2 89.2 0 0 0-7.68 37.82c.15 1.59 0 3.19-.47 4.72-.63 1.41-1.57 2.67-2.75 3.68-8.58 8.29-19.89 13.02-30.93 17.57-.81.42-1.72.62-2.64.58a4.54 4.54 0 0 1-2.85-2.12 16.36 16.36 0 0 1-2.8-11.98"/>
    <path d="M318.68 327.9c-4.12-20.7 1.57-34.94 10.9-53.89 3.14-6.36 7.55-12.85 14.36-14.85 3.15-.93 6.51-.78 9.75-1.34 6.3-1.07 12.1-4.73 18.49-4.91.62-.08 1.25.09 1.74.48.32.38.51.85.54 1.35.46 2.78.43 5.62-.1 8.39-.96 5.08-3.5 9.69-5.59 14.41a89.2 89.2 0 0 0-7.68 37.82c.15 1.59 0 3.19-.47 4.72-.63 1.41-1.57 2.67-2.75 3.68-8.58 8.29-19.89 13.02-30.93 17.57-.81.42-1.72.62-2.64.58a4.54 4.54 0 0 1-2.85-2.12 16.36 16.36 0 0 1-2.8-11.98" style="stroke-width:0;fill:url(#linear-gradient-10-presentation-2-98)"/>
    <path class="cls-15_presentation-2-98 targetColor" style="fill:#ff5516" d="m349.81 330.65 16.89 54.72h-6.08l-16.89-51.67zm-70.76 8.34-16.71 49.76h5.06l17.11-48.64zm35.97.79 14.53 48.64h7.09l-15.14-48.54z"/>
    <path class="cls-12_presentation-2-98" d="M301.4 380.09c.05.56-.03 1.13-.23 1.66a4.18 4.18 0 0 1-3.07 1.78l-.92-1.29c-2.38 2.23-6.02 2.29-9.28 2.18-2.86-.11-5.72-.25-8.58-.39-.49.05-.97-.13-1.3-.49-.17-.32-.21-.69-.11-1.03a6.6 6.6 0 0 1 5.62-5.2c2.18-.25 4.43.65 6.57.17 2.8-.63 4.91-3.8 7.76-3.86s3.47 4.24 3.54 6.48Z"/>
  </g>
</svg>
