<svg id="_0120_online_presentation" xmlns="http://www.w3.org/2000/svg" xmlns:xlink="http://www.w3.org/1999/xlink" viewBox="0 0 500 500" data-imageid="presentation-2-98" imageName="Presentation 2" class="illustrations_image" style="width: 166px;"><defs><style>.cls-1_presentation-2-98{fill:url(#linear-gradient);}.cls-1_presentation-2-98,.cls-2_presentation-2-98,.cls-3_presentation-2-98,.cls-4_presentation-2-98,.cls-5_presentation-2-98,.cls-6_presentation-2-98,.cls-7_presentation-2-98,.cls-8_presentation-2-98,.cls-9_presentation-2-98,.cls-10_presentation-2-98,.cls-11_presentation-2-98,.cls-12_presentation-2-98,.cls-13_presentation-2-98,.cls-14_presentation-2-98,.cls-15_presentation-2-98{stroke-width:0px;}.cls-2_presentation-2-98{isolation:isolate;opacity:.18;}.cls-2_presentation-2-98,.cls-15_presentation-2-98{fill:#68e1fd;}.cls-3_presentation-2-98{fill:url(#linear-gradient-10-presentation-2-98);}.cls-4_presentation-2-98{fill:url(#linear-gradient-4-presentation-2-98);}.cls-5_presentation-2-98{fill:url(#linear-gradient-2-presentation-2-98);}.cls-6_presentation-2-98{fill:url(#linear-gradient-3-presentation-2-98);}.cls-7_presentation-2-98{fill:url(#linear-gradient-8-presentation-2-98);}.cls-8_presentation-2-98{fill:url(#linear-gradient-9-presentation-2-98);}.cls-9_presentation-2-98{fill:url(#linear-gradient-7-presentation-2-98);}.cls-10_presentation-2-98{fill:url(#linear-gradient-5-presentation-2-98);}.cls-11_presentation-2-98{fill:url(#linear-gradient-6-presentation-2-98);}.cls-12_presentation-2-98{fill:#231f20;}.cls-13_presentation-2-98{fill:#fff;}.cls-14_presentation-2-98{fill:#ffb4a3;}</style><linearGradient id="linear-gradient-presentation-2-98" x1="658.81" y1="1626.14" x2="658.54" y2="1646.77" gradientTransform="translate(-471 1712.55) scale(1 -1)" gradientUnits="userSpaceOnUse"><stop offset="0" stop-color="#231f20" stop-opacity="0"/><stop offset="1" stop-color="#231f20"/></linearGradient><linearGradient id="linear-gradient-2-presentation-2-98" x1="677.74" y1="1659.26" x2="664.71" y2="1629.49" xlink:href="#linear-gradient-presentation-2-98"/><linearGradient id="linear-gradient-3-presentation-2-98" x1="609.96" y1="1382.46" x2="603.06" y2="1272.43" gradientTransform="translate(-496.64 1675) scale(1 -1)" xlink:href="#linear-gradient-presentation-2-98"/><linearGradient id="linear-gradient-4-presentation-2-98" x1="618.91" y1="1481.93" x2="626.69" y2="1521.51" gradientTransform="translate(-496.64 1675) scale(1 -1)" xlink:href="#linear-gradient-presentation-2-98"/><linearGradient id="linear-gradient-5-presentation-2-98" x1="605.28" y1="1515.8" x2="619.72" y2="1517.56" gradientTransform="translate(-496.64 1675) scale(1 -1)" xlink:href="#linear-gradient-presentation-2-98"/><linearGradient id="linear-gradient-6-presentation-2-98" x1="931.12" y1="1377.59" x2="987.43" y2="1377.59" gradientTransform="translate(-496.64 1675) scale(1 -1)" xlink:href="#linear-gradient-presentation-2-98"/><linearGradient id="linear-gradient-7-presentation-2-98" x1="782.85" y1="1299.3" x2="806.36" y2="1299.3" gradientTransform="translate(-496.64 1675) scale(1 -1)" xlink:href="#linear-gradient-presentation-2-98"/><linearGradient id="linear-gradient-8-presentation-2-98" x1="751.39" y1="1337.57" x2="820.02" y2="1337.57" gradientTransform="translate(-496.64 1675) scale(1 -1)" xlink:href="#linear-gradient-presentation-2-98"/><linearGradient id="linear-gradient-9-presentation-2-98" x1="773.99" y1="1348.88" x2="846.08" y2="1348.88" gradientTransform="translate(-496.64 1675) scale(1 -1)" xlink:href="#linear-gradient-presentation-2-98"/><linearGradient id="linear-gradient-10-presentation-2-98" x1="813.95" y1="1377.59" x2="871.43" y2="1377.59" gradientTransform="translate(-496.64 1675) scale(1 -1)" xlink:href="#linear-gradient-presentation-2-98"/></defs><path id="background_presentation-2-98" class="cls-2_presentation-2-98 targetColor" d="M10.14,230.74c-8.43,49.52,7.82,104.24,46.92,135.84,36.3,29.29,85.55,35.38,132.02,39.24,70.65,5.91,145.05,8.67,208.86-22.23,13.94-6.73,27.36-15.08,42.36-19,8.58-2.26,17.87-3.21,24.76-8.73,6.89-5.52,9.81-14.24,12.04-22.66,7.46-28.71,7.86-61.97-10.77-85.05-21.89-27.13-62.29-31.41-88.13-54.78-13.11-11.87-21.65-27.92-33.55-40.98-37.13-40.8-98.54-45.52-153.64-47.46-44.6-1.55-90.63-15.49-123.21,18.84-28.3,29.81-50.98,65.78-57.66,106.98Z" style="fill: rgb(255, 85, 22);"/><g id="camera_presentation-2-98"><rect class="cls-15_presentation-2-98 targetColor" x="179.4" y="77.91" width="16.04" height="6.93" style="fill: rgb(255, 85, 22);"/><rect class="cls-15_presentation-2-98 targetColor" x="186.23" y="66.56" width="2.82" height="13.83" style="fill: rgb(255, 85, 22);"/><rect class="cls-1_presentation-2-98" x="186.23" y="66.56" width="2.82" height="13.83"/><rect class="cls-15_presentation-2-98 targetColor" x="186.51" y="46.27" width="14.95" height="33.17" transform="translate(61.95 218.25) rotate(-67.6)" style="fill: rgb(255, 85, 22);"/><polygon class="cls-5_presentation-2-98" points="205.48 74.12 192.43 68.9 197.06 57.45 210.11 62.67 205.48 74.12"/><circle class="cls-15_presentation-2-98 targetColor" cx="202.85" cy="66.36" r="2.85" style="fill: rgb(255, 85, 22);"/></g><g id="plant_presentation-2-98"><path class="cls-15_presentation-2-98 targetColor" d="M76.52,310.44c-.63-3.43,0-8.13,3.4-8.72,2.22-.38,4.21,1.35,5.76,2.98,7.3,7.61,13.9,15.86,19.71,24.66-3.92-10.83-6.69-22.04-8.29-33.44-.53-3.8-.87-7.91.97-11.29,1.84-3.38,6.74-5.3,9.68-2.81,1.62,1.37,2.16,3.61,2.62,5.68l4.5,20.35c.18-8.23-2.45-16.32-2.28-24.53.17-8.2,4.15-17.48,12.15-19.43,1.8,20.7,1.2,41.53-1.78,62.09,3.07-3.52,4.24-8.25,6.45-12.37,2.21-4.12,6.34-7.97,10.95-7.19.99,9.39-4.45,18.11-9.68,25.99,2.45-2.31,5.19-4.71,8.58-5.31s7.36,1.46,7.6,4.91c.25,3.45-3.1,5.68-6,7.36l-23.42,13.42c-.95.63-2.02,1.05-3.14,1.23-1.35,0-2.66-.37-3.8-1.09-15.8-8.38-30.76-24.7-33.99-42.47Z" style="fill: rgb(255, 85, 22);"/><path class="cls-6_presentation-2-98" d="M76.52,310.44c-.63-3.43,0-8.13,3.4-8.72,2.22-.38,4.21,1.35,5.76,2.98,7.3,7.61,13.9,15.86,19.71,24.66-3.92-10.83-6.69-22.04-8.29-33.44-.53-3.8-.87-7.91.97-11.29,1.84-3.38,6.74-5.3,9.68-2.81,1.62,1.37,2.16,3.61,2.62,5.68l4.5,20.35c.18-8.23-2.45-16.32-2.28-24.53.17-8.2,4.15-17.48,12.15-19.43,1.8,20.7,1.2,41.53-1.78,62.09,3.07-3.52,4.24-8.25,6.45-12.37,2.21-4.12,6.34-7.97,10.95-7.19.99,9.39-4.45,18.11-9.68,25.99,2.45-2.31,5.19-4.71,8.58-5.31s7.36,1.46,7.6,4.91c.25,3.45-3.1,5.68-6,7.36l-23.42,13.42c-.95.63-2.02,1.05-3.14,1.23-1.35,0-2.66-.37-3.8-1.09-15.8-8.38-30.76-24.7-33.99-42.47Z"/><rect class="cls-15_presentation-2-98 targetColor" x="98.19" y="351.47" width="31.85" height="30.95" style="fill: rgb(255, 85, 22);"/></g><g id="presentation_presentation-2-98"><rect class="cls-15_presentation-2-98 targetColor" x="79.81" y="84.03" width="220.76" height="150.51" style="fill: rgb(255, 85, 22);"/><path class="cls-12_presentation-2-98" d="M146.57,157.24c-1.12-1.23,3.13-.44,2.45-1.91-3.52-7.09-4.55-15.24-8.28-22.22-.59-1.09-1.23-2.15-1.77-3.25,1.21-.74,2.32-1.65,3.29-2.69,1.75-1.82,3.33-3.79,4.72-5.9.21.21.55.36.75.66,11.79,18.1-1.1,32.52-1.17,35.31Z"/><path class="cls-13_presentation-2-98" d="M126.21,184.78c7.55-.12,15.66.48,21.63,5.11,4.28,3.34,6.9,8.34,9.08,13.32,3.88,8.9,6.72,18.22,8.46,27.78.17.93,3.18,2.76,2.33,3.19-.29.15-4.67.54-5,.55-25.3.78-49.53.56-74.81,1.34-.55.08-1.1-.02-1.58-.29-.43-.4-.7-.94-.76-1.52-2.34-9.46-4.6-19.18-2.86-28.72.26-1.78.85-3.5,1.72-5.08,2.04-3.41,5.41-4.4,8.66-6.22,2.98-1.68,5.56-3.78,8.73-5.15,7.65-3.3,16.15-4.17,24.4-4.3Z"/><path class="cls-14_presentation-2-98" d="M116.08,165.53c-1.14,2.99-.91,6.3-.65,9.49l1.46,18.4c-.12,1.7.94,3.27,2.58,3.78,3.48,1.89,7.25,3.68,11.21,3.45,3.96-.23,8.04-2.96,8.41-6.89.23-2.6-1.13-5.06-2.71-7.14-1.58-2.07-3.46-3.99-4.51-6.36-1.73-3.94-.97-8.45-1.3-12.73-.05-2.06-.69-4.07-1.86-5.76-3.57-4.54-10.93-.64-12.62,3.78Z"/><path class="cls-4_presentation-2-98" d="M122.57,180.89c2.48,2.46,5.48,4.33,8.77,5.49.74.4,1.63.36,2.33-.11.75-.74.21-1.99-.32-2.91-1.36-2.4-2.34-4.99-2.91-7.69-.14-1.32-.62-2.59-1.37-3.68-.45-.47-.97-.86-1.55-1.17-2.45-1.42-9.06-4.91-10.9-.91-1.52,3.23,3.85,8.89,5.95,10.96Z"/><path class="cls-14_presentation-2-98" d="M148.51,151.45c.59,3.57.71,7.2.34,10.8-.79,5.32-3.62,10.12-7.89,13.39-3.75,3.02-8.67,4.16-13.37,3.1-6.01-1.66-9.81-7.36-12.71-12.96-3.19-6.13-5.91-12.68-6.62-19.62-.71-6.94.77-14.24,5.22-19.55,7.29-8.7,20.24-9.84,28.94-2.55.76.64,1.48,1.33,2.14,2.07,4.28,4.87,3.15,18.87,3.94,25.31Z"/><path class="cls-12_presentation-2-98" d="M146.99,121.27c-1.41,2.11-3,4.08-4.77,5.9-.97,1.04-2.08,1.94-3.29,2.69-4.21,2.65-9.43,3.75-13.85,5.92-1.37.58-2.57,1.5-3.5,2.67-1.95,2.81-.91,7.1-3.29,9.55-.48.4-.89.87-1.23,1.4-.22.61-.26,1.27-.13,1.91.8,6.85.83,13.78.1,20.64-2.85-2.99-7.06-4.24-10.25-6.88-6.43-5.29-7.25-14.72-7.36-23.02-.23-4.13.21-8.27,1.3-12.26,1.23-3.94,4.02-7.6,7.92-9,.6-.17,1.17-.42,1.7-.75.64-.62,1.12-1.38,1.4-2.22,4.16-9.09,15.15-11.65,24.06-8.68,3.68,1.23,7.6,3.53,9.22,7.25.31.73.55,1.48.71,2.26.92-.27,1.66-.29,1.9.15.25.44-.02,1.41-.66,2.48Z"/><rect class="cls-13_presentation-2-98" x="176.19" y="138.46" width="94.91" height="70"/><path class="cls-14_presentation-2-98" d="M224.55,207.22c-.06.51-.35.96-.78,1.23-3.32,2.69-7.14,4.71-11.23,5.94-1.91.58-3.58.88-4.55,2.67-.76,1.76-1.37,3.57-1.83,5.43-1.23,3.73-2.8,7.34-4.7,10.78-.23.43-.48.86-.75,1.23h-19.88c.32-.6.73-1.13,1.23-1.59,3-3.17,5.62-6.68,7.81-10.45.27-.45.53-.91.78-1.37.85-1.48,1.63-3,2.38-4.55s1.56-5.13,2.88-6.29c1.62-1.45,4.33-.93,6.28-.88,3.08.1,6.16-.22,9.15-.94,3.9-.98,7.74-2.98,11.72-2.37.64.15,1.45.49,1.48,1.18Z"/><rect class="cls-15_presentation-2-98 targetColor" x="186.83" y="153.29" width="7.87" height="43.83" style="fill: rgb(255, 85, 22);"/><rect class="cls-15_presentation-2-98 targetColor" x="199.96" y="167.54" width="7.87" height="29.58" style="fill: rgb(255, 85, 22);"/><rect class="cls-15_presentation-2-98 targetColor" x="213.68" y="162.46" width="7.87" height="34.66" style="fill: rgb(255, 85, 22);"/><rect class="cls-15_presentation-2-98 targetColor" x="227.84" y="167.54" width="7.87" height="29.58" style="fill: rgb(255, 85, 22);"/><path class="cls-14_presentation-2-98" d="M113,151.89c-.53-.04-1.05.03-1.55.22-1.1.57-1.85,1.64-2.01,2.87-.49,3.2.72,6.42,3.2,8.5.81.8,1.83,1.37,2.94,1.63,1.14.25,2.32-.13,3.09-1.01.65-1.08.87-2.37.63-3.61-.37-4.01-1.52-8.36-6.3-8.61Z"/><path class="cls-10_presentation-2-98" d="M115.48,158.38c-.27-.68-.58-1.35-.92-2-.19-.27-.41-.51-.66-.72-.39-.43-.98-.65-1.56-.58-.38.12-.69.42-.82.8-.14.39-.19.81-.13,1.23.11,1.56.82,3.01,1.99,4.05.26.24.56.44.88.59.5.16,1.03.23,1.56.2.18.02.37.02.55,0,.71-.38,1.03-1.22.76-1.97-.32-.75-1.25-.85-1.64-1.58Z"/></g><g id="table_presentation-2-98"><rect class="cls-15_presentation-2-98 targetColor" x="161.79" y="283.62" width="261.01" height="5.51" style="fill: rgb(255, 85, 22);"/><rect class="cls-15_presentation-2-98 targetColor" x="156.45" y="290.56" width="70.98" height="89.19" style="fill: rgb(255, 85, 22);"/></g><g id="character_2_presentation-2-98"><path class="cls-14_presentation-2-98" d="M368.54,326.58c.64.58,21.57,48.86,21.82,51.61.22,2.45-1.72,4.38-3.23,6.29,1.95-.36,8.25-3.04,9.68-4.43.47-.39.81-.92.98-1.51.08-.57.02-1.15-.17-1.69-1.23-4.46-8.01-34.24-8.98-39.98-.3-2.37-.88-4.7-1.72-6.94-.84-2.26-2.43-4.17-4.5-5.41-2.12-1.22-4.76-1.15-6.81.2-1.32-.07-5.83,1.4-7.08,1.86Z"/><path class="cls-14_presentation-2-98" d="M400.45,335.72c5.27,11.94,6.86,25.2,11.25,37.5.33.75.5,1.55.52,2.37-.09.74-.35,1.45-.77,2.07-1.28,2.08-3.2,3.69-5.48,4.57.38-7.36-3.2-14.19-6.67-20.64l-4.61-8.58c-1.65-2.92-3.12-5.94-4.41-9.04-.64-1.58-1.17-3.21-1.64-4.84-1.02-3.41-4.32-11.42,1.43-12.34,5.24-.8,8.63,4.93,10.4,8.93Z"/><path class="cls-14_presentation-2-98" d="M388.16,278.29c-3.25.23-6.51-.43-9.81-.17-3.3.26-6.73,1.8-7.86,4.91,1.85,1.7,4.68,1.62,7.19,1.39,6.13-.58,19.89-.18,26.04-1.17,2.45-.38-2.7-1.96-.48-2.97,1-.33,1.8-1.09,2.2-2.07-4.53-4.26-12.04-.27-17.27.09Z"/><path class="cls-12_presentation-2-98" d="M445.46,283.82l1.01,24.7c.11,2.54.17,5.22-1.12,7.36-2.28,3.88-7.58,4.4-12.07,4.49l-30.34.58c-2.2-.11-4.4.23-6.46.99-2,.9.52,5.03.64,7.22,0,.82-3.9-.37-4.51.2-.47.32-1.05.44-1.61.34l-15-.8c-1.32,0-2.63-.22-3.88-.67-3-1.3-4.22-4.83-5.13-7.97-1.25-3.71-1.96-7.57-2.11-11.48,0-3.9,1.35-7.97,4.34-10.47,3.59-3.02,8.69-3.2,13.38-3.23l30.01-.21c.92.12,1.84-.15,2.55-.74.61-.7.55-1.78,1.09-2.53.62-.69,1.46-1.12,2.38-1.23l16.86-3.74c1.75-.52,3.59-.65,5.4-.37,1.83.33,3.23,1.83,3.43,3.68"/><path class="cls-14_presentation-2-98" d="M412.41,212.95c-.27.52-.5,1.05-.7,1.59-.2.68-.44,1.34-.72,1.99-.55.73-.81,1.63-.74,2.54.23,1.23,1.31,1.95,2.17,2.78.89.84,1.62,1.84,2.16,2.94.66,1.4,1.09,3.05,2.38,3.91,1.72,1.15,4.16.37,5.97,1.36,2.65,1.45,1.39,6.98,4.33,7.04,2.51.03,5-.39,7.36-1.23,1.14-.29,2.15-.98,2.82-1.95.98-1.77-.21-3.9-.98-5.78-3.18-7.68.76-17.23-3.45-24.39-1.43-2.4-3.63-4.24-6.24-5.21-3.37-1.31-7.17-.77-10.04,1.41-3.04,2.45-1.72,6.65-2.94,9.97-.4,1.03-.86,2.04-1.37,3.02Z"/><path class="cls-12_presentation-2-98" d="M415.56,192.91c-2.95,4.23-1.91,10.06,2.32,13.01.25.17.5.33.77.48,2.27,1.23,5.25,1.78,6.46,4.06.5,1.41.81,2.88.9,4.37.16.78.65,1.7,1.46,1.64,1.32-.11,1.23-2.58,2.51-2.85,1.36,1.26,1.44,3.39.18,4.75-.21.22-.44.41-.7.57-.4.22-.93.47-.91.92s.58.63.98.83c1.83.98,1.23,3.97,2.78,5.41.83.66,1.89.94,2.94.8,2.93-.31,5.56-1.91,7.2-4.35,1.61-2.44,2.46-5.3,2.45-8.22-.08-1.06.07-2.13.44-3.13.4-1.04,1.54-1.58,2.6-1.23-.71,3.68-1.42,7.44-.45,11.04,1.18,4.18,4.47,7.44,8.66,8.58-1.05-1.78-1.64-3.79-1.72-5.85,0-1.97.24-3.93.71-5.85l1.63-8.11c.58-2.32.86-4.71.83-7.1-.03-2.42-.97-4.74-2.64-6.5-1.73-1.75-4.36-2.23-6.6-1.23-1.65.99-2.76,2.67-3.04,4.57-.26,1.88-.24,3.78.06,5.65-2.63-2.74-5.06-5.67-7.27-8.76-1.18-2.02-2.81-3.74-4.76-5.03-2.33-1.23-5.13-1.08-7.76-.88-3.68.27-7.28-.38-10.06,2.38Z"/><path class="cls-15_presentation-2-98 targetColor" d="M438.45,234.13c-1.89.1-3.79.29-5.65.58-1.52.18-3.01.59-4.4,1.23-1.55.82-2.9,1.99-3.92,3.41-4.17,5.49-4.66,12.82-6.46,19.47-.46,1.96-1.25,3.83-2.34,5.52-2.53,3.61-6.98,5.29-11.23,6.39-1.89.48-3.97,1.03-4.99,2.67-.53,1-.79,2.13-.76,3.26-.11,2.45.28,5.37,2.45,6.49.75.33,1.55.52,2.37.56,4.72.45,9.48.06,14.07-1.15.9,1.23,0,3.03.6,4.41.6,1.39,2.55,1.69,4.13,1.73,6.56.1,13.12-.31,19.62-1.23.72-.06,1.42-.26,2.06-.59.97-.77,1.63-1.87,1.86-3.09,2.58-9.29,3.61-18.94,3.07-28.56-.07-4.48-.67-8.93-1.8-13.27-.7-2.45-1.79-4.99-3.94-6.36-2.38-1.51-5.43-1.23-8.24-.93" style="fill: rgb(255, 85, 22);"/><path class="cls-12_presentation-2-98" d="M398.83,387.26c0,.6-.18,1.39-.78,1.42s-.88-.69-.92-1.23,0-1.29-.53-1.58c-.53-.29-1.23.23-1.82.64-3.61,2.61-13.56,3.84-18.06,3.73-1.39-3.74,7.57-4.91,9.63-5.97,1.66-.82,3.43-1.41,5.03-2.35,1.59-.94,2.71-2.72,4.33-3.14,3.65-.94,3.16,6.39,3.13,8.49Z"/><path class="cls-12_presentation-2-98" d="M415.31,384.61c.13.55.11,1.13-.06,1.67-.21.54-.82.81-1.36.6,0,0,0,0-.01,0-.06-.82-.28-1.62-.65-2.35-.09-.21-.25-.4-.44-.53-.55-.29-1.15.31-1.51.83-.61,1.1-1.54,1.99-2.67,2.55-.7.22-1.43.33-2.17.32l-3.79.12c-.12,0-8.9,1.12-9.01,1.05s-.77-.9,1.82-2.75c1.89-1.35,10.71-7.27,10.71-7.27-1.36,3.68,4.05-1.53,5.06-1.96,4.02-1.66,3.7,5.19,4.1,7.71Z"/><path class="cls-12_presentation-2-98" d="M395.03,338.99c1.67.91,3.58,1.3,5.47,1.12h33.53c2.15.15,4.31-.16,6.33-.91,1.67-.89,3.18-2.07,4.45-3.47,5.93-5.77,12.43-10.93,19.4-15.4.46-.23.83-.6,1.05-1.05.09-.26.12-.53.1-.8-.21-3.68-4.17-6.22-7.86-6.34-3.69-.12-7.21,1.43-10.71,2.64-16.22,5.62-35.26,4.26-49.05,14.57-2.49,1.85-6.84,6.78-2.71,9.65Z"/><path class="cls-12_presentation-2-98" d="M437.49,335.71c-4.11-20.9-1.26-42.57,8.09-61.7,3.14-6.36,7.55-12.85,14.36-14.85,3.15-.93,6.51-.78,9.75-1.34,6.3-1.07,12.1-4.73,18.49-4.91.62-.08,1.25.09,1.74.48.32.38.51.85.54,1.35.46,2.78.43,5.62-.1,8.39-.96,5.08-3.5,9.69-5.59,14.41-5.28,11.9-7.9,24.81-7.68,37.82.15,1.59,0,3.19-.47,4.72-.63,1.41-1.57,2.67-2.75,3.68-8.58,8.29-19.89,13.02-30.93,17.57-.81.42-1.72.62-2.64.58-1.2-.29-2.23-1.06-2.85-2.12-2.46-3.48-3.46-7.78-2.8-11.98"/><path class="cls-11_presentation-2-98" d="M437.49,335.71c-4.11-20.9-1.26-42.57,8.09-61.7,3.14-6.36,7.55-12.85,14.36-14.85,3.15-.93,6.51-.78,9.75-1.34,6.3-1.07,12.1-4.73,18.49-4.91.62-.08,1.25.09,1.74.48.32.38.51.85.54,1.35.46,2.78.43,5.62-.1,8.39-.96,5.08-3.5,9.69-5.59,14.41-5.28,11.9-7.9,24.81-7.68,37.82.15,1.59,0,3.19-.47,4.72-.63,1.41-1.57,2.67-2.75,3.68-8.58,8.29-19.89,13.02-30.93,17.57-.81.42-1.72.62-2.64.58-1.2-.29-2.23-1.06-2.85-2.12-2.46-3.48-3.46-7.78-2.8-11.98"/><polygon class="cls-15_presentation-2-98 targetColor" points="395.03 338.99 378.31 388.75 383.38 388.75 400.5 340.11 395.03 338.99" style="fill: rgb(255, 85, 22);"/><polygon class="cls-15_presentation-2-98 targetColor" points="431 339.78 445.53 388.42 452.62 388.42 437.47 339.88 431 339.78" style="fill: rgb(255, 85, 22);"/><polygon class="cls-15_presentation-2-98 targetColor" points="465.79 330.65 482.68 385.37 476.59 385.37 459.71 333.7 465.79 330.65" style="fill: rgb(255, 85, 22);"/></g><g id="character_1_presentation-2-98"><path class="cls-12_presentation-2-98" d="M309.72,376.77c.05.56-.03,1.12-.25,1.64-.7,1.02-1.82,1.68-3.05,1.79l-.92-1.29c-2.39,2.23-6.02,2.29-9.28,2.17-2.86-.1-5.7-.25-8.58-.39-.48.05-.96-.13-1.3-.48-.16-.32-.2-.69-.1-1.03.57-2.76,2.83-4.85,5.62-5.21,2.18-.23,4.43.66,6.57.18,2.8-.63,4.84-3.8,7.76-3.86s3.46,4.23,3.53,6.48Z"/><path class="cls-9_presentation-2-98" d="M309.72,376.77c.05.56-.03,1.12-.25,1.64-.7,1.02-1.82,1.68-3.05,1.79l-.92-1.29c-2.39,2.23-6.02,2.29-9.28,2.17-2.86-.1-5.7-.25-8.58-.39-.48.05-.96-.13-1.3-.48-.16-.32-.2-.69-.1-1.03.57-2.76,2.83-4.85,5.62-5.21,2.18-.23,4.43.66,6.57.18,2.8-.63,4.84-3.8,7.76-3.86s3.46,4.23,3.53,6.48Z"/><path class="cls-12_presentation-2-98" d="M269.92,307.94c-3.98,1.06-7.8,2.69-11.32,4.83-1.01.65-1.9,1.48-2.6,2.45-.92,1.49-1.41,3.21-1.39,4.97-.28,9.49,6.84,17.39,13.49,24.16l21.9,22.26c2.53,2.58,5.16,5.21,8.51,6.54,3.35,1.32,7.63,1.02,9.98-1.72-7.69-9.75-15.17-19.66-22.42-29.75-.61-.62-.88-1.5-.72-2.35.4-1.12,1.94-1.23,3.13-1.07,11.91.84,23.49-4.19,30.99-13.49,2.37-2.99,4.32-6.74,3.59-10.5-.64-3.32-3.26-5.91-6.06-7.82-15.26-10.46-31.44-3.51-47.09,1.5Z"/><path class="cls-7_presentation-2-98" d="M270.05,307.95c-3.98,1.07-7.79,2.69-11.32,4.83-1.01.65-1.9,1.48-2.6,2.45-.91,1.47-1.39,3.17-1.37,4.91-.29,9.49,6.84,17.39,13.49,24.16l21.9,22.26c2.54,2.56,5.16,5.2,8.51,6.54,3.35,1.34,7.64,1.02,9.98-1.72-7.68-9.76-15.15-19.68-22.41-29.75-.61-.62-.88-1.5-.74-2.35.4-1.12,1.95-1.17,3.13-1.07,11.92.85,23.49-4.19,30.99-13.49,2.37-3,4.33-6.76,3.61-10.5-.65-3.34-3.27-5.92-6.13-7.82-15.21-10.41-31.35-3.45-47.04,1.56Z"/><path class="cls-12_presentation-2-98" d="M279.05,338.99c1.67.91,3.58,1.3,5.47,1.12h33.53c2.15.15,4.31-.16,6.33-.91,1.67-.89,3.17-2.07,4.44-3.47,5.94-5.77,12.44-10.93,19.41-15.4.48-.24.87-.63,1.1-1.1.09-.26.12-.53.1-.8-.21-3.68-4.17-6.22-7.86-6.34s-7.21,1.43-10.71,2.64c-16.22,5.62-35.26,4.26-48.99,14.57-2.6,1.9-6.95,6.83-2.82,9.7Z"/><path class="cls-8_presentation-2-98" d="M279.05,338.99c1.67.91,3.58,1.3,5.47,1.12h33.53c2.15.15,4.31-.16,6.33-.91,1.67-.89,3.17-2.07,4.44-3.47,5.94-5.77,12.44-10.93,19.41-15.4.48-.24.87-.63,1.1-1.1.09-.26.12-.53.1-.8-.21-3.68-4.17-6.22-7.86-6.34s-7.21,1.43-10.71,2.64c-16.22,5.62-35.26,4.26-48.99,14.57-2.6,1.9-6.95,6.83-2.82,9.7Z"/><path class="cls-12_presentation-2-98" d="M273.88,310.57l-23.09,11.54c-3.61,1.65-7.03,3.68-10.2,6.06-1.67.89-2.33,2.94-1.48,4.64,3.51,10.76,13.49,17.87,22.85,24.21l11.32,7.66,18.82,12.74c1.37.93,2.92,1.9,4.55,1.62,2.37-.39,3.56-3.32,2.97-5.65-.59-2.33-2.38-4.11-4.1-5.78l-17.45-17.01c-4.16-4.05-8.39-8.19-11.04-13.34,12.55-4.91,26.24-5.79,39.4-8.69,3.19-.5,6.24-1.7,8.9-3.53,2.54-1.97,4.24-5.35,3.36-8.45-.88-2.3-2.52-4.22-4.66-5.43-3.24-2.33-7.06-3.74-11.04-4.07-2.67-.15-5.33.39-8,.25-2.37-.13-4.01-1.45-6.13-1.77-4.82-.72-10.84,2.94-14.99,5.02Z"/><path class="cls-14_presentation-2-98" d="M270.93,216.21c-.76.96-1.96,1.97-1.5,3.09.26.6.93.9,1.46,1.29,1.32,1.18,2.13,2.82,2.24,4.59.12,1.75.54,3.46,1.23,5.08.81,1.55,2.67,2.72,4.3,2.1.97-.38,1.86-1.35,2.86-1.03.76.25,1.08,1.13,1.52,1.79,1.24,1.56,3.27,2.26,5.21,1.82,1.9-.47,3.68-1.3,5.26-2.45.7-.36,1.27-.91,1.66-1.59.23-.65.23-1.35,0-2-.55-2-2.1-3.54-3.38-5.19-2.39-3.06-3.99-6.65-4.67-10.47-.47-2.66-.59-5.64-2.45-7.55-2.56-2.6-8.11-2.04-10.76.32-2.97,2.5-.61,7.19-2.98,10.23Z"/><path class="cls-12_presentation-2-98" d="M271.28,204.94c.26.95,1.1,1.64,2.08,1.69.96.12,1.93-.07,2.88,0,2.26.15,4.21,1.67,4.91,3.83.75,2.45-.33,5.32.69,7.71.34.47,1.12.09,1.39-.43s.38-1.15.85-1.5c.77-.56,1.88.16,2.32,1.02.99,2.11.16,4.62-1.89,5.73.2.77,1.23.99,2,.81.74-.3,1.53-.48,2.33-.54,1.83.16,2.76,2.71,4.59,2.8,1.23,0,2.2-1.1,2.92-2.13l2.1-3.03c.25-.3.41-.67.45-1.05-.02-.35-.14-.7-.33-.99-1.06-2.07-1.41-4.44-1.01-6.73.52-2.8,2.15-5.4,2.01-8.24-.27-2.4-1.4-4.62-3.19-6.25-4.18-4.23-10.79-5.73-16.6-5.04-1.93.16-3.68,1.17-4.78,2.76-1.57,2.07-4.07,7.01-3.7,9.6Z"/><path class="cls-15_presentation-2-98 targetColor" d="M290.37,229.33c-1.91,1.06-3.75,2.24-5.51,3.53-.55.38-1,.87-1.34,1.45-.36.64-.36,1.42,0,2.06.61.87,1.77.42,2.65,0,4.06-2.12,8.58-2.72,12.93-3.14.62.03,1.21-.29,1.52-.83.15-.62.02-1.28-.36-1.8-2.72-4.45-6.36-3.35-9.9-1.26Z" style="fill: rgb(255, 85, 22);"/><path class="cls-15_presentation-2-98 targetColor" d="M282.58,286.7c-3.08-6.26-5.34-12.89-6.73-19.73-2.09,1.83-3.89,3.96-5.35,6.33-2.15,3.51-3.18,8.71.09,11.21-5.83,1.78-12,2.2-18.02,1.23-1.72-.12-3.34-.83-4.6-2.01-.78-1.01-1.21-2.25-1.23-3.53-.28-4.35,2.2-8.35,4.59-12.01l16.52-25.31c.56-.96,1.25-1.82,2.07-2.56,1.15-.83,2.46-1.43,3.85-1.74,10.44-3.1,21.06-5.58,31.8-7.43,1.61-.36,3.26-.47,4.91-.31,4.59.67,7.6,5,9.91,9.01,12.09,20.97,20.66,44.77,19.32,68.95-.02,1.31-.22,2.6-.61,3.85-.79,1.88-2.09,3.5-3.74,4.7-5.4,4.26-12.5,5.84-19.36,5.9-10.25.1-23.78-2.99-31.43-10.36-4.33-4.16,0-6.67,2.07-10.79,2.61-5.19-1.73-10.67-4.05-15.38Z" style="fill: rgb(255, 85, 22);"/><path class="cls-12_presentation-2-98" d="M318.68,327.9c-4.12-20.7,1.57-34.94,10.9-53.89,3.14-6.36,7.55-12.85,14.36-14.85,3.15-.93,6.51-.78,9.75-1.34,6.3-1.07,12.1-4.73,18.49-4.91.62-.08,1.25.09,1.74.48.32.38.51.85.54,1.35.46,2.78.43,5.62-.1,8.39-.96,5.08-3.5,9.69-5.59,14.41-5.29,11.9-7.91,24.8-7.68,37.82.15,1.59,0,3.19-.47,4.72-.63,1.41-1.57,2.67-2.75,3.68-8.58,8.29-19.89,13.02-30.93,17.57-.81.42-1.72.62-2.64.58-1.2-.29-2.23-1.06-2.85-2.12-2.46-3.48-3.46-7.78-2.8-11.98"/><path class="cls-3_presentation-2-98" d="M318.68,327.9c-4.12-20.7,1.57-34.94,10.9-53.89,3.14-6.36,7.55-12.85,14.36-14.85,3.15-.93,6.51-.78,9.75-1.34,6.3-1.07,12.1-4.73,18.49-4.91.62-.08,1.25.09,1.74.48.32.38.51.85.54,1.35.46,2.78.43,5.62-.1,8.39-.96,5.08-3.5,9.69-5.59,14.41-5.29,11.9-7.91,24.8-7.68,37.82.15,1.59,0,3.19-.47,4.72-.63,1.41-1.57,2.67-2.75,3.68-8.58,8.29-19.89,13.02-30.93,17.57-.81.42-1.72.62-2.64.58-1.2-.29-2.23-1.06-2.85-2.12-2.46-3.48-3.46-7.78-2.8-11.98"/><polygon class="cls-15_presentation-2-98 targetColor" points="349.81 330.65 366.7 385.37 360.62 385.37 343.73 333.7 349.81 330.65" style="fill: rgb(255, 85, 22);"/><polygon class="cls-15_presentation-2-98 targetColor" points="279.05 338.99 262.34 388.75 267.4 388.75 284.51 340.11 279.05 338.99" style="fill: rgb(255, 85, 22);"/><polygon class="cls-15_presentation-2-98 targetColor" points="315.02 339.78 329.55 388.42 336.64 388.42 321.5 339.88 315.02 339.78" style="fill: rgb(255, 85, 22);"/><path class="cls-12_presentation-2-98" d="M301.4,380.09c.05.56-.03,1.13-.23,1.66-.71,1.02-1.83,1.67-3.07,1.78l-.92-1.29c-2.38,2.23-6.02,2.29-9.28,2.18-2.86-.11-5.72-.25-8.58-.39-.49.05-.97-.13-1.3-.49-.17-.32-.21-.69-.11-1.03.57-2.75,2.83-4.84,5.62-5.2,2.18-.25,4.43.65,6.57.17,2.8-.63,4.91-3.8,7.76-3.86s3.47,4.24,3.54,6.48Z"/></g></svg>