<svg id="_89_school_outline" xmlns="http://www.w3.org/2000/svg" xmlns:xlink="http://www.w3.org/1999/xlink" viewBox="0 0 500 500" data-imageid="school-36" imageName="School" class="illustrations_image" style="width: 166px;"><defs><style>.cls-1_school-36{fill:url(#linear-gradient);}.cls-1_school-36,.cls-2_school-36,.cls-3_school-36,.cls-4_school-36,.cls-5_school-36,.cls-6_school-36,.cls-7_school-36,.cls-8_school-36,.cls-9_school-36,.cls-10_school-36,.cls-11_school-36,.cls-12_school-36,.cls-13_school-36,.cls-14_school-36,.cls-15_school-36,.cls-16_school-36,.cls-17_school-36,.cls-18_school-36,.cls-19_school-36,.cls-20_school-36,.cls-21_school-36,.cls-22_school-36,.cls-23_school-36,.cls-24_school-36,.cls-25_school-36,.cls-26_school-36,.cls-27_school-36,.cls-28_school-36,.cls-29_school-36,.cls-30_school-36,.cls-31_school-36{stroke-width:0px;}.cls-2_school-36{isolation:isolate;opacity:.18;}.cls-2_school-36,.cls-31_school-36{fill:#68e1fd;}.cls-3_school-36{fill:url(#linear-gradient-25-school-36);}.cls-4_school-36{fill:url(#linear-gradient-11-school-36);}.cls-5_school-36{fill:url(#linear-gradient-12-school-36);}.cls-6_school-36{fill:url(#linear-gradient-13-school-36);}.cls-7_school-36{fill:url(#linear-gradient-10-school-36);}.cls-8_school-36{fill:url(#linear-gradient-17-school-36);}.cls-9_school-36{fill:url(#linear-gradient-16-school-36);}.cls-10_school-36{fill:url(#linear-gradient-19-school-36);}.cls-11_school-36{fill:url(#linear-gradient-15-school-36);}.cls-12_school-36{fill:url(#linear-gradient-23-school-36);}.cls-13_school-36{fill:url(#linear-gradient-21-school-36);}.cls-14_school-36{fill:url(#linear-gradient-18-school-36);}.cls-15_school-36{fill:url(#linear-gradient-14-school-36);}.cls-16_school-36{fill:url(#linear-gradient-22-school-36);}.cls-17_school-36{fill:url(#linear-gradient-20-school-36);}.cls-18_school-36{fill:url(#linear-gradient-24-school-36);}.cls-19_school-36{fill:url(#linear-gradient-26-school-36);}.cls-32_school-36{fill:none;stroke:#68e1fd;stroke-miterlimit:10;stroke-width:1.45px;}.cls-20_school-36{fill:url(#linear-gradient-4-school-36);}.cls-21_school-36{fill:url(#linear-gradient-2-school-36);}.cls-22_school-36{fill:url(#linear-gradient-3-school-36);}.cls-23_school-36{fill:url(#linear-gradient-8-school-36);}.cls-24_school-36{fill:url(#linear-gradient-9-school-36);}.cls-25_school-36{fill:url(#linear-gradient-7-school-36);}.cls-26_school-36{fill:url(#linear-gradient-5-school-36);}.cls-27_school-36{fill:url(#linear-gradient-6-school-36);}.cls-28_school-36{fill:#231f20;}.cls-29_school-36{fill:#fff;}.cls-30_school-36{fill:#ffb4a3;}</style><linearGradient id="linear-gradient-school-36" x1="82.9" y1="1714.62" x2="79.93" y2="1387.39" gradientTransform="translate(-2.99 1883.39) scale(1 -1)" gradientUnits="userSpaceOnUse"><stop offset="0" stop-color="#000" stop-opacity="0"/><stop offset=".99" stop-color="#000"/></linearGradient><linearGradient id="linear-gradient-2-school-36" x1="395.2" y1="1725.92" x2="473.9" y2="1507.61" xlink:href="#linear-gradient-school-36"/><linearGradient id="linear-gradient-3-school-36" x1="429.19" y1="1210.58" x2="8.33" y2="2030.14" gradientTransform="translate(-2.99 1883.39) scale(1 -1)" gradientUnits="userSpaceOnUse"><stop offset=".05" stop-color="#000" stop-opacity="0"/><stop offset=".89" stop-color="#000" stop-opacity=".75"/><stop offset=".99" stop-color="#000"/></linearGradient><linearGradient id="linear-gradient-4-school-36" x1="235.33" y1="1839.86" x2="258.6" y2="1777.98" gradientTransform="translate(0 1932.07) scale(1 -1)" gradientUnits="userSpaceOnUse"><stop offset="0" stop-color="#fff" stop-opacity="0"/><stop offset=".99" stop-color="#fff"/></linearGradient><linearGradient id="linear-gradient-5-school-36" x1="243.53" y1="1633.47" x2="241.31" y2="1784.21" xlink:href="#linear-gradient-4-school-36"/><linearGradient id="linear-gradient-6-school-36" x1="239.88" y1="1784.89" x2="253.99" y2="1554.7" gradientTransform="translate(0 1932.07) scale(1 -1)" xlink:href="#linear-gradient-school-36"/><linearGradient id="linear-gradient-7-school-36" x1="229.01" y1="1830.23" x2="251.29" y2="1639.63" xlink:href="#linear-gradient-4-school-36"/><linearGradient id="linear-gradient-8-school-36" x1="198.55" y1="1666.4" x2="170.83" y2="1651.92" gradientTransform="translate(0 1932.07) scale(1 -1)" xlink:href="#linear-gradient-3-school-36"/><linearGradient id="linear-gradient-9-school-36" x1="170.59" y1="1658.21" x2="189.74" y2="1658.21" xlink:href="#linear-gradient-4-school-36"/><linearGradient id="linear-gradient-10-school-36" x1="119.7" y1="1444.5" x2="173.25" y2="1552.55" xlink:href="#linear-gradient-3-school-36"/><linearGradient id="linear-gradient-11-school-36" x1="153.81" y1="1607.84" x2="181.16" y2="1607.84" gradientTransform="translate(-2.99 1883.39) scale(1 -1)" xlink:href="#linear-gradient-4-school-36"/><linearGradient id="linear-gradient-12-school-36" x1="101.59" y1="1590.92" x2="182.45" y2="1567.15" xlink:href="#linear-gradient-3-school-36"/><linearGradient id="linear-gradient-13-school-36" x1="161.3" y1="1538.92" x2="158.08" y2="1444.37" gradientTransform="translate(-2.99 1883.39) scale(1 -1)" xlink:href="#linear-gradient-4-school-36"/><linearGradient id="linear-gradient-14-school-36" x1="173.54" y1="1641.97" x2="167.93" y2="1641.81" xlink:href="#linear-gradient-3-school-36"/><linearGradient id="linear-gradient-15-school-36" x1="96.24" y1="1558.88" x2="231.38" y2="1650.47" xlink:href="#linear-gradient-3-school-36"/><linearGradient id="linear-gradient-16-school-36" x1="187.82" y1="1632.93" x2="133.04" y2="1567.74" xlink:href="#linear-gradient-3-school-36"/><linearGradient id="linear-gradient-17-school-36" x1="163.28" y1="1631.34" x2="140.76" y2="1533.32" xlink:href="#linear-gradient-3-school-36"/><linearGradient id="linear-gradient-18-school-36" x1="406.3" y1="1679.58" x2="393.42" y2="1602.85" gradientTransform="translate(-2.99 1883.39) scale(1 -1)" xlink:href="#linear-gradient-4-school-36"/><linearGradient id="linear-gradient-19-school-36" x1="409.08" y1="1547.49" x2="418.97" y2="1674.88" gradientTransform="translate(-2.99 1883.39) scale(1 -1)" xlink:href="#linear-gradient-4-school-36"/><linearGradient id="linear-gradient-20-school-36" x1="366.91" y1="1517.36" x2="376.81" y2="1644.74" gradientTransform="translate(-2.99 1883.39) scale(1 -1)" xlink:href="#linear-gradient-4-school-36"/><linearGradient id="linear-gradient-21-school-36" x1="384.48" y1="1652.21" x2="441.91" y2="1495.28" xlink:href="#linear-gradient-school-36"/><linearGradient id="linear-gradient-22-school-36" x1="376.1" y1="1635.5" x2="455.8" y2="1561.99" gradientTransform="translate(-2.99 1883.39) scale(1 -1)" xlink:href="#linear-gradient-4-school-36"/><linearGradient id="linear-gradient-23-school-36" x1="375.35" y1="1641.34" x2="401.43" y2="1522.2" xlink:href="#linear-gradient-3-school-36"/><linearGradient id="linear-gradient-24-school-36" x1="419.66" y1="1537.07" x2="379.31" y2="1453.89" gradientTransform="translate(-2.99 1883.39) scale(1 -1)" xlink:href="#linear-gradient-4-school-36"/><linearGradient id="linear-gradient-25-school-36" x1="377" y1="1556.22" x2="402.64" y2="1551.54" xlink:href="#linear-gradient-3-school-36"/><linearGradient id="linear-gradient-26-school-36" x1="484.74" y1="1436.57" x2="340.68" y2="1567.27" xlink:href="#linear-gradient-3-school-36"/></defs><g id="background_school-36"><path class="cls-2_school-36 targetColor" d="M461.56,148.56c-1.54,28.99-8.19,57.76-7.14,86.76-28.45.75-56.56-.12-84.81,5.68-31.81,6.52-64.54,6.4-97.01,6.2-87.82-.57-175.65-1.61-263.47-3.12,3.52-15.82,8.03-31.4,13.51-46.65,11.93-33.76-5.48-74.45,14.38-105.03,34.4-53.08,118.62-42.18,171.1-38.9,29.48,1.86,59.25,3.71,88.39-1.06,18.77-3.08,61.23-10.16,63.79-10.12,28.91.53,105.89,20.44,101.27,106.25Z" style="fill: rgb(104, 225, 253);"/><path class="cls-31_school-36 targetColor" d="M482.17,391.25c-6.27,6.34-14.26,10.98-22.6,14.62-36.15,15.75-77.97,13.35-117.14,7.51-39.17-5.85-78.5-14.82-118.05-11.14-23.01,2.15-45.52,8.54-68.48,9.72-2.76.14-5.53.2-8.31.18-13.81-.12-27.42-2.54-40.72-6.12-6.89-1.84-13.71-4.01-20.44-6.32-20.26-6.96-40.68-15.85-54.45-31.41-8.08-9.14-41.76-37.24-22.86-124.21,87.82,1.52,175.64,2.56,263.47,3.12,32.47.2,65.18.32,97.01-6.21,28.29-5.75,56.36-4.93,84.81-5.67.09,2.28.21,4.57.4,6.86,1.31,16.36,5.63,24.67,14.32,38.27,8.1,12.65,16.3,25.39,21.8,39.43,9.29,23.55,9.57,52.82-8.77,71.37Z" style="fill: rgb(104, 225, 253);"/><path class="cls-31_school-36 targetColor" d="M70.56,148.44c-.41,5.02,2.03,9.8,4.41,14.25-7.85.87-13.81,9.59-11.74,17.25.33,1.21.81,2.56.19,3.64-.51.7-1.22,1.23-2.03,1.52-7.45,3.63-13.89,9.79-16.65,17.6-2.76,7.81-1.34,17.25,4.51,23.12,5.04,5.05,12.52,6.89,19.65,7.12,7.13.23,14.25-.91,21.4-.82,5.05.06,10.2.73,15.11-.47,4.91-1.2,9.7-4.91,10.15-9.95.56-6.2-5.25-10.91-10.48-14.32,5.74-4.77,7.23-12.97,3.54-19.45-2.96-4.89-8.4-7.61-13.54-10.09,3.91-1.82,5.27-7.16,3.6-11.14-1.67-3.98-5.6-6.62-9.72-7.91,2.5-1.39,5.11-2.88,6.62-5.31,1.51-2.43,1.47-6.1-.87-7.75-1.29-.96-3.12-1.11-4.05-2.4-.43-.78-.75-1.6-.96-2.46-3.47-8.89-18.61.97-19.14,7.55Z" style="fill: rgb(104, 225, 253);"/><path class="cls-31_school-36 targetColor" d="M386.14,187.04c-4.55,5.09-4.85,13.81.11,18.51-2.53,2.51-5.21,5.36-5.48,8.91-.47,6.12,6.83,10.47,12.87,9.4,6.04-1.06,10.76-5.62,15.05-10.01,4.82,5.41,12.31,7.58,19.28,5.58,2.05-.52,3.88-1.69,5.21-3.34,2.15-2.98,1.36-7.32-.84-10.27-2.2-2.94-5.52-4.79-8.73-6.6,4.96-2.05,9.01-6.84,9.02-12.2,0-5.36-4.95-10.54-10.26-9.79,5.49-3.77,6.48-12.24,2.88-17.81-3.6-5.57-10.9-8.14-17.49-7.26-7.61,1.02-15.11,7.99-13.34,15.47-4.04-2.69-10.2-1.64-12.86,2.41-2.66,4.05-.96,10.36,3.5,12.27,5.26,2.25,4.83.55,1.11,4.72Z" style="fill: rgb(104, 225, 253);"/><path class="cls-1_school-36" d="M70.56,148.44c-.41,5.02,2.03,9.8,4.41,14.25-7.85.87-13.81,9.59-11.74,17.25.33,1.21.81,2.56.19,3.64-.51.7-1.22,1.23-2.03,1.52-7.45,3.63-13.89,9.79-16.65,17.6-2.76,7.81-1.34,17.25,4.51,23.12,5.04,5.05,12.52,6.89,19.65,7.12,7.13.23,14.25-.91,21.4-.82,5.05.06,10.2.73,15.11-.47,4.91-1.2,9.7-4.91,10.15-9.95.56-6.2-5.25-10.91-10.48-14.32,5.74-4.77,7.23-12.97,3.54-19.45-2.96-4.89-8.4-7.61-13.54-10.09,3.91-1.82,5.27-7.16,3.6-11.14-1.67-3.98-5.6-6.62-9.72-7.91,2.5-1.39,5.11-2.88,6.62-5.31,1.51-2.43,1.47-6.1-.87-7.75-1.29-.96-3.12-1.11-4.05-2.4-.43-.78-.75-1.6-.96-2.46-3.47-8.89-18.61.97-19.14,7.55Z"/><path class="cls-21_school-36" d="M386.14,187.04c-4.55,5.09-4.85,13.81.11,18.51-2.53,2.51-5.21,5.36-5.48,8.91-.47,6.12,6.83,10.47,12.87,9.4,6.04-1.06,10.76-5.62,15.05-10.01,4.82,5.41,12.31,7.58,19.28,5.58,2.05-.52,3.88-1.69,5.21-3.34,2.15-2.98,1.36-7.32-.84-10.27-2.2-2.94-5.52-4.79-8.73-6.6,4.96-2.05,9.01-6.84,9.02-12.2,0-5.36-4.95-10.54-10.26-9.79,5.49-3.77,6.48-12.24,2.88-17.81-3.6-5.57-10.9-8.14-17.49-7.26-7.61,1.02-15.11,7.99-13.34,15.47-4.04-2.69-10.2-1.64-12.86,2.41-2.66,4.05-.96,10.36,3.5,12.27,5.26,2.25,4.83.55,1.11,4.72Z"/><path class="cls-31_school-36 targetColor" d="M400.78,206.92c-2.22-3.51-5.33-6.36-8.39-9.18l8.41,5.75c.43.37.98.58,1.54.61,1.68-.09,1.55-2.62.88-4.16l-8.21-18.68c5.22,4.72,9.01,10.81,10.97,17.57,2.17-2.53,4.02-5.32,5.49-8.31,1.1,4.3-2.4,8.36-3.15,12.74-.26,2.1-.18,4.22.23,6.3,1.41,9.19,3.75,18.21,6.99,26.93-8.72.47-10.15-.31-10.14-9.04,0-7.08-.75-14.42-4.61-20.52Z" style="fill: rgb(104, 225, 253);"/><path class="cls-31_school-36 targetColor" d="M242.41,263.19c-.1,3.32-1.61,6.41-3.33,9.24-9.29,15.29-25.45,26.32-31.31,43.23-4.99,14.38-1.4,30.49,4.97,44.35,6.36,13.86,9.83,28.06,16.43,41.8,28.58-.44,93.57,6.07,121.63,11.5-14.48-9.45-81.48-65.18-90.63-96.6-4.05-13.89,8.89-20.95,6.71-35.27-1.78-10.75-7.38-20.49-15.77-27.44-2.27-1.92-9.65-8.51-12.81-5.69-3.31,2.97,4.22,10.44,4.1,14.87Z" style="fill: rgb(104, 225, 253);"/><path class="cls-22_school-36" d="M242.41,263.19c-.1,3.32-1.61,6.41-3.33,9.24-9.29,15.29-25.45,26.32-31.31,43.23-4.99,14.38-1.4,30.49,4.97,44.35,6.36,13.86,9.83,28.06,16.43,41.8,28.58-.44,93.57,6.07,121.63,11.5-14.48-9.45-81.48-65.18-90.63-96.6-4.05-13.89,8.89-20.95,6.71-35.27-1.78-10.75-7.38-20.49-15.77-27.44-2.27-1.92-9.65-8.51-12.81-5.69-3.31,2.97,4.22,10.44,4.1,14.87Z"/><path class="cls-31_school-36 targetColor" d="M70.22,241.19c-.46.82-.56,1.79-.29,2.69.54,1.12,2.04,1.28,3.29,1.29h8.9c-1.79-3.39-1.52-7.46-1.21-11.28.47-5.75,1.13-11.88,4.99-16.09,2.83-3.09,7-4.67,9.88-7.67-.22-.91-1.54-.78-2.42-.43l-11.07,4.41c-2.72-4.25-2.22-9.75-1.25-14.69s2.34-10.08,1.01-14.93c-1.31,6.13-3.07,12.15-5.24,18.03l-4.79-3.65c.29,1.3.65,2.58,1.08,3.83.65,1.2,1.13,2.49,1.4,3.83.53,3.93.68,7.91.46,11.87-.32,7.8-1.93,15.5-4.74,22.79Z" style="fill: rgb(104, 225, 253);"/></g><g id="school_school-36"><polygon class="cls-31_school-36 targetColor" points="240.42 119.24 240.42 137.59 242.8 137.59 242.8 130.1 256.7 130.1 252.36 124.35 257.25 118.8 240.42 119.24" style="fill: rgb(104, 225, 253);"/><polygon class="cls-20_school-36" points="240.42 119.15 240.42 137.51 242.8 137.51 242.8 130.01 256.7 130.01 252.36 124.26 257.25 118.72 240.42 119.15"/><rect class="cls-31_school-36 targetColor" x="140.93" y="177.56" width="202.67" height="69.51" style="fill: rgb(104, 225, 253);"/><rect class="cls-26_school-36" x="140.93" y="177.56" width="202.67" height="69.51"/><polygon class="cls-31_school-36 targetColor" points="143.53 156.05 130.78 179.51 352.93 179.51 339.03 156.93 143.53 156.05" style="fill: rgb(104, 225, 253);"/><polygon class="cls-27_school-36" points="143.53 156.05 130.78 179.51 352.93 179.51 339.03 156.93 143.53 156.05"/><polygon class="cls-31_school-36 targetColor" points="270.97 247.29 211.88 247.29 211.88 168.79 241.71 140.85 270.97 168.79 270.97 247.29" style="fill: rgb(104, 225, 253);"/><polygon class="cls-25_school-36" points="270.97 247.29 211.88 247.29 211.88 168.79 241.71 140.85 270.97 168.79 270.97 247.29"/><polygon class="cls-31_school-36 targetColor" points="205.01 169.95 207.61 173 241.71 140.85 274.95 172.78 277.99 170.17 241.5 133.46 205.01 169.95" style="fill: rgb(104, 225, 253);"/><rect class="cls-29_school-36" x="225.5" y="202.39" width="31.28" height="44.89"/><rect class="cls-31_school-36 targetColor" x="227.93" y="186.68" width="27.69" height="9.23" style="fill: rgb(104, 225, 253);"/><circle class="cls-31_school-36 targetColor" cx="241.88" cy="166.65" r="10.8" style="fill: rgb(104, 225, 253);"/><rect class="cls-31_school-36 targetColor" x="149.18" y="186.03" width="23.02" height="6.62" style="fill: rgb(104, 225, 253);"/><rect class="cls-31_school-36 targetColor" x="179.59" y="186.03" width="23.02" height="6.62" style="fill: rgb(104, 225, 253);"/><rect class="cls-31_school-36 targetColor" x="281.68" y="186.03" width="23.02" height="6.62" style="fill: rgb(104, 225, 253);"/><rect class="cls-31_school-36 targetColor" x="312.1" y="186.03" width="23.02" height="6.62" style="fill: rgb(104, 225, 253);"/><rect class="cls-31_school-36 targetColor" x="149.4" y="196.03" width="22.37" height="13.9" style="fill: rgb(104, 225, 253);"/><rect class="cls-31_school-36 targetColor" x="156.21" y="196.13" width="8.68" height="14.26" style="fill: rgb(104, 225, 253);"/><rect class="cls-31_school-36 targetColor" x="179.92" y="196.03" width="22.37" height="13.9" style="fill: rgb(104, 225, 253);"/><rect class="cls-31_school-36 targetColor" x="186.73" y="196.13" width="8.68" height="14.26" style="fill: rgb(104, 225, 253);"/><rect class="cls-31_school-36 targetColor" x="179.92" y="219.05" width="22.37" height="13.9" style="fill: rgb(104, 225, 253);"/><rect class="cls-31_school-36 targetColor" x="186.73" y="219.16" width="8.68" height="14.26" style="fill: rgb(104, 225, 253);"/><rect class="cls-31_school-36 targetColor" x="149.07" y="219.05" width="22.37" height="13.9" style="fill: rgb(104, 225, 253);"/><rect class="cls-31_school-36 targetColor" x="155.88" y="219.16" width="8.68" height="14.26" style="fill: rgb(104, 225, 253);"/><rect class="cls-31_school-36 targetColor" x="312.86" y="219.05" width="22.37" height="13.9" style="fill: rgb(104, 225, 253);"/><rect class="cls-31_school-36 targetColor" x="319.66" y="219.16" width="8.68" height="14.26" style="fill: rgb(104, 225, 253);"/><rect class="cls-31_school-36 targetColor" x="282.01" y="219.05" width="22.37" height="13.9" style="fill: rgb(104, 225, 253);"/><rect class="cls-31_school-36 targetColor" x="288.81" y="219.16" width="8.68" height="14.26" style="fill: rgb(104, 225, 253);"/><rect class="cls-31_school-36 targetColor" x="312.86" y="195.59" width="22.37" height="13.9" style="fill: rgb(104, 225, 253);"/><rect class="cls-31_school-36 targetColor" x="319.66" y="195.7" width="8.68" height="14.26" style="fill: rgb(104, 225, 253);"/><rect class="cls-31_school-36 targetColor" x="282.01" y="195.59" width="22.37" height="13.9" style="fill: rgb(104, 225, 253);"/><rect class="cls-31_school-36 targetColor" x="288.81" y="195.7" width="8.68" height="14.26" style="fill: rgb(104, 225, 253);"/></g><g id="cloud_school-36"><path class="cls-29_school-36" d="M380.09,65.46c-5.23,3.57-8.71,9.19-9.59,15.46-.03,1.06-.36,2.08-.96,2.95-1.37,1.54-3.83.83-5.84.31-9.78-2.58-21.02,3.83-23.82,13.51-10.05.47-21.86,1.92-26.69,10.78-.88,1.44-1.28,3.12-1.13,4.79.62,4.47,6.13,6.16,10.62,6.65,10.34,1.13,20.77,1.04,31.17.96,33.09-.27,66.21-.54,99.19-3.09,1.47-.12,3.18-.37,3.89-1.67.35-.82.45-1.73.26-2.6-1.55-13.29-9.2-25.1-18.01-35.16-6.91-7.9-16.3-15.61-26.66-14.09-6.6.96-9.22,1.45-15.15-.76-5.75-2.15-12.18-1.42-17.3,1.95Z"/><path class="cls-29_school-36" d="M115.1,98.66c1.44,1.06,3.07,1.85,4.79,2.34,4.3.84,8.1-2.63,12.01-4.63,10.41-5.33,23.01-.25,33.18,5.45,1.84,1.17,3.86,2.04,5.98,2.57,2.4.46,4.87,0,7.29-.19,9.42-.81,18.74,1.92,27.8,4.68,1.54.46,3.22,1.03,4.07,2.41.96,1.59.45,3.72-.53,5.32-3.91,6.33-12.72,6.93-20.13,6.82l-133.58-2c-2.58,0-5.22-.1-7.6-1.11-5.04-2.15-7.37-7.99-5.22-13.02,2.15-5.04,7.99-7.37,13.02-5.22.39.17.77.36,1.14.58,9.13-19.17,42.93-13.27,57.76-3.98Z"/></g><g id="character_2_school-36"><polygon class="cls-23_school-36" points="191.4 265.81 180.35 288.42 172.27 280.17 178.78 262.76 189.74 264.14 191.4 265.81"/><polygon class="cls-31_school-36 targetColor" points="189.74 264.14 178.68 286.76 170.59 278.5 177.11 261.1 189.74 264.14" style="fill: rgb(104, 225, 253);"/><polygon class="cls-24_school-36" points="189.74 264.09 178.68 286.69 170.59 278.45 177.11 261.03 189.74 264.09"/><path class="cls-7_school-36" d="M167.17,373.67c-1.2,3.77-2.34,7.53-3.43,11.33-2.17,7.5-4.14,15.07-5.91,22.69-.21,1.25-.65,2.44-1.3,3.53-.18.27-.39.51-.62.74-2.76.14-5.53.2-8.31.18-13.81-.12-27.42-2.54-40.72-6.12l.12-.11c1.34-1.95,2.91-3.72,4.68-5.29,5.75-5.51,17.37-8.86,23.31-14.18,2.35-2.3,5.01-4.25,7.91-5.81,4.94-2.37,4.89-4.38,10.36-4.28.63-.05,1.25.08,1.8.39,1.16.83.7,2.64.11,3.95-.92,2.05-1.85,4.11-2.78,6.16,1.77-.1,3.42-.94,4.54-2.32,1.1-1.36,2-2.88,2.66-4.5l3.51-7.47c.57-1.45,1.43-2.77,2.51-3.88,4.52-4.14,2.17,3.12,1.57,4.98Z"/><path class="cls-30_school-36" d="M168.46,349.57c-.77,2.51-1.75,4.96-2.37,7.51-.7,2.54-.7,5.23,0,7.77.3.61.38,1.31.23,1.97-.25.58-.82.95-1.46.96-.62,0-1.23-.23-1.71-.62-1.34-1.15-2.12-2.8-2.17-4.56-.03-1.74.07-3.47.32-5.2.4-4.68-.37-9.37-.38-14.05,0-1.74.09-3.47.19-5.2.25-3.92.54-7.84.88-11.74-.07-1.09-.07-2.18,0-3.27.22-.43,1.39-.13,1.8-.37,1.74-1.04,3.39.09,5.41.42,2.17.36,1.8,2.01,1.79,3.83.05,4.87-.24,9.74-.84,14.57-.36,2.7-.93,5.36-1.7,7.98Z"/><path class="cls-30_school-36" d="M151.72,332.11c-.26,2.1-.68,4.17-.89,6.27-.62,6.13.52,12.27.96,18.4-.03.69.18,1.36.58,1.92.28.27.64.45,1.03.51,1.42.14,2.79-.59,3.48-1.84.65-1.24,1.02-2.61,1.07-4.02.38-3.67.48-7.36.57-11.05.05-.76,0-1.53-.14-2.28-.16-.64-.48-1.24-.62-1.92-.4-1.87.67-3.69,1.48-5.43.96-2.1,1.56-4.34,1.79-6.63.23-2.38.54-4.71-2.22-5.33-3.27-.75-5.75.68-6.44,3.96-.5,2.42-.32,4.98-.63,7.44Z"/><path class="cls-30_school-36" d="M180.58,260.63c1.84,2.2,2.43,5.17,2.88,7.99.69,4.17,1.27,8.36,1.73,12.56.18,1.69.31,3.56-.69,4.93-.23.35-.56.63-.96.78-.89.15-1.8-.2-2.36-.91-2.88-2.77-3.74-6.92-5.04-10.68-.96-2.68-2.15-5.28-2.88-8.02-.55-2-1.63-6.82.12-8.49,1.94-1.87,5.87.24,7.2,1.85Z"/><path class="cls-30_school-36" d="M174.6,250.63c-.29.88-.79,1.86-1.7,2.02-.59.03-1.17-.09-1.71-.34-.55-.24-1.18-.16-1.65.21-.19.28-.36.59-.49.9-.48.78-2.11,3.83-3.02,3.77-.8-.04-1.57-.25-2.28-.62-.71-.38-1.22-1.05-1.38-1.84-.13-.81.76-4.59.96-5.39.18-.86.42-1.7.72-2.53.42-.84.99-1.59,1.69-2.22,1.8-1.78,4.06-3.39,6.6-3.39.5-.02.99.09,1.44.32.42.26.77.62,1.03,1.04.4.51.72,1.07.96,1.67.08.63.02,1.26-.16,1.87-.22,1.54-.56,3.06-1.01,4.54Z"/><path class="cls-31_school-36 targetColor" d="M157.95,254.22c6.49-1.03,13.15.12,18.91,3.29.38.18.71.46.96.81.17.32.26.68.27,1.04.28,3.37-.96,6.65-1.7,9.97-.53,2.83-.85,5.7-.96,8.58l-.84,12.54c.04,1.58-.37,3.15-1.19,4.51-1.09,1.47-3.03,2.04-4.85,2.22-3.11.24-6.23-.15-9.18-1.17-2.02-.55-3.88-1.55-5.45-2.93-1.97-2.07-3.07-4.81-3.1-7.67-.03-2.82.37-5.62,1.16-8.32,1.27-5.09,2.88-10.18,2.92-15.42,0-3-.7-6.83,3.05-7.44Z" style="fill: rgb(104, 225, 253);"/><path class="cls-4_school-36" d="M157.95,254.22c6.49-1.03,13.15.12,18.91,3.29.38.18.71.46.96.81.17.32.26.68.27,1.04.28,3.37-.96,6.65-1.7,9.97-.53,2.83-.85,5.7-.96,8.58l-.84,12.54c.04,1.58-.37,3.15-1.19,4.51-1.09,1.47-3.03,2.04-4.85,2.22-3.11.24-6.23-.15-9.18-1.17-2.02-.55-3.88-1.55-5.45-2.93-1.97-2.07-3.07-4.81-3.1-7.67-.03-2.82.37-5.62,1.16-8.32,1.27-5.09,2.88-10.18,2.92-15.42,0-3-.7-6.83,3.05-7.44Z"/><path class="cls-30_school-36" d="M148.78,261.07c-1.23,1.17-2.29,2.49-3.5,3.68-1.74,1.7-3.74,3.09-5.56,4.69-1.9,1.52-3.38,3.5-4.3,5.75-.49,1.4-.57,3.12.46,4.21,1.03,1.08,2.66,1.11,4.12,1.04.89,0,1.77-.15,2.61-.46.59-.29,1.15-.67,1.64-1.11,3.78-3.1,7.34-6.45,10.67-10.03.72-.7,1.32-1.51,1.76-2.41.41-1.06.59-2.19.52-3.33,0-1.37-.07-7.09-2.11-7.13-.96,0-2.28,1.71-2.99,2.28-1.12.93-2.27,1.8-3.32,2.81Z"/><path class="cls-31_school-36 targetColor" d="M174.28,301.31c1.85,8.2,2.18,16.67.96,24.98-2.36-2.46-6.14-2.88-9.59-2.57s-6.79,1.23-10.17.83c-3.15-.37-6.24-1.87-9.37-1.31-.88.16-1.74.48-2.63.62-2.76.45-5.48-.81-8-2.05-.37-.18-.81-.43-.86-.85-.01-.28.07-.55.24-.78,1.36-2.37,3.24-4.41,5.49-5.96.96-.55,1.84-1.25,2.61-2.05.46-.62.85-1.3,1.14-2.01.71-1.48,1.31-3.01,1.79-4.57.68-2.48.76-5.09,1.31-7.59s1.75-5.06,3.98-6.35,4.79-1.05,7.15-.53c3.99.88,7.75,2.55,11.69,3.59,3.48.9,3.52,3.35,4.25,6.6Z" style="fill: rgb(104, 225, 253);"/><path class="cls-5_school-36" d="M174.28,301.31c1.85,8.2,2.18,16.67.96,24.98-2.36-2.46-6.14-2.88-9.59-2.57s-6.79,1.23-10.17.83c-3.15-.37-6.24-1.87-9.37-1.31-.88.16-1.74.48-2.63.62-2.76.45-5.48-.81-8-2.05-.37-.18-.81-.43-.86-.85-.01-.28.07-.55.24-.78,1.36-2.37,3.24-4.41,5.49-5.96.96-.55,1.84-1.25,2.61-2.05.46-.62.85-1.3,1.14-2.01.71-1.48,1.31-3.01,1.79-4.57.68-2.48.76-5.09,1.31-7.59s1.75-5.06,3.98-6.35,4.79-1.05,7.15-.53c3.99.88,7.75,2.55,11.69,3.59,3.48.9,3.52,3.35,4.25,6.6Z"/><path class="cls-28_school-36" d="M152.67,355.29c1.39-.88,3.22-.58,4.26.69.97,1.28,1.48,2.84,1.47,4.44,0,1.12.12,2.23.35,3.32.52,1.55,1.39,2.96,2.54,4.12.96,1.1,2.06,2.38,1.86,3.83s-1.67,2.43-3.12,2.7c-2.34.43-4.73-.43-6.26-2.25-2.03-2.49-1.92-5.86-1.65-8.87.16-2.42-1.78-6.13.55-7.98Z"/><path class="cls-6_school-36" d="M153.6,363.48c-.1-.81.03-1.63.36-2.38.36-.76,1.21-1.15,2.02-.96.77.38,1.23,1.18,1.18,2.03-.07.83-.09,1.67-.06,2.5.34,1.34,1.12,2.53,2.21,3.37.78.62,1.43,1.4,1.92,2.27.47.91.31,2.01-.4,2.74-.52.39-1.19.53-1.82.39-.63-.15-1.22-.43-1.74-.81-1.44-.94-2.53-2.33-3.11-3.95-.16-.7-.23-1.41-.2-2.13-.02-1.04-.32-2.05-.37-3.09Z"/><path class="cls-28_school-36" d="M166.92,369.55c-.8.23-1.64.21-2.43-.06-.72-.27-1.4-.63-2.04-1.05-.45-.3-.81-.71-1.04-1.19-.5-.71-.73-1.57-.62-2.43,0-.58-.13-2.25.58-2.52.71-.27,2.11,1.32,2.62,1.73s1.11.74,1.55.35c.44-.38.12-1.18.26-1.79,1.08-.13,2.18-.06,3.23.21.4.07.77.25,1.08.51.25.26.4.6.44.96.05,1.17-.36,2.32-1.14,3.2-.54.89-1.32,1.6-2.25,2.05l-.23.04Z"/><path class="cls-32_school-36" d="M166.13,238.07c.72.47,1.09,1.31.96,2.16-.03.19-.11.37-.24.51-.31.23-.74.2-1.02-.07-.26-.26-.47-.57-.63-.9-.23-.39-1.42-1.43-1.24-1.74.34-.58,1.75-.22,2.17.05Z"/><path class="cls-28_school-36" d="M161.36,234.33c.7-.78,1.55-1.43,2.48-1.92.45-.26.92-.47,1.42-.62.58-.14,1.17-.19,1.76-.14,2.15.11,4.21.91,5.88,2.27,1.67,1.36,2.84,3.24,3.33,5.34.15.61.21,1.23.19,1.86-.11,1.43-.7,2.78-1.68,3.83-.34.34-.66.7-.96,1.08-.37.68-.66,1.4-.87,2.15-.21.67-.59,1.28-1.08,1.78-.5.51-1.2.77-1.92.7-.17-.04-.35-.04-.53,0-.18.08-.34.2-.47.34-.53.39-1.2.51-1.83.34-.62-.18-1.22-.43-1.77-.76-.15-.09-.32-.15-.49-.16-.42,0-.72.44-1.12.57-.42.08-.85-.04-1.16-.34-.29-.29-.61-.54-.96-.76-.22-.07-.43-.17-.61-.3-.13-.13-.23-.3-.29-.48-.96-2.49.12-5.37-.67-7.91-.28-.6-.43-1.25-.45-1.92.06-.58.36-1.13.47-1.71.12-1.19.59-2.32,1.33-3.25Z"/><path class="cls-15_school-36" d="M161.36,234.33c.7-.78,1.55-1.43,2.48-1.92.45-.26.92-.47,1.42-.62.58-.14,1.17-.19,1.76-.14,2.15.11,4.21.91,5.88,2.27,1.67,1.36,2.84,3.24,3.33,5.34.15.61.21,1.23.19,1.86-.11,1.43-.7,2.78-1.68,3.83-.34.34-.66.7-.96,1.08-.37.68-.66,1.4-.87,2.15-.21.67-.59,1.28-1.08,1.78-.5.51-1.2.77-1.92.7-.17-.04-.35-.04-.53,0-.18.08-.34.2-.47.34-.53.39-1.2.51-1.83.34-.62-.18-1.22-.43-1.77-.76-.15-.09-.32-.15-.49-.16-.42,0-.72.44-1.12.57-.42.08-.85-.04-1.16-.34-.29-.29-.61-.54-.96-.76-.22-.07-.43-.17-.61-.3-.13-.13-.23-.3-.29-.48-.96-2.49.12-5.37-.67-7.91-.28-.6-.43-1.25-.45-1.92.06-.58.36-1.13.47-1.71.12-1.19.59-2.32,1.33-3.25Z"/><path class="cls-31_school-36 targetColor" d="M168.87,266.84c-.57,4.22.4,8.46,1.19,12.64,1.03,5.4,1.75,11,.47,16.3-1.28,5.29-4.95,10.41-10.22,11.94-2.99.72-6.1.72-9.09,0-2.55-.35-4.99-1.29-7.11-2.74-4.29-3.29-5.17-9.59-3.76-14.83,1.41-5.24,4.63-9.74,7.32-14.44s4.98-10.02,4.2-15.34c-.2-.95-.3-1.91-.31-2.88.39-2.62,2.83-4.42,5.45-4.03.4.06.79.17,1.16.33l2.02,4.95c.13.79.87,1.33,1.66,1.2.25-.04.49-.15.69-.31,2.32-1.07,4.34-2.71,6.71-3.67,1.91-.92,4.14-.92,6.05,0-.72,3.7-5.79,6-6.44,10.87Z" style="fill: rgb(104, 225, 253);"/><path class="cls-11_school-36" d="M168.87,266.84c-.57,4.22.4,8.46,1.19,12.64,1.03,5.4,1.75,11,.47,16.3-1.28,5.29-4.95,10.41-10.22,11.94-2.99.72-6.1.72-9.09,0-2.55-.35-4.99-1.29-7.11-2.74-4.29-3.29-5.17-9.59-3.76-14.83,1.41-5.24,4.63-9.74,7.32-14.44s4.98-10.02,4.2-15.34c-.2-.95-.3-1.91-.31-2.88.39-2.62,2.83-4.42,5.45-4.03.4.06.79.17,1.16.33l2.02,4.95c.13.79.87,1.33,1.66,1.2.25-.04.49-.15.69-.31,2.32-1.07,4.34-2.71,6.71-3.67,1.91-.92,4.14-.92,6.05,0-.72,3.7-5.79,6-6.44,10.87Z"/><path class="cls-28_school-36" d="M157.25,238.07c-2.34.73-4.11,2.64-5.56,4.61-.54.69-1,1.43-1.37,2.21-1.14,2.52-.96,5.75-3.08,7.56,1.15-.05,2.25-.51,3.09-1.3-1.36,1.6-3.03,2.9-4.91,3.83.3.61.94.99,1.62.96.67-.03,1.32-.2,1.92-.5,3.59-.98,6.44-3.7,7.6-7.24-.44.88-.8,1.79-1.08,2.73-.16.3-.16.66,0,.96.35.43,1.05,0,1.43-.38,1.92-2.15,3.21-4.89,5.49-6.65.96-.77,2.28-1.5,2.44-2.75.48-3.69-5.14-4.82-7.59-4.05Z"/><path class="cls-9_school-36" d="M158.36,266.67c2.19.49,4.18,1.65,5.69,3.31,1.42,1.86,2.28,4.1,2.45,6.44.29,2.31.23,4.66.5,6.97.24,2.04.72,4.05.81,6.09.2,2.06-.31,4.12-1.45,5.85-2.19-2.49-2.32-6.1-2.88-9.37-.52-3.56-1.73-6.99-3.57-10.09-1.08-1.78-2.55-3.54-4.57-4.05-1.09-.17-2.2-.27-3.31-.29-.68-.08-1.5-.37-1.59-1.05-.01-.3.05-.6.19-.86.5-1.24.81-3.12,2.23-3.56,1.42-.44,4.04.27,5.47.62Z"/><path class="cls-8_school-36" d="M155.78,287.59c-.4-1.39-1.19-2.63-2.28-3.58-2.13-1.5-5.04-.42-7.35.76-1,.44-1.91,1.05-2.7,1.81-1.01,1.23-1.64,2.72-1.83,4.3-.31,1.68-.45,3.38-.43,5.09-.04,1.05.16,2.09.58,3.05.71,1.18,1.79,2.1,3.07,2.62,3.47,1.62,7.42,1.86,11.06.67,1.08-.29,2.04-.88,2.79-1.71,1.31-1.66-.06-3.98-.47-5.75-.63-2.48-1.44-4.91-2.43-7.27Z"/></g><g id="character_1_school-36"><path class="cls-30_school-36" d="M391.36,240.79c.41-1.58,1.04-3.11,1.47-4.69.22-.6.24-1.25.05-1.86-.25-.47-.63-.86-1.09-1.12-2.71-1.8-5.97-2.55-9.19-2.1-.85.09-1.66.37-2.39.81-.95.73-1.61,1.78-1.84,2.95-.23,1.17-.35,2.35-.37,3.54-.22,1.59-.22,3.2,0,4.79.25,1.6,1.35,2.95,2.88,3.51.16.03.32.08.48.13.96.37,1.06,1.66,1.86,2.23.44.27.96.41,1.48.39,2.31.22,4.54-.9,5.75-2.88.3-.64.44-1.34.4-2.04.04-1.24.21-2.48.53-3.68Z"/><path class="cls-31_school-36 targetColor" d="M372.36,255.79l2.88-2.68c1.55-1.61,3.37-2.93,5.38-3.89,2.06-.72,4.24-1.02,6.41-.86,3.17.08,6.33.44,9.48.81,4.09.47,7.83,2.46,11.34,4.63-.79,9.49-.95,19.02-.48,28.54.41,8.15,1.28,16.3.79,24.45.16,1.2-.67,2.31-1.88,2.47-.31.04-.62.02-.91-.07-5.03,0-10.04-.96-15.07-.96-4.76,0-9.48.9-13.91,2.66-.27.15-.59.19-.89.12-.26-.13-.47-.35-.59-.62-1.05-1.63-1.84-3.41-2.35-5.27-.33-2-.33-4.04,0-6.04l.44-4.18c.08-1.12.28-2.23.6-3.31.56-1.32,1.2-2.6,1.92-3.83,1.19-2.72,1.84-5.65,1.92-8.63.37-4.83.42-9.68.16-14.51-.12-2.22-.36-4.58-1.74-6.32-.94-1.11-2.14-1.97-3.49-2.51Z" style="fill: rgb(104, 225, 253);"/><path class="cls-31_school-36 targetColor" d="M419.73,268.75c.1.21.14.43.12.66-.1.27-.3.49-.56.62-1.89,1.27-3.88,2.36-5.97,3.26-.55.32-1.21.42-1.83.28-.43-.21-.79-.52-1.05-.91-1.63-1.98-3.25-3.98-4.88-5.97-.49-.55-.9-1.17-1.22-1.83-.22-.62-.36-1.26-.4-1.92-.21-2.01-1.05-6.42.66-7.98,1.72-1.55,4.52.76,5.98,1.86,4.07,3.08,7.23,7.2,9.15,11.92Z" style="fill: rgb(104, 225, 253);"/><path class="cls-31_school-36 targetColor" d="M371.16,256.98c-1.19,1.51-2.16,3.17-2.88,4.96-.91,2.04-1.77,4.11-2.57,6.2-.9,2.38-1.74,4.9-1.37,7.41,1.2-.1,2.03-1.19,2.76-2.15s1.74-1.97,2.93-1.77,1.79,1.37,2.19,2.44c.22.59.67,1.33,1.27,1.13.25-.12.45-.32.58-.57l2.93-4.68c.59-.83,1.04-1.75,1.35-2.72.74-2.81-.96-5.58-1.92-8.34-.3-.91-.35-4.29-1.18-4.6-1.12-.42-3.46,1.94-4.09,2.68Z" style="fill: rgb(104, 225, 253);"/><path class="cls-14_school-36" d="M372.36,255.79l2.88-2.68c1.55-1.61,3.37-2.93,5.38-3.89,2.06-.72,4.24-1.02,6.41-.86,3.17.08,6.33.44,9.48.81,4.09.47,7.83,2.46,11.34,4.63-.79,9.49-.95,19.02-.48,28.54.41,8.15,1.28,16.3.79,24.45.16,1.2-.67,2.31-1.88,2.47-.31.04-.62.02-.91-.07-5.03,0-10.04-.96-15.07-.96-4.76,0-9.48.9-13.91,2.66-.27.15-.59.19-.89.12-.26-.13-.47-.35-.59-.62-1.05-1.63-1.84-3.41-2.35-5.27-.33-2-.33-4.04,0-6.04l.44-4.18c.08-1.12.28-2.23.6-3.31.56-1.32,1.2-2.6,1.92-3.83,1.19-2.72,1.84-5.65,1.92-8.63.37-4.83.42-9.68.16-14.51-.12-2.22-.36-4.58-1.74-6.32-.94-1.11-2.14-1.97-3.49-2.51Z"/><path class="cls-10_school-36" d="M419.73,268.75c.1.21.14.43.12.66-.1.27-.3.49-.56.62-1.89,1.27-3.88,2.36-5.97,3.26-.55.32-1.21.42-1.83.28-.43-.21-.79-.52-1.05-.91-1.63-1.98-3.25-3.98-4.88-5.97-.49-.55-.9-1.17-1.22-1.83-.22-.62-.36-1.26-.4-1.92-.21-2.01-1.05-6.42.66-7.98,1.72-1.55,4.52.76,5.98,1.86,4.07,3.08,7.23,7.2,9.15,11.92Z"/><path class="cls-17_school-36" d="M371.16,256.98c-1.19,1.51-2.16,3.17-2.88,4.96-.91,2.04-1.77,4.11-2.57,6.2-.9,2.38-1.74,4.9-1.37,7.41,1.2-.1,2.03-1.19,2.76-2.15s1.74-1.97,2.93-1.77,1.79,1.37,2.19,2.44c.22.59.67,1.33,1.27,1.13.25-.12.45-.32.58-.57l2.93-4.68c.59-.83,1.04-1.75,1.35-2.72.74-2.81-.96-5.58-1.92-8.34-.3-.91-.35-4.29-1.18-4.6-1.12-.42-3.46,1.94-4.09,2.68Z"/><path class="cls-31_school-36 targetColor" d="M381.91,250.76c.35,1.23-.58,2.41-1.17,3.53-.5,1-.87,2.07-1.09,3.17-2.08,8.85-1.66,18.1,1.23,26.72.67,2.27,1.76,4.4,3.21,6.28,2.26,2.66,5.57,4.2,9.06,4.23,1.37-.05,2.73-.18,4.08-.38,2.89-.33,5.81-.29,8.69.12,1.44.21,2.99.49,4.29-.16.69-.4,1.3-.92,1.79-1.54,1.49-1.64,2.98-3.39,3.46-5.55.22-1.32.24-2.67.05-4-.51-5.43-1.18-10.83-2-16.22-.38-3.17-1.15-6.29-2.28-9.28-1.14-3.01-3.25-5.56-6-7.25-1.92-1.09-4.19-1.6-5.92-2.96-.56-.53-1.18-.99-1.86-1.35-.71-.36-1.57-.16-2.05.48-2.53-2.22-6.38-1.96-8.6.57-.2.23-.39.48-.55.73-1.27-.21-2.55-.33-3.83-.37-1.12.12-2.88.42-3.64,1.27,1.16.39,2.73.55,3.14,1.97Z" style="fill: rgb(104, 225, 253);"/><path class="cls-13_school-36" d="M381.91,250.76c.35,1.23-.58,2.41-1.17,3.53-.5,1-.87,2.07-1.09,3.17-2.08,8.85-1.66,18.1,1.23,26.72.67,2.27,1.76,4.4,3.21,6.28,2.26,2.66,5.57,4.2,9.06,4.23,1.37-.05,2.73-.18,4.08-.38,2.89-.33,5.81-.29,8.69.12,1.44.21,2.99.49,4.29-.16.69-.4,1.3-.92,1.79-1.54,1.49-1.64,2.98-3.39,3.46-5.55.22-1.32.24-2.67.05-4-.51-5.43-1.18-10.83-2-16.22-.38-3.17-1.15-6.29-2.28-9.28-1.14-3.01-3.25-5.56-6-7.25-1.92-1.09-4.19-1.6-5.92-2.96-.56-.53-1.18-.99-1.86-1.35-.71-.36-1.57-.16-2.05.48-2.53-2.22-6.38-1.96-8.6.57-.2.23-.39.48-.55.73-1.27-.21-2.55-.33-3.83-.37-1.12.12-2.88.42-3.64,1.27,1.16.39,2.73.55,3.14,1.97Z"/><path class="cls-31_school-36 targetColor" d="M385.11,268.76c-.26-3.74,0-7.84,2.49-10.69,1.85-1.97,4.35-3.21,7.04-3.47,2.67-.25,5.36-.11,7.98.42,1.61.11,3.15.73,4.39,1.75.91,1.1,1.51,2.42,1.73,3.83,1.46,5.98,2.77,11.99,3.95,18.04.42,1.36.42,2.81,0,4.17-.72,1.68-2.57,2.52-4.26,3.22-5.44,2.26-12.81,4.49-17.99.19-4.25-3.45-4.98-12.48-5.33-17.47Z" style="fill: rgb(104, 225, 253);"/><path class="cls-16_school-36" d="M385.11,268.76c-.26-3.74,0-7.84,2.49-10.69,1.85-1.97,4.35-3.21,7.04-3.47,2.67-.25,5.36-.11,7.98.42,1.61.11,3.15.73,4.39,1.75.91,1.1,1.51,2.42,1.73,3.83,1.46,5.98,2.77,11.99,3.95,18.04.42,1.36.42,2.81,0,4.17-.72,1.68-2.57,2.52-4.26,3.22-5.44,2.26-12.81,4.49-17.99.19-4.25-3.45-4.98-12.48-5.33-17.47Z"/><path class="cls-31_school-36 targetColor" d="M374.09,331.86c-.32,1.84-.81,3.83-.06,5.49.96,2.19,3.59,3.04,5.94,3.42,2.6.42,5.24.56,7.87.42.37.02.74-.08,1.06-.27.41-.41.63-.98.59-1.56l.32-4.25-.07,1.14c4.3-5.26,11.95-6.29,17.49-2.35-.4-4.05-.81-8.14-.2-12.15.34-1.62.57-3.27.69-4.93-.08-2.26-.62-4.48-1.59-6.52-.16-.47-.44-.89-.81-1.22-.35-.21-.74-.35-1.15-.4-4.8-.89-9.68-1.24-14.56-1.04-3.66.14-9.39,0-12.54,2.13-2.31,1.59-2.28,4.55-2.4,7.08-.26,4.99.27,10.06-.59,15Z" style="fill: rgb(104, 225, 253);"/><path class="cls-12_school-36" d="M374.09,331.86c-.32,1.84-.81,3.83-.06,5.49.96,2.19,3.59,3.04,5.94,3.42,2.6.42,5.24.56,7.87.42.37.02.74-.08,1.06-.27.41-.41.63-.98.59-1.56l.32-4.25c0,.38,1.98,3.53,1.97,3.91,3.95-5.21,10.28-9.11,15.46-5.12-.4-4.05-.81-8.14-.2-12.15.34-1.62.57-3.27.69-4.93-.08-2.26-.62-4.48-1.59-6.52-.16-.47-.44-.89-.81-1.22-.35-.21-.74-.35-1.15-.4-4.8-.89-9.68-1.24-14.56-1.04-3.66.14-9.39,0-12.54,2.13-2.31,1.59-2.28,4.55-2.4,7.08-.26,4.99.27,10.06-.59,15Z"/><path class="cls-28_school-36" d="M392.06,338.82c-.05.06-.07.13-.07.2,0,.12.17.15.3.17,3.83.42,7.67-1.17,11.19-2.8l2.88-1.35c.44-.21.96-.54.91-1.03-.03-.19-.11-.37-.24-.52-.74-.97-1.8-1.64-2.99-1.92-1.18-.27-2.4-.33-3.59-.17-1.76.07-3.41.84-4.6,2.13-1.38,1.67-2.64,3.43-3.78,5.28Z"/><path class="cls-30_school-36" d="M399.7,357.66c.05,1.63-.09,3.27,0,4.89-.09.39.15.77.54.86.14.03.29.02.42-.03,1.85-.37,3.58-1.2,5.02-2.42.47-.28.85-.7,1.09-1.19.12-.44.13-.9.05-1.35-.21-1.6-.42-3.21-.48-4.79-.05-1.34,0-2.68.08-4.03l.35-7.47c.14-3.16.24-6.55-1.44-9.22-.37-.67-.94-1.22-1.62-1.57-.72-.27-1.5-.37-2.26-.29-1.55-.07-3.09.35-4.39,1.19-3.53,2.75-1.57,7.79-.61,11.26,1.28,4.63,3.11,9.25,3.26,14.15Z"/><path class="cls-28_school-36" d="M400.06,359.36c-.75,4,1.78,8.04,1.12,12.04-.18,1.09-.6,2.14-.7,3.24-.13,1.18.2,2.36.9,3.31.72.95,1.87,1.46,3.06,1.36.59-.09,1.16-.29,1.68-.6,3.89-2.17,5.75-7.07,5.13-11.5-.21-1.25-.51-2.48-.88-3.69-.6-2.06-1.2-4.12-1.79-6.18-.38-1.33-.66-3.36-2.18-3.9-2.91-1.05-5.9,3.6-6.34,5.93Z"/><path class="cls-18_school-36" d="M404.02,369.17c-.38,1.05-.88,2.06-1.5,2.99-.69,1.29-1,2.74-.91,4.2-.05,1.13.65,2.15,1.71,2.53.84.16,1.7-.02,2.41-.49.67-.45,1.27-1.01,1.76-1.65,1.3-1.36,2.29-3,2.88-4.79.2-.86.26-1.74.2-2.62-.07-1.78-.36-3.54-.85-5.25-.43-1.45-.87-3.42-2.1-4.51-1.06-.96-2.45-.63-3.5.39-1.13,1.08-1.55,2.71-1.08,4.21.43,1.65,1.42,3.24,1,4.99Z"/><path class="cls-30_school-36" d="M366.44,283.7c.56.91,1.2,1.77,1.92,2.56l4.54,5.35c1.31-1.09,2.77-2.51,2.51-4.21-.13-.58-.35-1.13-.65-1.64-.73-1.45-1.29-2.98-1.67-4.56-.34-1.15-.4-2.37-.17-3.55.2-.55.33-1.12.39-1.7,0-1.14-.86-2.07-1.69-2.88-.44-.53-1.04-.89-1.72-1.04-.51,0-1.01.14-1.44.41-1.74.96-3.21,2.35-3.33,4.37-.25,2.37.2,4.76,1.29,6.87Z"/><path class="cls-30_school-36" d="M421.45,275.1c-.05,1.51-1.22,2.72-2.36,3.73-1.05,1-2.25,1.82-3.56,2.44-.48-1.07-.74-2.23-.78-3.4l-.44-4.84c-.03-.14-.03-.3,0-.44.07-.14.18-.25.32-.34.96-.69,3.36-2.62,4.64-1.82.58.35.96,1.48,1.3,2.05.53.77.83,1.68.87,2.62Z"/><path class="cls-3_school-36" d="M387.92,319.71c-.07-.66-.29-1.49-.96-1.6-.65,1.66-1.12,3.38-1.42,5.14l-1.02,5.02c-.49,2.02-.75,4.1-.76,6.18,0,1.65.5,3.27,1.45,4.62.65.84,2.64,3.01,3.78,1.63.62-.76.77-4.66.82-5.58.12-1.88-1.54-12.15-1.9-15.41Z"/><path class="cls-28_school-36" d="M377.54,336.37c1.02-.36,2.06-.65,3.12-.86,1.07.02,2.12.31,3.06.83l3.19,1.46c.43.16.83.41,1.16.74.33.34.42.84.22,1.27-.31.39-.78.61-1.27.6-1.88.24-3.78.15-5.63-.26-1.41-.35-2.8-.79-4.15-1.32-.67-.25-2.42-.77-2.29-1.72s1.91-.61,2.6-.75Z"/><path class="cls-30_school-36" d="M377.43,369.15c-.02.26.02.52.13.75.18.25.45.42.75.49,1.57.53,3.58.32,4.52-1.04.77-1.09.64-2.55.56-3.83-.42-6.87,1.27-13.68,1.83-20.54.26-2.01.12-4.05-.4-6.01-.55-1.69-1.92-3.36-3.7-3.27-3.29.18-3.39,3.09-3.41,5.55l-.1,9.43c-.06,6.16-.12,12.32-.18,18.48Z"/><path class="cls-28_school-36" d="M377.08,375.49l.78,2.82c.03.19.12.37.24.52.24.19.55.27.85.23,2.13-.04,4.24-.42,6.26-1.1.17-.04.32-.12.45-.24.14-.19.21-.41.21-.64.22-2.26.24-4.53.07-6.8.02-.94-.29-1.85-.87-2.59-.12-.14-.28-.24-.45-.29-.36-.01-.7.12-.96.37-1.01.72-2.2,1.13-3.44,1.18-.65.05-1.3-.02-1.92-.2-.34-.12-.87-.65-1.21-.66-2.22-.03-.34,6.24,0,7.4Z"/><path class="cls-19_school-36" d="M417.15,413.08c1.6,1.11,3.33,2.24,5.27,2.33,2.8.12,5.17-1.92,7.77-2.96,2.98-1.19,6.3-1.04,9.48-1.43,8.09-.96,15.34-5.4,22.22-9.71-9.45-8.63-23.49-9.23-35.53-13.59-2.79-1.01-5.49-2.23-8.22-3.37-5.07-2.12-10.26-3.95-15.54-5.48-1.13.75-.44,2.5.36,3.59,5.11,6.93,11.25,13.04,18.21,18.12-2.17,1.69-5.31.44-7.67-.96-7.86-4.51-15.2-9.86-21.91-15.94-1.74-1.59-9.59-8.95-11.5-4.98-1.54,3.17,7.24,9.75,8.98,11.42,8.76,8.35,18.15,16.03,28.08,22.97Z"/><path class="cls-28_school-36" d="M376.73,227.46c0,1.38-.08,2.76-.28,4.12-.23,1.03-.72,2.07-.44,3.1.28.78.82,1.43,1.53,1.85.71.41,1.38.88,2,1.41.73.77,1.28,1.7,1.58,2.72.17.68.46,1.33.85,1.92.56.64,1.35,1.06,2.2,1.16.84.11,1.69.11,2.53,0l2.81-.24c.57.02,1.13-.17,1.56-.55.4-.44.39-1.11.69-1.63.16-.27.4-.49.55-.77.13-.31.22-.63.28-.96.38-1.54,1.92-2.61,2.34-4.13.2-.71.17-1.47.43-2.16.45-1.22,1.69-1.97,2.27-3.13-1.02-.08-1.97-.54-2.66-1.29-.13-.15-.21-.47,0-.51.36.11.74.17,1.11.15l-2.33-2.81c-.6-.82-1.34-1.52-2.19-2.07-1.5-.84-3.34-.68-5.06-.75-.13,0-.26-.02-.37-.1-.08-.09-.14-.2-.19-.31-.25-.25-.61-.37-.96-.32-1.99.08-3.94.54-5.75,1.35-1.74.63-2.38,2.18-2.51,3.93Z"/></g></svg>