<svg id="_0501_video_tutorial" xmlns="http://www.w3.org/2000/svg" xmlns:xlink="http://www.w3.org/1999/xlink" viewBox="0 0 500 500" data-imageid="video-tutorial-62" imageName="Video Tutorial" class="illustrations_image" style="width: 166px;"><defs><style>.cls-1_video-tutorial-62{fill:#020202;opacity:.1;}.cls-1_video-tutorial-62,.cls-2_video-tutorial-62,.cls-3_video-tutorial-62,.cls-4_video-tutorial-62,.cls-5_video-tutorial-62,.cls-6_video-tutorial-62,.cls-7_video-tutorial-62,.cls-8_video-tutorial-62,.cls-9_video-tutorial-62,.cls-10_video-tutorial-62,.cls-11_video-tutorial-62,.cls-12_video-tutorial-62,.cls-13_video-tutorial-62,.cls-14_video-tutorial-62,.cls-15_video-tutorial-62,.cls-16_video-tutorial-62,.cls-17_video-tutorial-62,.cls-18_video-tutorial-62,.cls-19_video-tutorial-62,.cls-20_video-tutorial-62{stroke-width:0px;}.cls-1_video-tutorial-62,.cls-3_video-tutorial-62,.cls-6_video-tutorial-62{isolation:isolate;}.cls-2_video-tutorial-62{fill:url(#linear-gradient);}.cls-3_video-tutorial-62{opacity:.18;}.cls-3_video-tutorial-62,.cls-20_video-tutorial-62{fill:#68e1fd;}.cls-4_video-tutorial-62{fill:url(#linear-gradient-11-video-tutorial-62);}.cls-5_video-tutorial-62{fill:url(#linear-gradient-10-video-tutorial-62);}.cls-6_video-tutorial-62{opacity:.41;}.cls-6_video-tutorial-62,.cls-17_video-tutorial-62{fill:#fff;}.cls-21_video-tutorial-62{fill:none;stroke:url(#linear-gradient-4-video-tutorial-62);stroke-miterlimit:10;stroke-width:.75px;}.cls-7_video-tutorial-62{fill:url(#linear-gradient-2-video-tutorial-62);}.cls-8_video-tutorial-62{fill:url(#linear-gradient-3-video-tutorial-62);}.cls-9_video-tutorial-62{fill:url(#linear-gradient-8-video-tutorial-62);}.cls-10_video-tutorial-62{fill:url(#linear-gradient-9-video-tutorial-62);}.cls-11_video-tutorial-62{fill:url(#linear-gradient-7-video-tutorial-62);}.cls-12_video-tutorial-62{fill:url(#linear-gradient-5-video-tutorial-62);}.cls-13_video-tutorial-62{fill:url(#linear-gradient-6-video-tutorial-62);}.cls-14_video-tutorial-62{fill:#231f20;}.cls-15_video-tutorial-62{fill:#dea095;}.cls-16_video-tutorial-62{fill:#c14834;}.cls-18_video-tutorial-62{fill:#ffaa71;}.cls-19_video-tutorial-62{fill:#ffb4a3;}</style><linearGradient id="linear-gradient-video-tutorial-62" x1="310.82" y1="3058.75" x2="356.16" y2="2633.98" gradientTransform="translate(-46.77 3340.08) scale(1 -1)" gradientUnits="userSpaceOnUse"><stop offset="0" stop-color="#231f20"/><stop offset=".08" stop-color="#231f20" stop-opacity=".69"/><stop offset=".21" stop-color="#231f20" stop-opacity=".32"/><stop offset="1" stop-color="#231f20" stop-opacity="0"/></linearGradient><linearGradient id="linear-gradient-2-video-tutorial-62" x1="-1268.95" y1="3107.99" x2="-1435.86" y2="2965.81" gradientTransform="translate(1543.83 3340.08) scale(1 -1)" gradientUnits="userSpaceOnUse"><stop offset="0" stop-color="#000"/><stop offset=".13" stop-color="#000" stop-opacity=".69"/><stop offset=".25" stop-color="#000" stop-opacity=".32"/><stop offset="1" stop-color="#000" stop-opacity="0"/></linearGradient><linearGradient id="linear-gradient-3-video-tutorial-62" x1="177.1" y1="2983.72" x2="428.46" y2="3215.99" gradientTransform="translate(-46.77 3340.08) scale(1 -1)" xlink:href="#linear-gradient-2-video-tutorial-62"/><linearGradient id="linear-gradient-4-video-tutorial-62" x1="3325.05" y1="2807.91" x2="3524.89" y2="2648.29" gradientTransform="translate(4067.76 2980.94) rotate(-180) scale(1.09 1)" gradientUnits="userSpaceOnUse"><stop offset="0" stop-color="#fff"/><stop offset="1" stop-color="#cbcbcb"/></linearGradient><linearGradient id="linear-gradient-5-video-tutorial-62" x1="3434.59" y1="2869.99" x2="3434.5" y2="2856.62" gradientTransform="translate(4067.76 2980.94) rotate(-180) scale(1.09 1)" xlink:href="#linear-gradient-4-video-tutorial-62"/><linearGradient id="linear-gradient-6-video-tutorial-62" x1="3447.92" y1="2868.47" x2="3448.66" y2="2858.68" gradientTransform="translate(4039.34 3017.1) rotate(-179.47) scale(1.09 1) skewX(-.04)" xlink:href="#linear-gradient-4-video-tutorial-62"/><linearGradient id="linear-gradient-7-video-tutorial-62" x1="-241.15" y1="3095.03" x2="1749.05" y2="2997.19" gradientTransform="translate(-31 3367.76) scale(1 -1)" xlink:href="#linear-gradient-2-video-tutorial-62"/><linearGradient id="linear-gradient-8-video-tutorial-62" x1="168.03" y1="3208.43" x2="258.72" y2="2790.82" xlink:href="#linear-gradient-video-tutorial-62"/><linearGradient id="linear-gradient-9-video-tutorial-62" x1="201.71" y1="3010.21" x2="366.1" y2="3016.04" gradientTransform="translate(-46.77 3340.08) scale(1 -1)" xlink:href="#linear-gradient-2-video-tutorial-62"/><linearGradient id="linear-gradient-10-video-tutorial-62" x1="217.88" y1="3123.8" x2="266.94" y2="3097.83" gradientTransform="translate(-31 3367.76) scale(1 -1)" xlink:href="#linear-gradient-2-video-tutorial-62"/><linearGradient id="linear-gradient-11-video-tutorial-62" x1="130.01" y1="3025.9" x2="324.16" y2="2983.01" gradientTransform="translate(-46.77 3340.08) scale(1 -1)" xlink:href="#linear-gradient-2-video-tutorial-62"/></defs><g id="background_video-tutorial-62"><path class="cls-3_video-tutorial-62 targetColor" d="M218.91,79.13c-10.5-4.05-21.39-7-32.49-8.79-41.41-6.55-86.74,5.59-114.99,36.51-15.61,17.11-25.36,38.73-33.26,60.52-16.94,46.71-26.64,95.04-26.6,144.59.19,28.91,11.62,56.61,31.88,77.23,28.53,28.76,70.72,39.58,111.16,41.7,40.44,2.13,81-3.17,121.44-.99,38.26,2.06,76.36,10.82,114.55,7.9,38.19-2.92,78.68-20.89,93.79-56.11,16.38-38.21,2.83-105.08-29.73-130.88-36.73-29.1-82.61-44.53-117.82-75.63-15.47-13.63-28.15-30.09-42.52-44.87-21.33-21.92-47.02-40.31-75.42-51.18Z" style="fill: rgb(255, 85, 22);"/><path class="cls-2_video-tutorial-62" d="M381.55,387.19c-90.67,11.63-182.54,2.7-273.96,2.96-6.61,0-15.68,2.75-14.62,9.28,53.17,12.56,108.3,13.55,162.92,14.46l99.41,1.62c22.74.37,45.49.76,68.15-.54,8.46-.47,17.12-1.23,24.73-4.96,21.41-10.48,10.8-24.24-7.65-26.56-19.61-2.39-39.58,1.25-58.97,3.74Z"/></g><g id="character_2_video-tutorial-62"><path class="cls-20_video-tutorial-62 targetColor" d="M160.43,235.98c.11,4.18,2.18,8.01,4.24,11.65,9.33,16.49,19.8,32.74,34.26,44.99,21.27,17.98,49.11,25.75,76.02,33.01-2.4-1.17-5.3-13.57-6.37-16.25-2.08-5.33-4.03-10.72-6.03-16.08-3.15-8.48-9.75-15.3-16.25-21.54-14.64-14.09-32.4-24.51-51.84-30.41-11.03-3.39-22.49-5.19-34.04-5.36Z" style="fill: rgb(255, 85, 22);"/><path class="cls-7_video-tutorial-62" d="M160.43,235.98c.11,4.18,2.18,8.01,4.24,11.65,9.33,16.49,19.8,32.74,34.26,44.99,21.27,17.98,49.11,25.75,76.02,33.01-2.4-1.17-5.3-13.57-6.37-16.25-2.08-5.33-4.03-10.72-6.03-16.08-3.15-8.48-9.75-15.3-16.25-21.54-14.64-14.09-32.4-24.51-51.84-30.41-11.03-3.39-22.49-5.19-34.04-5.36Z"/><path class="cls-20_video-tutorial-62 targetColor" d="M265.67,245.21c-2.19-15.34-4.45-30.87-10.63-45.12-6.17-14.25-16.88-27.16-31.4-32.49-.42,21.99-.85,43.96-1.28,65.93-.24,12.7-.45,25.64,3.25,37.8,6.4,21.32,28.56,46.33,49.92,53.39,3.25-10.25-2.14-25.77-3.66-36.39l-6.21-43.12Z" style="fill: rgb(255, 85, 22);"/><path class="cls-8_video-tutorial-62" d="M265.67,245.21c-2.19-15.34-4.45-30.87-10.63-45.12-6.17-14.25-16.88-27.16-31.4-32.49-.42,21.99-.85,43.96-1.28,65.93-.24,12.7-.45,25.64,3.25,37.8,6.4,21.32,28.56,46.33,49.92,53.39,3.25-10.25-2.14-25.77-3.66-36.39l-6.21-43.12Z"/><path class="cls-20_video-tutorial-62 targetColor" d="M249.23,134.01v246.07c0,10.64,9.44,19.25,21.12,19.22l112.52-.18c11.62,0,21.12-8.64,21.12-19.28v-246.07c0-10.64-9.42-19.25-21.12-19.24l-112.6.18c-11.6.02-21.04,8.66-21.04,19.3ZM259.97,134.17c0-6.5,5.82-11.88,13-11.89h15.86v1.46c.2,4.38,3.92,7.77,8.3,7.57,0,0,0,0,0,0l60.47-.1c4.39.18,8.11-3.21,8.32-7.6v-1.46h16.38c7.16,0,13,5.3,13,11.84v245.32c0,6.5-5.82,11.88-13,11.89l-109.32.16c-7.16,0-13-5.3-13-11.84v-245.35Z" style="fill: rgb(255, 85, 22);"/><path class="cls-17_video-tutorial-62" d="M243.93,138.99v246.15c0,10.63,9.44,19.24,21.12,19.22l112.51-.18c11.62,0,21.12-8.66,21.12-19.3v-246.07c0-10.63-9.44-19.25-21.12-19.22l-112.51.16c-11.68.03-21.12,8.68-21.12,19.24ZM254.67,139.17c0-6.5,5.82-11.88,13-11.89h15.86v1.46c.21,4.39,3.93,7.78,8.32,7.59l60.47-.1c4.39.17,8.09-3.22,8.3-7.6v-1.46h16.38c7.16,0,13,5.3,13,11.86v245.32c0,6.5-5.82,11.88-13,11.89l-109.32.18c-7.16,0-13-5.3-13-11.86v-245.38Z"/><path class="cls-21_video-tutorial-62" d="M254.67,139.24v245.32c0,6.5,5.82,11.86,13,11.86l109.32-.18c7.16,0,13-5.33,13-11.89v-245.35c0-6.5-5.82-11.88-13-11.86h-16.38v1.46c-.21,4.38-3.92,7.78-8.3,7.6l-60.47.1c-4.39.19-8.11-3.2-8.32-7.59v-1.46h-15.86c-7.15.11-13,5.43-13,11.99Z"/><path class="cls-20_video-tutorial-62 targetColor" d="M389.95,138.99v245.32c0,6.5-5.82,11.89-13,11.89h-109.32c-7.16,0-13-5.3-13-11.86v-245.32c0-6.5,5.82-11.89,13-11.89h15.87v1.46c.19,4.37,3.9,7.76,8.27,7.57,0,0,.01,0,.02,0l60.47-.08c4.4.18,8.12-3.22,8.32-7.62v-1.45h16.38c7.18.13,13,5.47,13,11.97Z" style="fill: rgb(255, 85, 22);"/><polygon class="cls-12_video-tutorial-62" points="313.81 130.98 334.6 130.95 334.6 129.26 313.81 129.3 313.81 130.98"/><ellipse class="cls-13_video-tutorial-62" cx="308.35" cy="129.89" rx="2.26" ry="2.06" transform="translate(-1.25 3.02) rotate(-.56)"/><rect class="cls-20_video-tutorial-62 targetColor" x="264.22" y="249.16" width="12.8" height="142.24" rx="5.88" ry="5.88" style="fill: rgb(255, 85, 22);"/><path class="cls-14_video-tutorial-62" d="M360.94,396.32h-34.52l-5.59-58.73,13.53.45,26.58.88s.49,26.43,0,57.4Z"/><path class="cls-14_video-tutorial-62" d="M334.78,333.67l-.42,4.44-5.6,58.26h-33.81c-.52-43.86,3.62-69.14,3.62-69.14l36.21,6.45Z"/><path class="cls-17_video-tutorial-62" d="M275.03,281.12c.21,3.87,1.46,7.26,4.87,8.37.28.11.57.19.86.24,6.19,1.23,14.31-3.48,19.98-7.59,2.35-1.71,4.61-3.55,6.76-5.51v-41.44l-30.12,30.87c-1.59,4.86-2.38,9.95-2.36,15.06Z"/><path class="cls-17_video-tutorial-62" d="M300.48,281.96c0,1.93-.24,3.9-.24,5.85,0,10.71,2.49,21.75-.71,32.25-.71,2.34-1.72,4.87-.89,7.16.93,1.93,2.52,3.45,4.48,4.31,9.44,5.17,20.34,6.74,31,8.24,8.01,1.12,19.37,3.51,26.77-.81,3.15-1.84,4.22-5.26,5.23-8.68,3.25-10.85,4.14-22.53,4.99-33.78.11-1.48.21-2.97.31-4.45.62-10.26.82-20.51.62-30.77-.15-7.44-.73-15.48-5.59-21.12-6.5-7.49-18.98-12.44-28.46-14.18-3.08-.63-6.23-.8-9.36-.52-4.44.7-8.72,2.16-12.67,4.31-4.71,2.32-8.9,4.29-11.23,8.95-2.52,5.41-4.28,11.15-5.22,17.04-.85,5.52-.95,11.12-.29,16.67.28,2.71.99,5.41,1.25,8.12-.02.47.02.96.02,1.41Z"/><path class="cls-1_video-tutorial-62" d="M344.17,342.64c3.1.91,10.27-1.93,12.66-2.36,1.41-.24,2.71-.96,4.13-1.3,7.08-1.77,7.93-21.69,8.63-27.05,1.84-14.17,4.66-28.84,4.87-43.05.32-5.48-.32-10.98-1.88-16.25-1.79-5.17-5.47-9.94-10.63-11.81-9.07-3.25-11.75,25.38-13,31.32l-6.81,32.39c-.96,3.98-1.58,8.02-1.85,12.1-.24,5.67,1.62,9.75,3.02,14.75.83,2.83-1.45,8.22-.32,10.32.26.45.68.79,1.19.93Z"/><path class="cls-19_video-tutorial-62" d="M322.37,217.15c1.14,1.24,2.69,2.02,4.37,2.19,1.4.13,2.81.13,4.21,0h.78c.2-.04.41,0,.58.11.16.16.25.39.24.62.31,2.8.36,5.62.16,8.43h0c0,.5-.08,1.01-.13,1.51-.11.54-.07,1.11.13,1.62.4.58,1.01.98,1.71,1.12,1.23.41,2.51.63,3.8.65,2.77-.26,5.43-1.2,7.75-2.73-.18-4.81.07-9.62.76-14.38.89-6.14,2.5-12.28,1.84-18.46,0-5.57-4.52-10.09-10.09-10.09-.54,0-1.08.04-1.61.13-4.43-.08-8.79,1.11-12.56,3.43-1.14.9-1.82,2.27-1.85,3.72-.49,2.42-.88,4.87-1.14,7.31-.31,2.81-.47,5.62-.52,8.43-.25,2.24.3,4.5,1.56,6.37Z"/><path class="cls-14_video-tutorial-62" d="M327.26,192.77c3.14.52,6.5,0,9.55,1.19,4.16,1.62,5.93,7.1,4.53,11.37,1.2.44,1.43-1.72,2.36-2.6.93-.88,3.02.29,3.25,1.8-.08,1.51-.54,2.98-1.33,4.27-1.13,2.66-1.32,5.62-.55,8.4.19.65.67,1.43,1.33,1.25s1.12-1.28,1.51-1.77c.59-.77,1.25-1.49,1.97-2.14,1.48-1.28,3.07-2.4,4.57-3.66,2.66-2.23,5.13-5.25,4.97-8.71-.08-1.41-.56-2.77-1.36-3.93-.68-1-1.56-1.85-2.58-2.5-.42-.28-.91-.55-.99-1.06-.02-.27.01-.55.1-.81.64-3.62-.88-7.28-3.88-9.39-3.02-2.03-6.48-3.31-10.09-3.74-2.32-.42-4.65-.75-6.99-1.02-1.93-.09-3.83-.53-5.6-1.32.45-1.3,1.08-2.53,1.85-3.67-1.66.49-3.24,1.22-4.7,2.16.08-.81.29-1.6.63-2.34-2.63.63-5.02,2-6.9,3.95-2,2.77-2.1,6.48-.24,9.34,1.8,2.84,4.65,3.98,7.77,4.73l.84.19Z"/><path class="cls-15_video-tutorial-62" d="M330.95,219.41h.78c.2-.04.41,0,.58.11.16.16.25.39.24.62.31,2.8.36,5.62.16,8.43h0s8.12-2.05,7.78-11.97c-3.06,1.27-6.25,2.22-9.5,2.83l-.05-.02Z"/><path class="cls-17_video-tutorial-62" d="M269.41,253.48c-.56,6.84.07,13.73,1.87,20.36,1.33,4.71,3.84,9.01,7.29,12.48,1.26,1.22,3.05,1.73,4.76,1.33,3.1-.57,5.94-2.09,8.12-4.35,5.54-6.12,1.77-15.55,1.77-15.55,0,0-11.47-18.05-14.02-18.78-1.38-.42-4.18.97-6.5,2.32-1.77,1.1-3.3,2.19-3.3,2.19Z"/><path class="cls-1_video-tutorial-62" d="M270.4,266.72c.9,5.23,2.06,10.42,3.48,15.53.39,1.72,1.12,3.34,2.14,4.78,2.88,3.53,8.12,3.25,12.02,2.01,1.27-.41,13.16-5.69,12.67-6.9v-.13l-1.92-12.4c.16,1.01-4.99,4.52-5.67,5.04-3.25,2.49-8.03,6.5-11.86,2.68-1.28-1.45-2.23-3.17-2.78-5.02-2.42-6.49-4.24-13.19-5.44-20.02-1.52-.58-3.22.17-3.8,1.68-.01.03-.02.06-.03.09-.48,1.52-.52,3.15-.11,4.7.39,2.66.83,5.33,1.3,7.96Z"/><path class="cls-17_video-tutorial-62" d="M384.8,283.89c2.68,7.28,5.05,15,3.95,22.66-1.32,9.31-7.51,17.09-13.47,24.37-4.68.7-10.82.6-12.48-3.83-.42-1.43-.53-2.93-.32-4.4l.67-9.6c.55-4.27.33-8.61-.65-12.8-1.41-4.7-4.66-8.56-7.23-12.74-4.19-6.79-6.67-14.48-7.25-22.44-.54-7.47,5.1-31.58,16.12-24.37,4.57,2.99,8.61,15.39,11.01,20.37,3.6,7.4,6.81,14.99,9.65,22.78Z"/><path class="cls-19_video-tutorial-62" d="M359.98,337.47c-.25.37-.39.8-.39,1.25,0,.44.55.84.94.65,1.12,3.44-1.22,7.05-1.22,10.69,0,.33.04.65.15.96.16.4.44.74.8.97,1.24.78,2.79.88,4.11.26,1.31-.61,2.47-1.49,3.43-2.57,2.09-1.92,3.68-4.31,4.65-6.97.34-1.24.56-2.52.67-3.8l1.12-9.47c-7.12-2.32-10.95,2.39-14.25,8.03Z"/><path class="cls-19_video-tutorial-62" d="M281.74,240.66c.27-.61.36-1.29.28-1.95-.12-.68-.75-1.14-1.43-1.04-.39.1-.65.44-.99.63-.83.43-1.85.3-2.55-.32-.68-.61-1.24-1.36-1.62-2.19-1.28-2.24-2.68-4.41-4.21-6.5-.31-.53-.78-.94-1.35-1.19-.68-.14-1.39,0-1.97.37-2.78,1.71-4.52,4.71-4.63,7.98-.07,3.23.89,6.41,2.73,9.07,1.83,2.65,3.97,5.07,6.38,7.2.54.62,1.25,1.07,2.05,1.28,4.52.75,6.47-10.74,7.31-13.34Z"/><rect class="cls-6_video-tutorial-62" x="263.25" y="154.28" width="47.93" height="42.22"/></g><g id="character_1_video-tutorial-62"><rect class="cls-20_video-tutorial-62 targetColor" x="106.34" y="198.34" width="131.37" height="185.87" rx="11.65" ry="11.65" style="fill: rgb(255, 85, 22);"/><rect class="cls-11_video-tutorial-62" x="104.21" y="201.53" width="131.37" height="185.87" rx="11.65" ry="11.65"/><rect class="cls-17_video-tutorial-62" x="99.58" y="206.79" width="131.37" height="185.87" rx="11.65" ry="11.65"/><path class="cls-9_video-tutorial-62" d="M230.95,286.27v94.8c0,6.44-5.23,11.65-11.66,11.65h-108.05c-6.43,0-11.65-5.22-11.65-11.65v-49.68c87.97,19.53,131.37-45.12,131.37-45.12Z"/><path class="cls-20_video-tutorial-62 targetColor" d="M202.46,260.04v151.33h-13.79v-151.33c0-.58.08-1.16.21-1.72h0c.15-.56.36-1.11.63-1.62l.23-.42,5.83-11.05,6.06,11.47c.27.52.47,1.06.62,1.62.14.56.21,1.14.21,1.72Z" style="fill: rgb(255, 85, 22);"/><path class="cls-10_video-tutorial-62" d="M202.46,260.04v151.33h-13.79v-151.33c0-.58.08-1.16.21-1.72h0c.15-.56.36-1.11.63-1.62l.23-.42,5.83-11.05,6.06,11.47c.27.52.47,1.06.62,1.62.14.56.21,1.14.21,1.72Z"/><path class="cls-20_video-tutorial-62 targetColor" d="M195.53,292.11v-33.86h6.69v153.12h-6.69v-118.39c-.17-.76.12-1.56.75-2.03.7-.64,1.59-1.04,2.53-1.14.64.01,1.29-.1,1.88-.34.54-.38.91-.97,1.02-1.62.17-.57.25-1.16.26-1.75.04-.19-.02-.38-.15-.52-.1-.08-.23-.12-.36-.13-.85-.12-1.71-.01-2.5.29-.57.29-1.17.52-1.79.67-.85.1-1.69-.29-2.16-1.01" style="fill: rgb(255, 85, 22);"/><path class="cls-20_video-tutorial-62 targetColor" d="M202.24,258.32c-4.01,2.82-9.36,2.82-13.37,0h0l.86-2.05,5.83-11.05,6.06,11.47c.27.52.47,1.06.62,1.62Z" style="fill: rgb(255, 85, 22);"/><path class="cls-20_video-tutorial-62 targetColor" d="M99.58,223.23c-3.14-.19-6.28.41-9.13,1.74,2.85,1.33,5.99,1.94,9.13,1.75v4.24c-6.81,0-13.66-1.85-13.66-5.98s6.86-5.98,13.66-5.98v4.22Z" style="fill: rgb(255, 85, 22);"/><path class="cls-20_video-tutorial-62 targetColor" d="M113.21,224.97c0,4.13-6.84,5.98-13.63,5.98v-4.22c5.41,0,8.76-1.27,9.42-1.98.14-1.16,1.2-1.98,2.36-1.83,1.05.13,1.84,1.02,1.85,2.08v-.02Z" style="fill: rgb(255, 85, 22);"/><path class="cls-20_video-tutorial-62 targetColor" d="M99.58,247.42c-3.14-.19-6.28.41-9.13,1.74,2.85,1.33,5.99,1.93,9.13,1.74v4.24c-6.81,0-13.66-1.85-13.66-5.98s6.86-5.98,13.66-5.98v4.24Z" style="fill: rgb(255, 85, 22);"/><path class="cls-20_video-tutorial-62 targetColor" d="M113.21,249.16c0,4.13-6.84,5.98-13.63,5.98v-4.24c5.41,0,8.76-1.27,9.42-1.98.14-1.16,1.2-1.98,2.36-1.83,1.05.13,1.84,1.02,1.85,2.08h0Z" style="fill: rgb(255, 85, 22);"/><path class="cls-20_video-tutorial-62 targetColor" d="M99.58,271.6c-3.14-.19-6.28.42-9.13,1.75,2.85,1.33,5.99,1.93,9.13,1.74v4.24c-6.81,0-13.66-1.85-13.66-5.98s6.86-6.01,13.66-6.01v4.26Z" style="fill: rgb(255, 85, 22);"/><path class="cls-20_video-tutorial-62 targetColor" d="M113.21,273.35c0,4.13-6.84,5.98-13.63,5.98v-4.24c5.41,0,8.76-1.27,9.42-1.98.14-1.16,1.2-1.98,2.36-1.83,1.05.13,1.84,1.02,1.85,2.08h0Z" style="fill: rgb(255, 85, 22);"/><path class="cls-20_video-tutorial-62 targetColor" d="M99.58,295.79c-3.14-.19-6.28.42-9.13,1.75,2.85,1.33,5.99,1.93,9.13,1.74v4.24c-6.81,0-13.66-1.85-13.66-5.98s6.86-5.98,13.66-5.98v4.22Z" style="fill: rgb(255, 85, 22);"/><path class="cls-20_video-tutorial-62 targetColor" d="M113.21,297.54c0,4.13-6.84,5.98-13.63,5.98v-4.24c5.41,0,8.76-1.27,9.42-1.98.14-1.16,1.2-1.98,2.36-1.83,1.05.13,1.84,1.02,1.85,2.08h0Z" style="fill: rgb(255, 85, 22);"/><path class="cls-20_video-tutorial-62 targetColor" d="M99.58,319.98c-3.14-.19-6.28.42-9.13,1.75,2.85,1.32,5.99,1.92,9.13,1.74v4.24c-6.81,0-13.66-1.85-13.66-5.98s6.86-5.99,13.66-5.99v4.24Z" style="fill: rgb(255, 85, 22);"/><path class="cls-20_video-tutorial-62 targetColor" d="M113.21,321.73c0,4.13-6.84,5.98-13.63,5.98v-4.24c5.41,0,8.76-1.27,9.42-2,.14-1.16,1.2-1.98,2.36-1.83,1.06.13,1.85,1.03,1.85,2.09Z" style="fill: rgb(255, 85, 22);"/><path class="cls-20_video-tutorial-62 targetColor" d="M99.58,344.17c-3.14-.19-6.28.42-9.13,1.75,2.85,1.32,5.99,1.92,9.13,1.74v4.24c-6.81,0-13.66-1.85-13.66-5.98s6.86-5.99,13.66-5.99v4.24Z" style="fill: rgb(255, 85, 22);"/><path class="cls-20_video-tutorial-62 targetColor" d="M113.21,345.92c0,4.13-6.84,5.98-13.63,5.98v-4.24c5.41,0,8.76-1.27,9.42-2,.14-1.16,1.2-1.98,2.36-1.83,1.06.13,1.85,1.03,1.85,2.09Z" style="fill: rgb(255, 85, 22);"/><path class="cls-20_video-tutorial-62 targetColor" d="M99.58,368.36c-3.14-.19-6.28.42-9.13,1.75,2.85,1.32,5.99,1.92,9.13,1.74v4.24c-6.81,0-13.66-1.85-13.66-5.98s6.86-5.99,13.66-5.99v4.24Z" style="fill: rgb(255, 85, 22);"/><path class="cls-20_video-tutorial-62 targetColor" d="M113.21,370.11c0,4.13-6.84,5.98-13.63,5.98v-4.24c5.41,0,8.76-1.27,9.42-2,.14-1.16,1.2-1.98,2.36-1.83,1.06.13,1.85,1.03,1.85,2.09Z" style="fill: rgb(255, 85, 22);"/><path class="cls-18_video-tutorial-62" d="M159.14,377.98c-2.26,3.62-4.84,7.03-7.72,10.19-4.44,4.62-9.16,8.96-14.13,13-2.45,2.11-4.87,4.24-7.25,6.5-1.95,1.85-4.44,3.12-4.87,5.98-.29,1.62,0,3.74-1.28,4.87-.99.76-2.34.86-3.43.24-1.05-.63-1.92-1.5-2.55-2.55-.28-.38-.48-.8-.62-1.25-.12-.49-.12-1,0-1.49.52-2.37,2.36-4.16,3.95-5.98,1.43-1.63,2.73-3.36,3.88-5.2.96-1.41,2.05-2.73,3.25-3.95l9.39-10.58c3.36-3.79,6.82-7.73,8.35-12.56.41-1.93,1.1-3.79,2.06-5.51,2.4-3.51,8.01-4.03,11.7-2.37,4.48,2.1,1.07,7.78-.73,10.66Z"/><path class="cls-18_video-tutorial-62" d="M139.7,371.04s-2.44,21.25,0,32.74c1.48,7.07,2.12,14.3,1.9,21.53-.8,1.1,0,2.75,1.14,3.49,1.22.64,2.59.94,3.96.86l5.59.19c.66.12,1.33-.05,1.85-.47.73-.8,0-2.13-.97-2.6s-2.13-.5-3.04-1.06c-1.75-1.06-1.98-3.44-2.01-5.49l-.15-8.9c-.21-12.8-.41-25.67,1.62-38.31.11-.57.11-1.16,0-1.74-.43-1.01-1.23-1.82-2.24-2.26-1.02-.68-2.16-1.16-3.36-1.4-1.23-.21-2.48.32-3.17,1.36"/><path class="cls-18_video-tutorial-62" d="M169.54,292.29l3.14,1.72c1.51.83,3.25,2.36,4.87,1.75,2.71-1.06,5.49-3.75,7.88-5.44s5.17-3.74,7.73-5.65c.68-.43,1.27-.98,1.74-1.62.76-1.27.78-3.14,2.11-3.79l.75,3.25,4.11-2.18c.48-.31,1.05-.47,1.62-.45,1.1.19,1.62,1.54,1.48,2.66-.32,3.75-4.18,4.96-7.23,5.9-.83.2-1.63.49-2.39.86-.59.34-1.13.75-1.62,1.22-2.79,2.24-5.31,4.81-7.51,7.64-.99,1.41-2.08,2.75-3.25,4.01-.92,1.36-2.15,2.47-3.59,3.25-1.1.35-2.27.4-3.4.13-4.08-.76-7.85-3.54-11.05-6.06-.36-.28-.75-.71-.52-1.1.13-.17.31-.29.52-.36,1.25-.45,2.37-1.21,3.25-2.21.98-.9,1.48-2.2,1.35-3.53Z"/><path class="cls-18_video-tutorial-62" d="M162.07,271.58c-.61,1.1-1.7,1.85-2.94,2.03-.32-.04-.64.03-.91.19-.21.27-.29.62-.21.96l.32,4.19c.07.33.02.67-.13.97-.25.31-.61.51-1.01.57-1.53.42-3.4.75-4.47-.41-.51-.67-.81-1.47-.88-2.31-1.05-4.75-1.33-9.64-.84-14.48.22-2.97,1.72-5.69,4.11-7.46,2.91-1.75,10.35-2.29,10.04,2.58-.32,1.95-.53,3.91-.63,5.88.02,2.63-.85,5.18-2.45,7.26Z"/><path class="cls-16_video-tutorial-62" d="M165.3,254.5c.31.85.31,1.78,0,2.63-.5.78-1.29,1.32-2.19,1.49-2.19.6-4.55.44-6.69,1.12-.35.09-.67.28-.93.54-.19.31-.3.66-.31,1.02-.49,4.24-.36,8.53.39,12.74-3.95,1.17-8.17,1.12-12.09-.15-1.29-.24-2.28-1.28-2.47-2.58-1.84-6.03-1.07-12.56,2.14-17.98,1.46-2.87,4.35-4.73,7.57-4.87,5.3-.76,13.19-.23,14.57,6.04Z"/><path class="cls-20_video-tutorial-62 targetColor" d="M160.51,323.41c-.32,10.38,3.46,20.15,6.29,30.14,1.25,4.34,2.63,8.81,2.16,13.29,0,.12,0,.24,0,.36-13.7,3.95-28.71,5.91-41.96.65,1.41-7,2.16-14.11,2.24-21.25-.12-2.82.07-5.64.57-8.42,1.07-4.73,4.13-8.74,7.31-12.4,1.29-1.27,2.29-2.79,2.96-4.47.39-1.6.45-3.25.19-4.87-.58-5.36-.71-10.76-.39-16.15.33-4.88,1.58-9.65,3.67-14.07.89-2.01,2.13-3.86,3.66-5.44,1.54-1.59,3.6-2.59,5.8-2.83,2.24-.2,4.41.81,5.7,2.65,3.33,5.13,8.89,6.29,13,10.9.24.22.41.51.47.83,0,.35-.13.69-.36.96-1.41,2.26-2.84,4.52-4.26,6.79-.44.72-.94,1.4-1.49,2.03h0c-.5.52-1.12.94-1.62,1.46-1.31,1.63-2.13,3.6-2.34,5.69-.9,4.67-1.43,9.4-1.59,14.15Z" style="fill: rgb(255, 85, 22);"/><path class="cls-20_video-tutorial-62 targetColor" d="M156.25,427.23l-1.38-.44c-1.1-.41-2.26-.66-3.43-.76-.2-.02-.4.02-.58.1-.23.15-.42.36-.52.62-.19.39-.47.74-.81,1.01-.75.32-1.59.32-2.34,0-.81-.18-1.6-.47-2.34-.84-.73-.41-1.35-.99-2.1-1.35-.42-.23-.92-.27-1.36-.1-.22.13-.4.31-.54.52-.31.33-.54.71-.68,1.14-.08.42-.08.85,0,1.27.02.37.12.73.31,1.06.47.46,1.1.69,1.75.65l6.76.42c2.11.13,4.22.26,6.35.23,1.16.02,2.33-.1,3.46-.37.16,0,.34-.1.39-.26.04-.1.04-.22,0-.32-.8-1.36-2.11-2.35-3.64-2.73" style="fill: rgb(255, 85, 22);"/><path class="cls-20_video-tutorial-62 targetColor" d="M118.2,411.67c.18.67,0,1.41.16,2.08.17.53.45,1.01.81,1.43l1.62,2.01c.18.26.41.48.67.65.72.28,1.52.25,2.21-.08.19-.1.42-.1.62,0,.11.1.18.23.21.37l.94,3.25c.39,1.36.6,2.77.63,4.19-.13.17-.3.31-.5.39-1.49.76-4.06-2.63-5.35-3.72-1.21-1.19-2.13-2.63-2.71-4.22-.37-.83-.71-1.62-1.04-2.5-.38-.77-.63-1.59-.75-2.44,0-.48.26-.92.68-1.14.44-.18,1.59-1.01,1.79-.28Z" style="fill: rgb(255, 85, 22);"/><polygon class="cls-5_video-tutorial-62" points="192.79 250.44 198.33 250.44 195.57 245.2 192.79 250.44"/><path class="cls-4_video-tutorial-62" d="M168.96,366.83c-2,.69-4.19.47-6.01-.6-3.14-1.97-4.39-5.88-4.87-9.54-1.25-8.01-.5-16.68-4.73-23.61-1.28-2.1-3.07-4.22-2.81-6.69s2.68-4.31,4.06-6.5c1.32-2.51,2.03-5.29,2.06-8.12.47-5.28.94-10.58,1.43-15.86,0,1.33,5.85,4.18,7.98,6.22-.5.52-1.12.94-1.62,1.46-1.31,1.63-2.13,3.6-2.34,5.69-.87,4.67-1.37,9.39-1.51,14.13-.32,10.38,3.46,20.15,6.29,30.14,1.17,4.32,2.55,8.79,2.08,13.27Z"/></g></svg>